<?xml version="1.0" encoding="utf-8"?>
<!-- Generator: Adobe Illustrator 17.0.0, SVG Export Plug-In . SVG Version: 6.00 Build 0)  -->
<!DOCTYPE svg PUBLIC "-//W3C//DTD SVG 1.1//EN" "http://www.w3.org/Graphics/SVG/1.1/DTD/svg11.dtd">
<svg version="1.1" id="Layer_1" xmlns="http://www.w3.org/2000/svg" xmlns:xlink="http://www.w3.org/1999/xlink" x="0px" y="0px"
	 width="36px" height="29.001px" viewBox="0 0 36 29.001" enable-background="new 0 0 36 29.001" xml:space="preserve">
<g>
	<path fill="#FFFFFF" d="M10.078,24.637H4.242V11.038c0-0.339,0.263-0.613,0.588-0.613h4.66c0.325,0,0.588,0.274,0.588,0.613V24.637
		z"/>
	<path fill="#FFFFFF" d="M20.918,24.637h-5.836V8.358c0-0.338,0.263-0.613,0.588-0.613h4.66c0.325,0,0.588,0.274,0.588,0.613V24.637
		z"/>
	<path fill="#FFFFFF" d="M31.758,24.637h-5.836V12.015c0-0.339,0.263-0.613,0.588-0.613h4.66c0.325,0,0.588,0.274,0.588,0.613
		V24.637z"/>
	<path fill="#FFFFFF" d="M34.943,29.001H1.057C0.473,29.001,0,28.507,0,27.899c0-0.608,0.473-1.101,1.057-1.101h33.886
		c0.584,0,1.057,0.493,1.057,1.101C36,28.507,35.527,29.001,34.943,29.001z"/>
	<path fill="#FFFFFF" d="M35.558,4.191c0.035-0.46-0.222-1.026-0.812-1.169l-3.415-0.865c-0.567-0.144-1.139,0.219-1.277,0.81
		c-0.138,0.591,0.21,1.187,0.777,1.33l0.966,0.245l-2.738,1.761L18.677,0.144c-0.299-0.177-0.661-0.192-0.972-0.04L7.385,5.152
		L2.452,1.944C1.957,1.621,1.305,1.779,0.996,2.295C0.687,2.811,0.838,3.49,1.333,3.812l5.421,3.526
		C7.059,7.536,7.438,7.56,7.763,7.401l10.344-5.06l10.451,6.2c0.272,0.149,0.651,0.226,1.078-0.02l3.319-2.135l-0.221,1.079
		c-0.243,1.435,1.706,1.842,2.067,0.46l0.733-3.576C35.542,4.3,35.546,4.307,35.558,4.191L35.558,4.191z"/>
</g>
</svg>
