<?xml version="1.0" encoding="utf-8"?>
<!-- Generator: Adobe Illustrator 17.0.0, SVG Export Plug-In . SVG Version: 6.00 Build 0)  -->
<!DOCTYPE svg PUBLIC "-//W3C//DTD SVG 1.1//EN" "http://www.w3.org/Graphics/SVG/1.1/DTD/svg11.dtd">
<svg version="1.1" id="Layer_1" xmlns="http://www.w3.org/2000/svg" xmlns:xlink="http://www.w3.org/1999/xlink" x="0px" y="0px"
	 width="30px" height="30px" viewBox="0 0 30 30" enable-background="new 0 0 30 30" xml:space="preserve">
<circle fill="#1B66E3" cx="15" cy="15" r="15"/>
<g>
	<path fill="#FFFFFF" d="M20.789,7.508H9.211c-0.94,0-1.703,0.751-1.703,1.677v11.629c0,0.926,0.762,1.677,1.703,1.677h11.578
		c0.94,0,1.703-0.751,1.703-1.677V9.186C22.492,8.259,21.729,7.508,20.789,7.508z M21.016,19.669c0,0.744-0.612,1.347-1.367,1.347
		h-9.297c-0.755,0-1.367-0.603-1.367-1.347v-9.338c0-0.744,0.612-1.347,1.367-1.347h9.297c0.755,0,1.367,0.603,1.367,1.347V19.669z"
		/>
	<path fill="#FFFFFF" d="M15.795,18.49c0,0.47-0.381,0.851-0.851,0.851l0,0c-0.47,0-0.851-0.381-0.851-0.851v-6.896
		c0-0.47,0.381-0.851,0.851-0.851l0,0c0.47,0,0.851,0.381,0.851,0.851V18.49z"/>
	<path fill="#FFFFFF" d="M19.072,18.533c0,0.447-0.381,0.809-0.851,0.809l0,0c-0.47,0-0.851-0.362-0.851-0.809v-2.937
		c0-0.447,0.381-0.809,0.851-0.809l0,0c0.47,0,0.851,0.362,0.851,0.809V18.533z"/>
	<path fill="#FFFFFF" d="M12.474,18.405c0,0.517-0.381,0.936-0.851,0.936l0,0c-0.47,0-0.851-0.419-0.851-0.936v-4.257
		c0-0.517,0.381-0.936,0.851-0.936l0,0c0.47,0,0.851,0.419,0.851,0.936V18.405z"/>
</g>
</svg>
