<?xml version="1.0" encoding="utf-8"?>
<!-- Generator: Adobe Illustrator 17.0.0, SVG Export Plug-In . SVG Version: 6.00 Build 0)  -->
<!DOCTYPE svg PUBLIC "-//W3C//DTD SVG 1.1//EN" "http://www.w3.org/Graphics/SVG/1.1/DTD/svg11.dtd">
<svg version="1.1" id="Layer_1" xmlns="http://www.w3.org/2000/svg" xmlns:xlink="http://www.w3.org/1999/xlink" x="0px" y="0px"
	 width="30px" height="30px" viewBox="-2.75 -5.25 30 30" enable-background="new -2.75 -5.25 30 30" xml:space="preserve">
<g>
	<path fill-rule="evenodd" clip-rule="evenodd" fill="#DBDCDD" d="M2.25-5.25h20c2.761,0,5,2.239,5,5v20c0,2.761-2.239,5-5,5h-20
		c-2.761,0-5-2.239-5-5v-20C-2.75-3.012-0.511-5.25,2.25-5.25z"/>
</g>
<g>
	<path fill="#848484" d="M6.637,7.119c-3.522,0-6.387,2.833-6.387,6.315s2.865,6.315,6.387,6.315s6.387-2.833,6.387-6.315
		S10.159,7.119,6.637,7.119z M6.417,12.549l0.946,0.322c1.831,0.625,1.89,3.197,0.048,3.879c0,0.489-0.37,0.798-0.774,0.798
		c-0.401,0-0.774-0.305-0.774-0.798c-0.791-0.293-1.356-1.048-1.356-1.931c0-0.423,0.347-0.765,0.774-0.765s0.774,0.343,0.774,0.765
		c0,0.292,0.24,0.53,0.536,0.53h0.091c0.604,0,0.742-0.837,0.175-1.03l-0.946-0.322c-1.832-0.624-1.89-3.197-0.049-3.878
		c0-0.489,0.37-0.798,0.774-0.798c0.4,0,0.774,0.305,0.774,0.798c0.791,0.293,1.356,1.047,1.356,1.931
		c0,0.423-0.347,0.765-0.774,0.765c-0.428,0-0.774-0.343-0.774-0.765c0-0.292-0.24-0.53-0.536-0.53H6.591
		C5.987,11.518,5.85,12.355,6.417,12.549z M24.25,18.983c0,0.423-0.347,0.766-0.774,0.766H12.637c-0.428,0-0.774-0.343-0.774-0.766
		s0.347-0.765,0.774-0.765h3.29V8.649c0-0.423,0.346-0.765,0.774-0.765s0.774,0.343,0.774,0.765v9.569h3.919V5.588
		c0-0.423,0.347-0.765,0.774-0.765s0.774,0.343,0.774,0.765v12.63h0.532C23.903,18.218,24.25,18.561,24.25,18.983z M11.073,6.912
		l3.314-3.277c0.302-0.299,0.793-0.299,1.095,0l1.219,1.205L20.3,1.282h-0.357c-0.428,0-0.774-0.343-0.774-0.766
		s0.347-0.765,0.774-0.765c2.399,0,2.27-0.006,2.377,0.015c0.369,0.072,0.623,0.396,0.623,0.751v2.201
		c0,0.423-0.347,0.765-0.774,0.765s-0.774-0.343-0.774-0.765V2.364l-4.146,4.099c-0.302,0.299-0.792,0.299-1.095,0l-1.219-1.205
		l-2.767,2.736c-0.151,0.149-0.349,0.224-0.547,0.224C10.938,8.219,10.584,7.396,11.073,6.912L11.073,6.912z"/>
</g>
</svg>
