<?xml version="1.0" encoding="utf-8"?>
<!-- Generator: Adobe Illustrator 17.0.0, SVG Export Plug-In . SVG Version: 6.00 Build 0)  -->
<!DOCTYPE svg PUBLIC "-//W3C//DTD SVG 1.1//EN" "http://www.w3.org/Graphics/SVG/1.1/DTD/svg11.dtd">
<svg version="1.1" id="Layer_1" xmlns="http://www.w3.org/2000/svg" xmlns:xlink="http://www.w3.org/1999/xlink" x="0px" y="0px"
	 width="30px" height="30px" viewBox="-6.125 -5.125 30 30" enable-background="new -6.125 -5.125 30 30" xml:space="preserve">
<g>
	<path fill="#DBDCDD" d="M-1.125-5.125h20c2.761,0,5,2.239,5,5v20c0,2.761-2.239,5-5,5h-20c-2.761,0-5-2.239-5-5v-20
		C-6.125-2.886-3.886-5.125-1.125-5.125z"/>
</g>
<g>
	<path fill="#848484" d="M5.281,0.787v2.604h4.081L5.281,0.787z"/>
	<path fill="#848484" d="M16.805-0.125H6.014l5.548,3.541c0.518,0.111,0.906,0.582,0.906,1.147v11.523h4.336
		c0.315,0,0.57-0.262,0.57-0.586V0.461C17.375,0.137,17.12-0.125,16.805-0.125z"/>
	<path fill="#848484" d="M5.437,9.113L5.421,9.354c0.122-0.048,0.298-0.141,0.431-0.132c0.132-0.008,0.31,0.085,0.431,0.132
		L6.266,9.113c-0.022-0.26,0.131-0.42,0.282-0.601L6.321,8.453c-0.248-0.06-0.347-0.257-0.469-0.462L5.727,8.196
		C5.595,8.42,5.381,8.456,5.154,8.512C5.306,8.693,5.458,8.853,5.437,9.113L5.437,9.113z"/>
	<path fill="#848484" d="M10.758,4.563H0.946c-0.316,0-0.571,0.262-0.571,0.586v14.14c0,0.324,0.255,0.586,0.571,0.586h9.812
		c0.315,0,0.571-0.262,0.571-0.586V5.149C11.328,4.825,11.073,4.563,10.758,4.563L10.758,4.563z M3.59,7.99
		c0.061-0.192,0.213-0.338,0.404-0.387l0.888-0.229l0.486-0.797c0.105-0.171,0.287-0.275,0.484-0.275
		c0.196,0,0.379,0.104,0.483,0.275l0.486,0.797l0.888,0.229C7.9,7.652,8.052,7.799,8.113,7.99c0.061,0.192,0.021,0.402-0.105,0.557
		L7.42,9.268l0.063,0.938c0.013,0.201-0.075,0.395-0.234,0.514c-0.159,0.119-0.366,0.145-0.548,0.07l-0.849-0.351L5.003,10.79
		c-0.181,0.075-0.389,0.049-0.548-0.07c-0.159-0.119-0.247-0.313-0.234-0.514l0.063-0.938L3.695,8.547
		C3.569,8.392,3.53,8.182,3.59,7.99L3.59,7.99z M9.046,17.844H2.657c-0.754-0.028-0.757-1.143,0-1.172h6.389
		C9.8,16.7,9.804,17.815,9.046,17.844z M9.046,15.5H2.657c-0.754-0.028-0.757-1.143,0-1.172h6.389
		C9.8,14.356,9.804,15.471,9.046,15.5z M9.046,13.156H2.657c-0.754-0.028-0.757-1.143,0-1.172h6.389
		C9.8,12.012,9.804,13.127,9.046,13.156z"/>
</g>
</svg>
