<?xml version="1.0" encoding="utf-8"?>
<!-- Generator: Adobe Illustrator 17.0.0, SVG Export Plug-In . SVG Version: 6.00 Build 0)  -->
<!DOCTYPE svg PUBLIC "-//W3C//DTD SVG 1.1//EN" "http://www.w3.org/Graphics/SVG/1.1/DTD/svg11.dtd">
<svg version="1.1" id="Layer_1" xmlns="http://www.w3.org/2000/svg" xmlns:xlink="http://www.w3.org/1999/xlink" x="0px" y="0px"
	 width="30px" height="30px" viewBox="0 0 30 30" enable-background="new 0 0 30 30" xml:space="preserve">
<g>
	<circle fill="#1B66E3" cx="15" cy="15" r="15"/>
	<g>
		<path fill="#FFFFFF" d="M6.621,17.549c-1.054-0.361-1.609-1.477-1.552-2.689c0.055-1.166,0.645-2.065,1.722-2.462
			c0.798-0.294,0.944-0.608,0.58-1.35C6.819,9.923,7.151,8.89,7.936,8.009c0.79-0.886,1.987-1.142,3.093-0.653
			c0.756,0.334,1.032,0.249,1.396-0.612c0,0,0.935-1.933,2.843-1.74s2.454,1.886,2.653,2.303c0.199,0.418,0.465,0.169,0.465,0.169
			c0.671-0.314,1.305-0.424,2.063-0.318c1.962,0.275,2.971,2.197,2.175,4.056c-0.294,0.686-0.125,0.898,0.492,1.117
			c1.202,0.426,1.791,1.327,1.816,2.597c0.024,1.254-0.475,2.24-1.67,2.685c-0.809,0.301-0.912,0.587-0.58,1.407
			c0.449,1.11,0.253,2.262-0.696,3.121c-0.937,0.848-2.047,0.872-3.186,0.48c-0.887-0.305-1.114,0.571-1.114,0.571
			c-0.562,1.167-1.667,1.941-2.755,1.8c-1.223-0.159-2.19-0.71-2.643-1.982c-0.086-0.24-0.64-0.555-0.833-0.477
			c-1.259,0.51-2.444,0.514-3.435-0.466c-1.011-1-1.211-2.214-0.492-3.488C7.988,17.768,6.621,17.549,6.621,17.549z M9.055,9.494
			C8.968,9.927,9.08,10.493,9.312,10.88c0.601,1.001-0.085,2.774-1.238,2.955c-0.681,0.107-1.208,0.363-1.248,1.119
			c-0.04,0.766,0.469,1.071,1.141,1.222c1.357,0.305,2.028,1.927,1.247,3.034c-0.383,0.543-0.51,1.066-0.009,1.576
			c0.515,0.524,1.032,0.506,1.637,0.042c1.088-0.835,2.69-0.088,3.038,1.246c0.121,0.464,0.677,1.081,1.085,1.122
			c0.354,0.036,1.002-0.575,1.136-1.016c0.46-1.511,1.925-2.18,3.195-1.291c0.586,0.41,1.071,0.386,1.551-0.11
			c0.451-0.466,0.453-0.937,0.075-1.476c-0.847-1.209-0.244-2.794,1.168-3.124c0.66-0.154,1.305-0.512,1.128-1.201
			c-0.117-0.453-0.739-0.954-1.232-1.096c-1.152-0.332-1.937-2.033-1.212-2.985c0.419-0.55,0.685-1.056,0.109-1.631
			c-0.566-0.564-1.127-0.454-1.741-0.013c-0.962,0.691-2.74-0.043-2.955-1.218c-0.125-0.685-0.374-1.215-1.147-1.199
			c-0.844,0.018-1.165,0.543-1.23,1.35c-0.022,0.275-0.292,0.606-0.518,0.769c-0.724,0.52-1.5,0.796-2.683,0.098
			C9.414,8.348,9.055,9.494,9.055,9.494z"/>
		<path fill="#FFFFFF" d="M11.129,14.959c0.025-2.166,1.813-3.889,3.99-3.844c2.135,0.044,3.803,1.78,3.783,3.935
			c-0.021,2.165-1.706,3.835-3.869,3.832C12.856,18.88,11.104,17.119,11.129,14.959z M15.065,17.174
			c1.106-0.013,2.19-1.107,2.165-2.186c-0.026-1.142-1.06-2.134-2.218-2.128c-1.183,0.006-2.124,0.982-2.108,2.184
			C12.92,16.247,13.876,17.188,15.065,17.174z"/>
	</g>
</g>
</svg>
