<?xml version="1.0" encoding="utf-8"?>
<!-- Generator: Adobe Illustrator 17.0.0, SVG Export Plug-In . SVG Version: 6.00 Build 0)  -->
<!DOCTYPE svg PUBLIC "-//W3C//DTD SVG 1.1//EN" "http://www.w3.org/Graphics/SVG/1.1/DTD/svg11.dtd">
<svg version="1.1" id="Layer_1" xmlns="http://www.w3.org/2000/svg" xmlns:xlink="http://www.w3.org/1999/xlink" x="0px" y="0px"
	 width="30px" height="30px" viewBox="0 0 30 30" enable-background="new 0 0 30 30" xml:space="preserve">
<circle fill="#1B66E3" cx="15" cy="15" r="15"/>
<g>
	<g>
		<g>
			<g>
				<path fill="#FFFFFF" d="M13.238,15.813c-1.884,0.752-3.225,2.658-3.225,4.886c0,0.961,0.749,1.743,1.67,1.743h6.681
					c0.921,0,1.67-0.782,1.67-1.743c0-2.227-1.341-4.133-3.225-4.886C15.033,15.208,13.238,15.813,13.238,15.813z M18.364,21.491
					h-6.681c-0.419,0-0.759-0.355-0.759-0.792c0-2.359,1.839-4.278,4.1-4.278s4.1,1.919,4.1,4.278
					C19.123,21.135,18.782,21.491,18.364,21.491z"/>
				<path fill="#FFFFFF" d="M18.363,22.61h-6.681c-1.014,0-1.839-0.857-1.839-1.912c0-2.22,1.338-4.246,3.331-5.042
					c0.042-0.015,0.845-0.281,1.918-0.281c0.633,0,1.228,0.093,1.769,0.277c2.001,0.799,3.339,2.825,3.339,5.045
					C20.202,21.752,19.377,22.61,18.363,22.61z M15.094,15.712c-1.015,0-1.795,0.257-1.802,0.26c-1.857,0.742-3.11,2.642-3.11,4.726
					c0,0.868,0.674,1.575,1.502,1.575h6.681c0.828,0,1.502-0.707,1.502-1.575c0-2.084-1.253-3.984-3.119-4.729
					C16.248,15.8,15.689,15.712,15.094,15.712z M18.363,21.659h-6.681c-0.512,0-0.928-0.431-0.928-0.961
					c0-2.452,1.915-4.447,4.268-4.447s4.268,1.995,4.268,4.447C19.291,21.228,18.875,21.659,18.363,21.659z M15.023,16.588
					c-2.168,0-3.931,1.844-3.931,4.11c0,0.344,0.265,0.624,0.591,0.624h6.681c0.326,0,0.591-0.28,0.591-0.624
					C18.955,18.432,17.191,16.588,15.023,16.588z"/>
			</g>
		</g>
	</g>
	<g>
		<path fill="#FFFFFF" d="M23.387,13.846H20.04c-0.93,0-1.683,0.798-1.683,1.782v2.166c0,0.984,0.754,1.782,1.683,1.782h3.347
			c0.93,0,1.683-0.798,1.683-1.782v-2.166C25.071,14.644,24.317,13.846,23.387,13.846z M23.349,18.041h-3.271v-2.66h3.271V18.041z"
			/>
		<path fill="#FFFFFF" d="M9.96,13.846H6.613c-0.93,0-1.683,0.798-1.683,1.782v2.166c0,0.984,0.754,1.782,1.683,1.782H9.96
			c0.93,0,1.683-0.798,1.683-1.782v-2.166C11.643,14.644,10.889,13.846,9.96,13.846z M9.921,18.041H6.651v-2.66h3.271V18.041z"/>
	</g>
	<g>
		<path fill="#FFFFFF" d="M14.907,7.39c-1.899,0-3.438,1.539-3.438,3.438c0,1.899,1.539,3.438,3.438,3.438s3.438-1.539,3.438-3.438
			C18.346,8.93,16.806,7.39,14.907,7.39z M14.907,12.51c-0.928,0-1.681-0.753-1.681-1.681c0-0.928,0.753-1.681,1.681-1.681
			c0.928,0,1.681,0.753,1.681,1.681C16.588,11.757,15.836,12.51,14.907,12.51z"/>
		<path fill="#FFFFFF" d="M21.787,7.875c-1.334,0-2.416,1.082-2.416,2.416c0,1.335,1.082,2.416,2.416,2.416
			c1.334,0,2.416-1.082,2.416-2.416C24.204,8.957,23.122,7.875,21.787,7.875z M21.787,11.195c-0.499,0-0.903-0.404-0.903-0.903
			s0.404-0.903,0.903-0.903s0.903,0.404,0.903,0.903S22.286,11.195,21.787,11.195z"/>
		<path fill="#FFFFFF" d="M8.314,7.875c-1.334,0-2.416,1.082-2.416,2.416c0,1.335,1.082,2.416,2.416,2.416
			c1.335,0,2.416-1.082,2.416-2.416C10.731,8.957,9.649,7.875,8.314,7.875z M8.314,11.195c-0.499,0-0.903-0.404-0.903-0.903
			s0.404-0.903,0.903-0.903s0.903,0.404,0.903,0.903S8.813,11.195,8.314,11.195z"/>
	</g>
</g>
</svg>
