<?xml version="1.0" encoding="utf-8"?>
<!-- Generator: Adobe Illustrator 17.0.0, SVG Export Plug-In . SVG Version: 6.00 Build 0)  -->
<!DOCTYPE svg PUBLIC "-//W3C//DTD SVG 1.1//EN" "http://www.w3.org/Graphics/SVG/1.1/DTD/svg11.dtd">
<svg version="1.1" id="Layer_1" xmlns="http://www.w3.org/2000/svg" xmlns:xlink="http://www.w3.org/1999/xlink" x="0px" y="0px"
	 width="30px" height="30px" viewBox="-6.5 -7.5 30 30" enable-background="new -6.5 -7.5 30 30" xml:space="preserve">
<g>
	<path fill-rule="evenodd" clip-rule="evenodd" fill="#DBDCDD" d="M-1.5-7.5h20c2.762,0,5,2.239,5,5v20c0,2.761-2.238,5-5,5h-20
		c-2.762,0-5-2.239-5-5v-20C-6.5-5.261-4.262-7.5-1.5-7.5z"/>
</g>
<g>
	<path fill="#848484" d="M6.167,0h-5C0.523,0,0,0.523,0,1.167v3C0,4.81,0.523,5.333,1.167,5.333h5c0.643,0,1.167-0.523,1.167-1.167
		v-3C7.333,0.523,6.81,0,6.167,0z"/>
	<path fill="#848484" d="M6.167,6.667h-5C0.523,6.667,0,7.19,0,7.833v7C0,15.477,0.523,16,1.167,16h5
		c0.643,0,1.167-0.523,1.167-1.167v-7C7.333,7.19,6.81,6.667,6.167,6.667z"/>
	<path fill="#848484" d="M14.833,10.667h-5c-0.643,0-1.167,0.523-1.167,1.167v3C8.667,15.477,9.19,16,9.833,16h5
		C15.477,16,16,15.477,16,14.833v-3C16,11.19,15.477,10.667,14.833,10.667z"/>
	<path fill="#848484" d="M14.833,0h-5C9.19,0,8.667,0.523,8.667,1.167v7c0,0.643,0.523,1.167,1.167,1.167h5
		C15.477,9.333,16,8.81,16,8.167v-7C16,0.523,15.477,0,14.833,0z"/>
</g>
</svg>
