<?xml version="1.0" encoding="utf-8"?>
<!-- Generator: Adobe Illustrator 17.0.0, SVG Export Plug-In . SVG Version: 6.00 Build 0)  -->
<!DOCTYPE svg PUBLIC "-//W3C//DTD SVG 1.1//EN" "http://www.w3.org/Graphics/SVG/1.1/DTD/svg11.dtd">
<svg version="1.1" id="Layer_1" xmlns="http://www.w3.org/2000/svg" xmlns:xlink="http://www.w3.org/1999/xlink" x="0px" y="0px"
	 width="30px" height="30px" viewBox="0 0 30 30" enable-background="new 0 0 30 30" xml:space="preserve">
<circle fill="#1B66E3" cx="15" cy="15" r="15"/>
<g>
	<g>
		<g>
			<path fill="#FFFFFF" d="M11.57,15.759H9.061c-1.456,0-2.64,1.184-2.64,2.64v2.508c0,1.456,1.184,2.64,2.64,2.64h2.508
				c1.456,0,2.64-1.184,2.64-2.64v-2.508C14.21,16.943,13.026,15.759,11.57,15.759z M12.89,20.908c0,0.728-0.592,1.32-1.32,1.32
				H9.061c-0.728,0-1.32-0.592-1.32-1.32v-2.508c0-0.728,0.592-1.32,1.32-1.32h2.508c0.728,0,1.32,0.592,1.32,1.32V20.908z"/>
		</g>
	</g>
	<g>
		<g>
			<path fill="#FFFFFF" d="M11.57,6.452H9.061c-1.456,0-2.64,1.184-2.64,2.64v2.508c0,1.456,1.184,2.64,2.64,2.64h2.508
				c1.456,0,2.64-1.184,2.64-2.64V9.092C14.21,7.637,13.026,6.452,11.57,6.452z M12.89,11.601c0,0.728-0.592,1.32-1.32,1.32H9.061
				c-0.728,0-1.32-0.592-1.32-1.32V9.092c0-0.728,0.592-1.32,1.32-1.32h2.508c0.728,0,1.32,0.592,1.32,1.32V11.601z"/>
		</g>
	</g>
	<g>
		<g>
			<path fill="#FFFFFF" d="M20.938,15.759H18.43c-1.456,0-2.64,1.184-2.64,2.64v2.508c0,1.456,1.184,2.64,2.64,2.64h2.508
				c1.456,0,2.64-1.184,2.64-2.64v-2.508C23.579,16.943,22.394,15.759,20.938,15.759z M22.259,20.908c0,0.728-0.592,1.32-1.32,1.32
				H18.43c-0.728,0-1.32-0.592-1.32-1.32v-2.508c0-0.728,0.592-1.32,1.32-1.32h2.508c0.728,0,1.32,0.592,1.32,1.32V20.908z"/>
		</g>
	</g>
	<path fill="#FFFFFF" d="M19.684,6.452c-2.151,0-3.895,1.744-3.895,3.895s1.744,3.895,3.895,3.895s3.895-1.744,3.895-3.895
		S21.835,6.452,19.684,6.452z M19.684,12.261c-1.057,0-1.914-0.857-1.914-1.914s0.857-1.914,1.914-1.914
		c1.057,0,1.914,0.857,1.914,1.914S20.742,12.261,19.684,12.261z"/>
</g>
</svg>
