<?xml version="1.0" encoding="utf-8"?>
<!-- Generator: Adobe Illustrator 17.0.0, SVG Export Plug-In . SVG Version: 6.00 Build 0)  -->
<!DOCTYPE svg PUBLIC "-//W3C//DTD SVG 1.1//EN" "http://www.w3.org/Graphics/SVG/1.1/DTD/svg11.dtd">
<svg version="1.1" id="Layer_1" xmlns="http://www.w3.org/2000/svg" xmlns:xlink="http://www.w3.org/1999/xlink" x="0px" y="0px"
	 width="30px" height="30px" viewBox="0 0 30 30" enable-background="new 0 0 30 30" xml:space="preserve">
<g>
	<path fill="#DBDCDD" d="M5,0h20c2.761,0,5,2.239,5,5v20c0,2.761-2.239,5-5,5H5c-2.761,0-5-2.239-5-5V5C0,2.238,2.239,0,5,0z"/>
</g>
<g>
	<path fill="#848484" d="M6.389,11.867c0.395-0.713,0.7-1.381,1.109-1.978c1.378-2.012,3.277-3.274,5.665-3.787
		c0.098-0.021,0.265-0.001,0.305,0.061c0.044,0.067,0.006,0.223-0.045,0.312c-0.392,0.675-0.448,1.38-0.227,2.12
		c0.06,0.203,0.153,0.307,0.389,0.304c0.953-0.012,1.906-0.009,2.859,0c0.212,0.002,0.309-0.078,0.372-0.278
		c0.236-0.752,0.175-1.464-0.22-2.151c-0.051-0.088-0.087-0.248-0.042-0.311c0.045-0.063,0.21-0.079,0.308-0.057
		c2.992,0.68,5.14,2.413,6.459,5.183c0.088,0.185,0.254,0.33,0.366,0.506c0.067,0.106,0.099,0.234,0.173,0.416
		c-0.503,0-0.956,0-1.409,0c-0.677-0.001-0.561-0.036-0.731,0.574c-0.191,0.684-0.375,1.37-0.547,2.059
		c-0.054,0.215-0.144,0.296-0.379,0.29c-0.582-0.016-0.583-0.002-0.585,0.585c-0.001,0.471,0.009,0.942-0.004,1.413
		c-0.007,0.261,0.104,0.357,0.353,0.344c0.186-0.01,0.373,0.004,0.558-0.004c0.329-0.014,0.586-0.014,0.791,0.369
		c0.258,0.481,1.014,0.415,1.237-0.088c0.142-0.32,0.334-0.299,0.587-0.261c-0.583,2.634-3.059,5.279-5.641,6.047
		c0-0.85,0.001-1.691,0-2.531c0-0.432-0.028-0.459-0.472-0.459c-1.742-0.001-3.483-0.001-5.225,0c-0.437,0-0.464,0.029-0.464,0.467
		c-0.001,0.734,0,1.468-0.001,2.202c0,0.105,0,0.21,0,0.37c-2.64-1.032-4.434-2.823-5.487-5.471c0.475,0,0.905,0.003,1.336-0.001
		c0.915-0.009,0.784,0.116,0.791-0.775c0.005-0.602-0.006-1.205,0.008-1.807c0.003-0.108,0.065-0.25,0.148-0.315
		c0.406-0.319,0.595-1.118,0.329-1.579c-0.305-0.531-0.624-1.055-0.96-1.567c-0.068-0.104-0.239-0.186-0.368-0.194
		C7.324,11.851,6.919,11.867,6.389,11.867z M15.022,19.619c2.563-0.006,4.602-2.055,4.597-4.621
		c-0.005-2.557-2.064-4.606-4.622-4.599c-2.558,0.007-4.601,2.062-4.597,4.625C10.404,17.581,12.459,19.625,15.022,19.619z"/>
	<path fill="#848484" d="M12.335,20.946c0.107-0.006,0.182-0.014,0.257-0.014c1.684-0.001,3.368-0.001,5.081-0.001
		c0,1.444,0,2.869,0,4.317c-1.772,0-3.547,0-5.338,0C12.335,23.815,12.335,22.397,12.335,20.946z"/>
	<path fill="#848484" d="M26.051,14.71c0,0.805,0,1.568,0,2.348c-0.223,0.07-0.372,0.032-0.528-0.169
		c-0.279-0.36-0.835-0.373-1.121-0.024c-0.154,0.188-0.306,0.237-0.528,0.231c-0.342-0.01-0.659,0.029-0.93-0.304
		c-0.235-0.289-0.759-0.235-0.993,0.065c-0.168,0.216-0.352,0.249-0.59,0.237c-0.238-0.012-0.478-0.003-0.74-0.003
		c0-0.533,0-1.039,0-1.541c0.03-0.013,0.049-0.028,0.068-0.029c0.713-0.066,0.712-0.066,0.895-0.753
		c0.172-0.643,0.356-1.283,0.515-1.93c0.05-0.202,0.141-0.265,0.338-0.253c0.249,0.015,0.499,0.004,0.793,0.004
		c0,0.584-0.001,1.137,0,1.691c0.001,0.407,0.022,0.43,0.423,0.43C24.443,14.711,25.23,14.71,26.051,14.71z"/>
	<path fill="#848484" d="M15.006,4.023c0.745-0.001,1.33,0.584,1.332,1.332c0.002,0.739-0.592,1.344-1.326,1.348
		c-0.729,0.004-1.333-0.604-1.333-1.341C13.681,4.611,14.263,4.024,15.006,4.023z"/>
	<path fill="#848484" d="M8.583,13.604c-0.09,0.01-0.131,0.018-0.172,0.018C7,13.622,5.589,13.622,4.101,13.622
		c0.284-0.464,0.538-0.888,0.805-1.303c0.03-0.047,0.135-0.063,0.205-0.064c0.821-0.004,1.642-0.008,2.462,0.004
		c0.096,0.001,0.227,0.076,0.28,0.157C8.1,12.79,8.324,13.177,8.583,13.604z"/>
	<path fill="#848484" d="M7.626,15.068c0.194,0.106,0.364,0.199,0.542,0.296c0,0.773,0,1.549,0,2.35c-0.245,0-0.479,0-0.768,0
		c0-0.417,0.01-0.829-0.003-1.24c-0.013-0.438-0.247-0.743-0.637-0.917c-0.384-0.171-0.753-0.104-1.079,0.154
		c-0.275,0.217-0.397,0.515-0.398,0.863c-0.001,0.372,0,0.743,0,1.14c-0.264,0-0.508,0-0.765,0c0-0.8,0-1.575,0-2.348
		c0.175-0.094,0.347-0.187,0.526-0.283c0.629,0.337,0.776,0.336,1.299-0.01C6.913,15.423,7.137,15.423,7.626,15.068z"/>
	<path fill="#848484" d="M13.599,8.507c-0.257-0.668-0.177-1.336,0.206-1.859c0.833,0.541,1.445,0.627,2.428-0.008
		c0.338,0.527,0.423,1.091,0.254,1.688c-0.021,0.074-0.141,0.171-0.217,0.172C15.385,8.511,14.5,8.507,13.599,8.507z"/>
	<path fill="#848484" d="M23.641,14.307c0-0.569,0-1.122,0-1.697c0.801,0,1.593,0,2.404,0c0,0.568,0,1.121,0,1.697
		C25.243,14.307,24.451,14.307,23.641,14.307z"/>
	<path fill="#848484" d="M7.008,17.718c-0.462,0-0.884,0-1.33,0c0-0.434-0.016-0.848,0.005-1.26
		c0.017-0.329,0.311-0.584,0.632-0.599C6.661,15.842,6.97,16.067,7,16.426C7.034,16.846,7.008,17.271,7.008,17.718z"/>
	<path fill="#848484" d="M7.836,14.029c0.321,0,0.6,0,0.903,0c0.01,0.304,0.106,0.622-0.193,0.817
		c-0.113,0.074-0.328,0.088-0.453,0.032C7.726,14.712,7.868,14.358,7.836,14.029z"/>
	<path fill="#848484" d="M3.953,14.026c0.325,0,0.595,0,0.888,0c0.024,0.301,0.114,0.617-0.176,0.813
		c-0.116,0.079-0.35,0.091-0.477,0.027C3.832,14.691,3.99,14.342,3.953,14.026z"/>
	<path fill="#848484" d="M6.139,14.037c-0.01,0.302,0.121,0.633-0.198,0.817c-0.124,0.071-0.355,0.072-0.48,0.002
		c-0.318-0.179-0.2-0.51-0.221-0.819C5.544,14.037,5.821,14.037,6.139,14.037z"/>
	<path fill="#848484" d="M6.539,14.025c0.316,0,0.588,0,0.899,0c-0.006,0.286,0.125,0.604-0.172,0.806
		c-0.118,0.081-0.351,0.103-0.478,0.042C6.438,14.703,6.551,14.357,6.539,14.025z"/>
	<path fill="#848484" d="M24.863,17.812c-0.097-0.145-0.252-0.281-0.275-0.436c-0.032-0.216,0.137-0.37,0.361-0.368
		c0.236,0.002,0.412,0.156,0.366,0.393c-0.03,0.153-0.197,0.279-0.302,0.417C24.963,17.815,24.913,17.814,24.863,17.812z"/>
	<path fill="#848484" d="M22.426,17.817c-0.105-0.139-0.255-0.264-0.302-0.42c-0.059-0.194,0.165-0.409,0.372-0.393
		c0.224,0.017,0.391,0.159,0.359,0.374c-0.023,0.155-0.181,0.29-0.279,0.434C22.526,17.814,22.476,17.815,22.426,17.817z"/>
	<path fill="#848484" d="M15.598,25.677c0,0.117,0,0.2,0,0.301c-0.395,0-0.773,0-1.172,0c0-0.102,0-0.193,0-0.301
		C14.817,25.677,15.195,25.677,15.598,25.677z"/>
	<path fill="#848484" d="M14.986,19.234c-2.34-0.015-4.214-1.904-4.199-4.23c0.016-2.381,1.891-4.228,4.28-4.215
		c2.321,0.013,4.185,1.92,4.165,4.262C19.213,17.388,17.324,19.249,14.986,19.234z"/>
</g>
</svg>
