<?xml version="1.0" encoding="utf-8"?>
<!-- Generator: Adobe Illustrator 17.0.0, SVG Export Plug-In . SVG Version: 6.00 Build 0)  -->
<!DOCTYPE svg PUBLIC "-//W3C//DTD SVG 1.1//EN" "http://www.w3.org/Graphics/SVG/1.1/DTD/svg11.dtd">
<svg version="1.1" id="Layer_1" xmlns="http://www.w3.org/2000/svg" xmlns:xlink="http://www.w3.org/1999/xlink" x="0px" y="0px"
	 width="30px" height="30px" viewBox="0 0 30 30" enable-background="new 0 0 30 30" xml:space="preserve">
<circle fill="#1B66E3" cx="15" cy="15" r="15"/>
<path fill="#FFFFFF" d="M22.096,22.866l-1.045-11.633c-0.029-0.318-0.295-0.561-0.614-0.561h-2.154V9.701
	c0-1.811-1.473-3.284-3.284-3.284c-1.811,0-3.283,1.473-3.283,3.284v0.972H9.561c-0.319,0-0.585,0.243-0.614,0.561L7.898,22.912
	c-0.015,0.172,0.042,0.343,0.159,0.471c0.117,0.128,0.282,0.2,0.455,0.2h12.974c0,0,0.001,0,0.002,0c0.34,0,0.616-0.276,0.616-0.616
	C22.104,22.933,22.101,22.899,22.096,22.866z M12.949,9.701c0-1.131,0.92-2.051,2.051-2.051c1.131,0,2.051,0.92,2.051,2.051v0.972
	h-4.102V9.701z M9.186,22.351l0.938-10.447h1.592v1.102c0,0.34,0.276,0.616,0.616,0.616c0.34,0,0.616-0.276,0.616-0.616v-1.102
	h4.102v1.102c0,0.34,0.276,0.616,0.616,0.616c0.34,0,0.616-0.276,0.616-0.616v-1.102h1.591l0.938,10.447H9.186L9.186,22.351z"/>
</svg>
