<?xml version="1.0" encoding="utf-8"?>
<!-- Generator: Adobe Illustrator 17.0.0, SVG Export Plug-In . SVG Version: 6.00 Build 0)  -->
<!DOCTYPE svg PUBLIC "-//W3C//DTD SVG 1.1//EN" "http://www.w3.org/Graphics/SVG/1.1/DTD/svg11.dtd">
<svg version="1.1" id="Layer_1" xmlns="http://www.w3.org/2000/svg" xmlns:xlink="http://www.w3.org/1999/xlink" x="0px" y="0px"
	 width="30px" height="30px" viewBox="0 0 30 30" enable-background="new 0 0 30 30" xml:space="preserve">
<circle fill="#1B66E3" cx="15" cy="15" r="15"/>
<path fill="#FFFFFF" d="M10.568,10.762c-0.132-0.173-0.215-0.277-0.294-0.384C9.462,9.273,9.57,7.666,10.514,6.804
	c0.78-0.713,2.177-0.811,3.201-0.133C14.213,7,14.607,7.486,15.062,7.915c0.126-0.163,0.3-0.426,0.512-0.654
	c0.822-0.885,1.845-1.218,3.014-0.949c1.362,0.314,2.075,1.903,1.53,3.358c-0.139,0.371-0.374,0.705-0.59,1.102
	c0.347,0,0.686-0.003,1.025,0c1.326,0.012,2.135,0.825,2.135,2.145c0.001,2.906,0.001,5.813,0,8.719
	c0,1.289-0.827,2.141-2.112,2.144c-3.707,0.008-7.414,0.008-11.121,0.003c-1.31-0.002-2.141-0.848-2.142-2.154
	c-0.001-2.919-0.002-5.837-0.001-8.756c0-1.246,0.821-2.086,2.065-2.111C9.744,10.756,10.111,10.762,10.568,10.762z M14.389,11.974
	c-0.116-0.007-0.212-0.018-0.308-0.018c-1.539-0.001-3.078-0.003-4.616,0c-0.696,0.001-0.971,0.288-0.971,0.998
	c0,2.881,0,5.761,0.001,8.642c0,0.703,0.3,1.003,1.013,1.003c1.477,0.002,2.955-0.013,4.432,0.007
	c0.348,0.005,0.428-0.104,0.428-0.435c0.004-3.287,0.025-6.574,0.039-9.86C14.408,12.205,14.396,12.097,14.389,11.974z
	 M15.626,22.584c0.09,0.006,0.174,0.016,0.257,0.016c1.539,0,3.078,0.003,4.617-0.003c0.713-0.003,1.004-0.3,1.005-1.014
	c0.002-2.881,0.002-5.762,0.001-8.643c0-0.699-0.283-0.983-0.987-0.984c-1.502-0.002-3.004-0.001-4.506,0
	c-0.118,0-0.236,0.01-0.387,0.017C15.626,15.522,15.626,19.03,15.626,22.584z M15.585,10.819c0.574-0.04,1.092-0.037,1.595-0.12
	c1.039-0.17,1.778-0.872,1.933-1.77c0.111-0.641-0.249-1.324-0.795-1.449c-0.768-0.177-1.443,0.014-1.952,0.63
	C15.737,8.871,15.628,9.793,15.585,10.819z M14.41,10.762c-0.066-0.933-0.146-1.838-0.729-2.566
	C13.435,7.89,13.051,7.64,12.68,7.504c-0.517-0.189-1.09-0.204-1.494,0.283c-0.389,0.469-0.406,1.029-0.153,1.559
	c0.143,0.3,0.362,0.595,0.619,0.805C12.45,10.807,13.413,10.79,14.41,10.762z"/>
</svg>
