<?xml version="1.0" encoding="utf-8"?>
<!-- Generator: Adobe Illustrator 17.0.0, SVG Export Plug-In . SVG Version: 6.00 Build 0)  -->
<!DOCTYPE svg PUBLIC "-//W3C//DTD SVG 1.1//EN" "http://www.w3.org/Graphics/SVG/1.1/DTD/svg11.dtd">
<svg version="1.1" id="Layer_1" xmlns="http://www.w3.org/2000/svg" xmlns:xlink="http://www.w3.org/1999/xlink" x="0px" y="0px"
	 width="30px" height="30px" viewBox="-4.5 -5.5 30 30" enable-background="new -4.5 -5.5 30 30" xml:space="preserve">
<g>
	<path fill-rule="evenodd" clip-rule="evenodd" fill="#DBDCDD" d="M0.25-5.25h20c2.761,0,5,2.239,5,5v20c0,2.761-2.239,5-5,5h-20
		c-2.762,0-5-2.239-5-5v-20C-4.75-3.011-2.511-5.25,0.25-5.25z"/>
</g>
<g>
	<path fill="#848484" d="M10.268,15.223c0.238,0.259,0.444,0.474,0.639,0.697c0.211,0.241,0.465,0.344,0.766,0.216
		c0.297-0.126,0.336-0.399,0.336-0.687c-0.001-1.913,0.001-3.825,0.002-5.738c0-0.155,0-0.311,0-0.506
		c0.129-0.012,0.24-0.032,0.351-0.032c1.185-0.002,2.37-0.004,3.555,0c0.599,0.002,0.781,0.171,0.782,0.764
		c0.005,3.031,0.004,6.063-0.001,9.095c-0.001,0.523-0.214,0.718-0.746,0.718c-3.802,0.001-7.604,0.001-11.406,0
		c-0.527,0-0.737-0.199-0.738-0.727c-0.005-2.355-0.007-4.71,0.009-7.065c0.001-0.141,0.128-0.337,0.253-0.411
		C5.355,10.785,6.651,10.04,7.949,9.3c0.144-0.082,0.322-0.102,0.55-0.17c0,0.957,0,1.826,0,2.695c-0.001,1.21,0,2.42-0.003,3.63
		c-0.001,0.289,0.045,0.56,0.343,0.684c0.302,0.125,0.553,0.019,0.765-0.22C9.801,15.697,10.013,15.489,10.268,15.223z"/>
	<path fill="#848484" d="M6.274,3.998c0-0.663-0.007-1.286,0.002-1.909C6.292,0.92,7.138-0.038,8.31-0.224
		c1.074-0.171,2.193,0.525,2.526,1.583c0.073,0.232,0.107,0.477,0.168,0.758c0.53-0.304,1.055-0.606,1.581-0.906
		c0.534-0.305,0.775-0.242,1.082,0.286C14,2.069,14.332,2.643,14.659,3.219c0.26,0.458,0.189,0.742-0.263,1.003
		c-3.982,2.3-7.965,4.598-11.949,6.894c-0.423,0.244-0.706,0.174-0.952-0.231c-0.371-0.61-0.738-1.223-1.098-1.84
		C0.141,8.607,0.216,8.327,0.65,8.076C1.199,7.76,1.751,7.45,2.345,7.113c-0.11-0.093-0.183-0.158-0.259-0.22
		C1.129,6.113,0.92,4.787,1.595,3.777C2.282,2.75,3.61,2.423,4.692,3.033C5.232,3.337,5.751,3.678,6.274,3.998z M7.449,4.052
		c0.045,0.014,0.09,0.027,0.135,0.041c0.527-0.303,1.058-0.598,1.58-0.91c0.57-0.341,0.774-0.925,0.546-1.506
		c-0.203-0.518-0.753-0.831-1.283-0.73C7.83,1.06,7.45,1.555,7.449,2.221C7.449,2.831,7.449,3.442,7.449,4.052z M5.83,5.109
		C5.22,4.732,4.677,4.375,4.113,4.055C3.592,3.759,3.007,3.888,2.641,4.339C2.293,4.766,2.285,5.345,2.62,5.779
		c0.35,0.454,0.943,0.6,1.467,0.322C4.66,5.798,5.215,5.461,5.83,5.109z"/>
	<path fill="#848484" d="M19.095,6.797c0.947,0.102,1.182,0.215,1.153,0.608c-0.055,0.746-0.688,0.538-1.142,0.63
		c-0.067,0.452,0.126,1.1-0.597,1.109c-0.762,0.01-0.544-0.666-0.619-1.12c-0.466-0.074-1.14,0.121-1.129-0.626
		c0.011-0.72,0.666-0.524,1.138-0.593c0.06-0.461-0.151-1.153,0.639-1.119C19.229,5.715,19.049,6.337,19.095,6.797z"/>
	<path fill="#848484" d="M10.814,14.15c-0.386-0.37-0.743-0.363-1.126,0.001c0-1.677,0-3.294,0-4.948c0.37,0,0.736,0,1.126,0
		C10.814,10.839,10.814,12.466,10.814,14.15z"/>
	<path fill="#848484" d="M17.295,4.474c-0.336,0.005-0.589-0.249-0.584-0.586c0.005-0.322,0.243-0.56,0.566-0.564
		c0.337-0.004,0.591,0.25,0.586,0.585C17.857,4.23,17.616,4.47,17.295,4.474z"/>
	<path fill="#848484" d="M15.518,7.424c-0.006,0.337-0.267,0.58-0.605,0.565c-0.318-0.015-0.552-0.265-0.546-0.586
		c0.006-0.334,0.27-0.581,0.606-0.565C15.291,6.853,15.523,7.103,15.518,7.424z"/>
</g>
</svg>
