<?xml version="1.0" encoding="utf-8"?>
<!-- Generator: Adobe Illustrator 17.0.0, SVG Export Plug-In . SVG Version: 6.00 Build 0)  -->
<!DOCTYPE svg PUBLIC "-//W3C//DTD SVG 1.1//EN" "http://www.w3.org/Graphics/SVG/1.1/DTD/svg11.dtd">
<svg version="1.1" id="Layer_1" xmlns="http://www.w3.org/2000/svg" xmlns:xlink="http://www.w3.org/1999/xlink" x="0px" y="0px"
	 width="30px" height="30px" viewBox="0 0 30 30" enable-background="new 0 0 30 30" xml:space="preserve">
<circle fill="#1B66E3" cx="15" cy="15" r="15"/>
<g>
	<path fill="#FFFFFF" d="M15,13.57c-2.304,0-4.172,1.868-4.172,4.172c0,2.304,1.868,4.172,4.172,4.172s4.172-1.868,4.172-4.172
		C19.172,15.437,17.304,13.57,15,13.57z M15,19.697c-1.08,0-1.956-0.876-1.956-1.956c0-1.08,0.876-1.956,1.956-1.956
		c1.08,0,1.956,0.876,1.956,1.956C16.956,18.821,16.08,19.697,15,19.697z"/>
	<path fill="#FFFFFF" d="M23.621,11.345c0,0.461-0.374,0.834-0.834,0.834H7.213c-0.461,0-0.834-0.374-0.834-0.834l0,0
		c0-0.461,0.374-0.834,0.834-0.834h15.574C23.248,10.511,23.621,10.884,23.621,11.345L23.621,11.345z"/>
	<path fill="#FFFFFF" d="M22.27,8.246c0,0.461-0.315,0.834-0.704,0.834H8.433c-0.389,0-0.704-0.374-0.704-0.834l0,0
		c0-0.461,0.315-0.834,0.704-0.834h13.134C21.955,7.412,22.27,7.785,22.27,8.246L22.27,8.246z"/>
	<path fill="#FFFFFF" d="M22.524,13.203H7.476c-1.045,0-1.892,0.847-1.892,1.892v5.602c0,1.045,0.847,1.892,1.892,1.892h15.048
		c1.045,0,1.892-0.847,1.892-1.892v-5.602C24.416,14.05,23.569,13.203,22.524,13.203z M22.668,20.761H7.73v-5.73h14.938V20.761z"/>
</g>
</svg>
