<?xml version="1.0" encoding="utf-8"?>
<!-- Generator: Adobe Illustrator 17.0.0, SVG Export Plug-In . SVG Version: 6.00 Build 0)  -->
<!DOCTYPE svg PUBLIC "-//W3C//DTD SVG 1.1//EN" "http://www.w3.org/Graphics/SVG/1.1/DTD/svg11.dtd">
<svg version="1.1" id="Layer_1" xmlns="http://www.w3.org/2000/svg" xmlns:xlink="http://www.w3.org/1999/xlink" x="0px" y="0px"
	 width="30px" height="30px" viewBox="-5 -6 30 30" enable-background="new -5 -6 30 30" xml:space="preserve">
<g>
	<path fill-rule="evenodd" clip-rule="evenodd" fill="#DBDCDD" d="M0-6h20c2.762,0,5,2.239,5,5v20c0,2.761-2.238,5-5,5H0
		c-2.761,0-5-2.239-5-5V-1C-5-3.761-2.761-6,0-6z"/>
</g>
<g>
	<path fill="#848484" d="M17.826,4.808h-2.24c-0.308,0-0.557,0.249-0.557,0.557v12.578c0,0.308,0.25,0.557,0.557,0.557h2.24
		c0.308,0,0.557-0.249,0.557-0.557V5.365C18.383,5.058,18.134,4.808,17.826,4.808z"/>
	<path fill="#848484" d="M8.869,12.914H6.63c-0.308,0-0.558,0.249-0.558,0.557v4.472c0,0.308,0.25,0.557,0.558,0.557h2.239
		c0.308,0,0.557-0.249,0.557-0.557v-4.472C9.427,13.164,9.177,12.914,8.869,12.914z"/>
	<path fill="#848484" d="M13.348,10.678h-2.24c-0.308,0-0.557,0.249-0.557,0.557v6.708c0,0.308,0.25,0.557,0.557,0.557h2.24
		c0.308,0,0.557-0.249,0.557-0.557v-6.708C13.905,10.927,13.655,10.678,13.348,10.678z"/>
	<path fill="#848484" d="M4.391,14.032H2.152c-0.308,0-0.558,0.249-0.558,0.557v3.354c0,0.307,0.25,0.557,0.558,0.557h2.239
		c0.308,0,0.557-0.249,0.557-0.557v-3.354C4.949,14.282,4.699,14.032,4.391,14.032L4.391,14.032z"/>
	<path fill="#848484" d="M19.499,0.098c0.02-0.285-0.215-0.594-0.557-0.589L16.538-0.5c-0.001,0-0.001,0-0.002,0
		c-0.307,0-0.556,0.248-0.558,0.555c-0.001,0.308,0.248,0.558,0.555,0.559l0.668,0.003l0,0l-4.829,3.417
		c-0.004-0.004-0.008-0.008-0.012-0.012c-0.328-0.328-0.789-0.464-1.225-0.396c-0.044-0.06-0.093-0.118-0.146-0.171
		C10.721,3.188,10.365,3.04,9.986,3.04c-0.465,0-0.886,0.229-1.147,0.585C8.767,3.612,8.692,3.606,8.616,3.606
		c-0.379,0-0.735,0.148-1.003,0.415C7.284,4.35,7.149,4.81,7.217,5.246C6.86,5.506,6.631,5.927,6.631,6.392
		c0,0.464,0.23,0.885,0.587,1.146C7.209,7.589,7.204,7.641,7.201,7.693l-6.466,4.576c-0.251,0.178-0.31,0.525-0.132,0.776
		c0.109,0.153,0.281,0.235,0.455,0.235c0.112,0,0.224-0.033,0.322-0.103l6.236-4.413C7.945,9.091,8.405,9.226,8.84,9.158
		c0.261,0.356,0.682,0.586,1.148,0.586s0.887-0.229,1.148-0.586c0.436,0.068,0.898-0.067,1.226-0.396
		c0.329-0.329,0.465-0.788,0.397-1.224c0.061-0.043,0.118-0.092,0.171-0.145c0.268-0.268,0.415-0.624,0.415-1.002
		c0-0.464-0.229-0.885-0.585-1.145c0.007-0.044,0.012-0.088,0.014-0.132l5.073-3.59l0,0l-0.219,0.63
		c-0.101,0.29,0.053,0.608,0.344,0.708c0.061,0.021,0.122,0.031,0.183,0.031c0.231,0,0.447-0.144,0.527-0.374l0.785-2.259
		C19.477,0.228,19.496,0.167,19.499,0.098L19.499,0.098z M9.594,5.998c0.218-0.218,0.571-0.218,0.788,0
		c0.218,0.217,0.218,0.57,0,0.787c-0.109,0.108-0.252,0.163-0.394,0.163c-0.143,0-0.285-0.055-0.394-0.163
		C9.376,6.568,9.376,6.215,9.594,5.998L9.594,5.998z"/>
</g>
</svg>
