<?xml version="1.0" encoding="utf-8"?>
<!-- Generator: Adobe Illustrator 17.0.0, SVG Export Plug-In . SVG Version: 6.00 Build 0)  -->
<!DOCTYPE svg PUBLIC "-//W3C//DTD SVG 1.1//EN" "http://www.w3.org/Graphics/SVG/1.1/DTD/svg11.dtd">
<svg version="1.1" id="Layer_1" xmlns="http://www.w3.org/2000/svg" xmlns:xlink="http://www.w3.org/1999/xlink" x="0px" y="0px"
	 width="225" height="155" viewBox="0 0 660.986 458.02" enable-background="new 0 0 660.986 458.02"
	 xml:space="preserve">
<g>
	<path fill="#EDF5FC" d="M633.131,458.02c-41.694,0-605.387-1.218-605.387-1.285c-0.232-0.547-71.559-88.034,18.255-179.505
		c44.502-45.322-40.867-104.039,0-154.454c70.003-86.358,139.268-37.723,196.971-62.011c10.195-4.287,20.426-11.188,30.667-21.777
		c5.765-5.955,12.083-11.162,18.846-15.659c1.037-0.692,2.085-1.368,3.143-2.025c4.05-2.514,8.249-4.786,12.574-6.83
		c2.905-1.371,5.865-2.639,8.88-3.804h0.003c4.784-1.851,9.699-3.447,14.718-4.796c7.128-1.918,14.467-3.344,21.951-4.31
		c3.265-0.425,6.556-0.756,9.871-1.007c64.475-4.851,137.034,22.434,174.478,62.312c7.539,8.03,41.819,49.581,14.797,106.692
		c-17.062,36.058,54.413,70.496,79.812,111.672C697.284,385.92,633.717,456.655,633.131,458.02z"/>
</g>
<g>
	<rect x="375.054" y="234.972" fill="#EBEBEB" width="4.933" height="0.142"/>
	<rect x="417.077" y="228.164" fill="#EBEBEB" width="10.89" height="0.142"/>
	<rect x="251.373" y="229.117" fill="#EBEBEB" width="3.593" height="0.142"/>
	<g>
		<rect x="356.422" y="54.887" fill="#E6E6E6" width="78.18" height="51.196"/>
		<rect x="354.037" y="54.887" fill="#F1F0F0" width="79.45" height="51.196"/>
		<rect x="356.422" y="106.083" fill="#E6E6E6" width="78.18" height="10.048"/>
		<rect x="350.063" y="106.083" fill="#F1F0F0" width="79.45" height="10.048"/>
		<rect x="357.376" y="58.226" fill="#FAFBFB" width="72.771" height="44.517"/>
		<polygon fill="#FFFFFF" points="413.738,102.744 404.443,58.227 389.94,58.227 399.234,102.744 		"/>
		<path fill="#F1F0F0" d="M428.601,99.42c0.132,0,0.239-0.107,0.239-0.239V60.399c0-0.132-0.107-0.239-0.239-0.239
			s-0.239,0.107-0.239,0.239v38.782C428.363,99.313,428.47,99.42,428.601,99.42z"/>
		<polygon fill="#FFFFFF" points="396.119,102.744 386.824,58.227 381.169,58.227 390.464,102.744 		"/>
		<rect x="357.376" y="58.226" fill="#E6E6E6" width="0.424" height="44.517"/>
		<polygon opacity="0.6" fill="#EBEBEB" points="353.247,63.262 431.427,63.262 431.734,59.525 353.554,59.525 		"/>
		<polygon opacity="0.6" fill="#EBEBEB" points="353.247,69.391 431.427,69.391 431.734,65.654 353.554,65.654 		"/>
		<polygon opacity="0.6" fill="#EBEBEB" points="353.247,75.52 431.427,75.52 431.734,71.783 353.554,71.783 		"/>
		<polygon opacity="0.6" fill="#EBEBEB" points="353.247,81.65 431.427,81.65 431.734,77.912 353.554,77.912 		"/>
		<polygon opacity="0.6" fill="#EBEBEB" points="353.247,87.779 431.427,87.779 431.734,84.042 353.554,84.042 		"/>
		<polygon opacity="0.6" fill="#EBEBEB" points="353.247,93.908 431.427,93.908 431.734,90.171 353.554,90.171 		"/>
	</g>
	<g>
		<g>
			<g>
				<rect x="406.984" y="187.067" fill="#E6E6E6" width="16.392" height="3.232"/>
				<rect x="376.064" y="149.931" fill="#E6E6E6" width="3.026" height="74.369"/>
				<rect x="365.583" y="187.067" fill="#F5F5F5" width="41.401" height="3.232"/>
				<rect x="406.984" y="204.752" fill="#E6E6E6" width="16.392" height="3.232"/>
				<rect x="365.583" y="204.752" fill="#F5F5F5" width="41.401" height="3.232"/>
				<rect x="406.984" y="151.698" fill="#E6E6E6" width="16.392" height="3.232"/>
				<rect x="365.583" y="151.698" fill="#F5F5F5" width="41.401" height="3.232"/>
				<rect x="406.984" y="169.382" fill="#E6E6E6" width="16.392" height="3.232"/>
				<rect x="365.583" y="169.382" fill="#F5F5F5" width="41.401" height="3.232"/>
			</g>
		</g>
		<rect x="417.465" y="149.931" fill="#E6E6E6" width="3.026" height="74.369"/>
		<rect x="403.958" y="149.931" fill="#F5F5F5" width="3.026" height="74.369"/>
		<rect x="365.583" y="149.931" fill="#F5F5F5" width="3.026" height="74.369"/>
	</g>
	<g>
		<g>
			<rect x="229.14" y="164.215" fill="#E6E6E6" width="30.969" height="60.085"/>
			<polygon fill="#FAFBFB" points="237.41,224.3 229.14,224.3 229.14,216.006 246.08,216.006 			"/>
			<rect x="313.578" y="164.215" fill="#E6E6E6" width="30.969" height="60.085"/>
			<rect x="229.14" y="164.215" fill="#FAFBFB" width="91.655" height="57.23"/>
			<polygon fill="#FAFBFB" points="312.525,224.3 320.795,224.3 320.795,216.006 303.855,216.006 			"/>
			<rect x="235.555" y="185.54" fill="#F1F0F0" width="78.824" height="14.322"/>
			<rect x="235.555" y="202.924" fill="#F1F0F0" width="78.824" height="14.322"/>
			<path fill="#FAFBFB" d="M250.538,187.072h48.86c1.434,0,2.597-1.163,2.597-2.597V184.3h-54.053v0.175
				C247.941,185.909,249.104,187.072,250.538,187.072z"/>
			<rect x="235.555" y="168.157" fill="#F1F0F0" width="78.824" height="14.322"/>
			<path fill="#FAFBFB" d="M250.538,169.688h48.86c1.434,0,2.597-1.163,2.597-2.597v-0.175h-54.053v0.175
				C247.941,168.526,249.104,169.688,250.538,169.688z"/>
			<path fill="#FAFBFB" d="M250.538,204.455h48.86c1.434,0,2.597-1.163,2.597-2.597v-0.175h-54.053v0.175
				C247.941,203.292,249.104,204.455,250.538,204.455z"/>
		</g>
	</g>
	<g>
		<rect x="234.074" y="54.887" fill="#E6E6E6" width="78.18" height="51.196"/>
		<rect x="231.688" y="54.887" fill="#F1F0F0" width="79.45" height="51.196"/>
		<rect x="234.074" y="106.083" fill="#E6E6E6" width="78.18" height="10.048"/>
		<rect x="227.714" y="106.083" fill="#F1F0F0" width="79.45" height="10.048"/>
		<rect x="235.028" y="58.226" fill="#FAFBFB" width="72.771" height="44.517"/>
		<polygon fill="#FFFFFF" points="291.39,102.744 282.095,58.227 267.591,58.227 276.886,102.744 		"/>
		<path fill="#F1F0F0" d="M306.253,99.42c0.132,0,0.239-0.107,0.239-0.239V60.399c0-0.132-0.107-0.239-0.239-0.239
			c-0.132,0-0.239,0.107-0.239,0.239v38.782C306.014,99.313,306.121,99.42,306.253,99.42z"/>
		<polygon fill="#FFFFFF" points="273.77,102.744 264.475,58.227 258.821,58.227 268.116,102.744 		"/>
		<rect x="235.028" y="58.226" fill="#E6E6E6" width="0.424" height="44.517"/>
		<polygon opacity="0.6" fill="#EBEBEB" points="230.898,63.262 309.078,63.262 309.385,59.525 231.206,59.525 		"/>
		<polygon opacity="0.6" fill="#EBEBEB" points="230.898,65.37 309.078,65.37 309.385,61.633 231.206,61.633 		"/>
		<polygon opacity="0.6" fill="#EBEBEB" points="230.898,67.478 309.078,67.478 309.385,63.741 231.206,63.741 		"/>
		<polygon opacity="0.6" fill="#EBEBEB" points="230.898,69.586 309.078,69.586 309.385,65.849 231.206,65.849 		"/>
		<polygon opacity="0.6" fill="#EBEBEB" points="230.898,71.694 309.078,71.694 309.385,67.957 231.206,67.957 		"/>
		<polygon opacity="0.6" fill="#EBEBEB" points="230.898,73.803 309.078,73.803 309.385,70.066 231.206,70.066 		"/>
	</g>
	<g>
		<rect x="246.526" y="132.253" fill="#F5F5F5" width="2.703" height="30.126"/>
		<rect x="246.874" y="132.232" fill="#FAFBFB" width="0.763" height="30.126"/>
		<rect x="247.957" y="132.232" fill="#FAFBFB" width="0.299" height="30.126"/>
		<path fill="#F1F0F0" d="M237.872,164.215h20.009v0c0-1.392-1.129-2.521-2.521-2.521h-14.968
			C239.001,161.694,237.872,162.822,237.872,164.215L237.872,164.215z"/>
		<path fill="#F1F0F0" d="M243.02,150.955L243.02,150.955c0.428,0,0.777-0.35,0.777-0.777v-19.752c0-0.428-0.35-0.777-0.777-0.777
			l0,0c-0.428,0-0.777,0.35-0.777,0.777v19.752C242.243,150.605,242.593,150.955,243.02,150.955z"/>
		<polygon fill="#E0E0E0" points="235.779,139.414 259.975,139.414 257.192,122.505 238.562,122.505 		"/>
	</g>
	<g>
		<g>
			
				<rect x="245.972" y="127.111" transform="matrix(0.0718 0.9974 -0.9974 0.0718 360.2366 -132.326)" fill="#5274B8" width="10.491" height="0.568"/>
			
				<rect x="250.152" y="139.714" transform="matrix(0.0719 0.9974 -0.9974 0.0719 373.6447 -121.5355)" fill="#5274B8" width="3.947" height="0.568"/>
			<path fill="#5274B8" d="M383.67,186.148H262.152c-2.748,0-5.159-2.249-5.357-4.997l-5.971-82.917
				c-0.198-2.748,1.889-4.997,4.637-4.997h121.517c2.748,0,5.159,2.249,5.357,4.997l5.971,82.917
				C388.505,183.899,386.418,186.148,383.67,186.148z"/>
			<g>
				<g>
					<path fill="#5274B8" d="M384.136,186.148H262.618c-2.748,0-5.159-2.249-5.357-4.997l-5.971-82.917
						c-0.198-2.748,1.889-4.997,4.637-4.997h121.517c2.748,0,5.159,2.249,5.357,4.997l5.971,82.917
						C388.971,183.899,386.884,186.148,384.136,186.148z"/>
					<path opacity="0.5" fill="#FFFFFF" d="M384.136,186.148H262.618c-2.748,0-5.159-2.249-5.357-4.997l-5.971-82.917
						c-0.198-2.748,1.889-4.997,4.637-4.997h121.517c2.748,0,5.159,2.249,5.357,4.997l5.971,82.917
						C388.971,183.899,386.884,186.148,384.136,186.148z"/>
				</g>
				<path fill="#5274B8" d="M377.625,95.735H256.108c-0.137,0-0.273,0.006-0.407,0.017c-3.106,0.256-2.472,4.981,0.663,4.981
					h121.725c3.135,0,3.089-4.725-0.054-4.981C377.899,95.741,377.763,95.735,377.625,95.735z"/>
				<path fill="#FAFBFB" d="M259.273,98.234c0.046,0.633-0.43,1.146-1.063,1.146s-1.183-0.513-1.228-1.146
					c-0.046-0.633,0.43-1.146,1.063-1.146S259.227,97.601,259.273,98.234z"/>
				<path fill="#FAFBFB" d="M263.17,98.234c0.046,0.633-0.43,1.146-1.063,1.146c-0.633,0-1.183-0.513-1.228-1.146
					c-0.046-0.633,0.43-1.146,1.063-1.146C262.574,97.088,263.124,97.601,263.17,98.234z"/>
				<path fill="#FAFBFB" d="M267.067,98.234c0.046,0.633-0.43,1.146-1.063,1.146c-0.633,0-1.183-0.513-1.228-1.146
					c-0.046-0.633,0.43-1.146,1.063-1.146C266.471,97.088,267.021,97.601,267.067,98.234z"/>
			</g>
			<path fill="#FFFFFF" d="M380.914,177.872H264.648c-1.001,0-1.87-0.811-1.942-1.812l-4.91-68.188
				c-0.072-1.001,0.681-1.812,1.681-1.812h116.266c1.001,0,1.87,0.811,1.942,1.812l4.91,68.188
				C382.667,177.061,381.915,177.872,380.914,177.872z"/>
		</g>
		<g>
			<g>
				<g>
					<g>
						<polygon fill="#FFFFFF" points="331.932,151.897 330.039,125.614 324.304,122.162 308.528,122.162 310.669,151.897 						"/>
						<path fill="#5274B8" d="M331.932,152.172h-21.263c-0.144,0-0.264-0.111-0.274-0.255l-2.141-29.734
							c-0.005-0.076,0.021-0.151,0.073-0.207c0.052-0.056,0.125-0.088,0.201-0.088h15.777c0.05,0,0.099,0.014,0.142,0.039
							l5.735,3.452c0.077,0.046,0.126,0.127,0.132,0.216l1.893,26.282c0.005,0.076-0.021,0.151-0.073,0.207
							C332.081,152.14,332.008,152.172,331.932,152.172z M310.925,151.622h20.712l-1.861-25.845l-5.547-3.339h-15.405
							L310.925,151.622z"/>
					</g>
					<g>
						<polygon fill="#EBEBEB" points="330.039,125.614 324.304,122.162 326.41,126.735 						"/>
						<path fill="#5274B8" d="M326.41,127.01c-0.105,0-0.204-0.06-0.25-0.16l-2.106-4.573c-0.05-0.11-0.024-0.239,0.066-0.32
							c0.09-0.08,0.222-0.093,0.325-0.031l5.735,3.452c0.093,0.056,0.144,0.161,0.131,0.269c-0.013,0.108-0.088,0.197-0.192,0.229
							l-3.629,1.121C326.464,127.006,326.437,127.01,326.41,127.01z M324.927,122.858l1.632,3.543l2.812-0.869L324.927,122.858z"/>
					</g>
				</g>
				<g>
					<path fill="#5274B8" d="M317.428,135.559c0.048,0.663-0.451,1.201-1.115,1.201s-1.24-0.538-1.288-1.201
						c-0.048-0.663,0.451-1.201,1.115-1.201S317.38,134.896,317.428,135.559z"/>
					<path fill="#5274B8" d="M325.222,135.559c0.048,0.663-0.451,1.201-1.115,1.201s-1.24-0.538-1.288-1.201
						c-0.048-0.663,0.451-1.201,1.115-1.201S325.174,134.896,325.222,135.559z"/>
					<path fill="#5274B8" d="M327.421,143.35c-0.143,0-0.263-0.111-0.274-0.255c-0.139-1.931-3.168-3.503-6.752-3.503
						c-2.375,0-4.507,0.706-5.564,1.843c-0.47,0.505-0.688,1.05-0.647,1.62c0.011,0.152-0.103,0.283-0.254,0.294
						c-0.152,0.009-0.283-0.103-0.294-0.254c-0.052-0.718,0.222-1.422,0.793-2.035c1.158-1.245,3.445-2.018,5.967-2.018
						c3.932,0,7.139,1.763,7.301,4.013c0.011,0.152-0.103,0.283-0.254,0.294C327.434,143.349,327.427,143.35,327.421,143.35z"/>
				</g>
				<path fill="#5274B8" d="M313.001,133.125c-0.067,0-0.134-0.024-0.187-0.073c-0.111-0.103-0.118-0.277-0.015-0.389l1.205-1.298
					c0.104-0.112,0.278-0.118,0.389-0.015c0.111,0.103,0.118,0.277,0.015,0.389l-1.205,1.298
					C313.149,133.096,313.075,133.125,313.001,133.125z"/>
				<path fill="#5274B8" d="M326.856,133.125c-0.067,0-0.134-0.025-0.188-0.074l-1.392-1.298c-0.111-0.104-0.117-0.277-0.013-0.389
					c0.103-0.111,0.277-0.117,0.389-0.013l1.392,1.298c0.111,0.103,0.117,0.277,0.013,0.389
					C327.003,133.096,326.93,133.125,326.856,133.125z"/>
			</g>
		</g>
	</g>
</g>
</svg>
