<?xml version="1.0" encoding="utf-8"?>
<!-- Generator: Adobe Illustrator 17.0.0, SVG Export Plug-In . SVG Version: 6.00 Build 0)  -->
<!DOCTYPE svg PUBLIC "-//W3C//DTD SVG 1.1//EN" "http://www.w3.org/Graphics/SVG/1.1/DTD/svg11.dtd">
<svg version="1.1" id="Layer_1" xmlns="http://www.w3.org/2000/svg" xmlns:xlink="http://www.w3.org/1999/xlink" x="0px" y="0px"
	 width="30px" height="30px" viewBox="0 0 30 30" enable-background="new 0 0 30 30" xml:space="preserve">
<circle fill="#1B66E3" cx="15" cy="15" r="15"/>
<g>
	<path fill="#FFFFFF" d="M22.475,8.5c0,0.418-0.339,0.757-0.757,0.757H8.424c-0.418,0-0.757-0.339-0.757-0.757l0,0
		c0-0.418,0.339-0.757,0.757-0.757h13.294C22.136,7.742,22.475,8.081,22.475,8.5L22.475,8.5z"/>
	<path fill="#FFFFFF" d="M22.475,12.252c0-0.89-0.51-1.874-2.129-1.874s-8.097,0.118-9.956,0c-2.362-0.15-2.319,0.942-2.723,1.874
		c-0.329,0.758-0.65,2.887-0.596,3.535c0.054,0.648,0.596,0.818,0.596,0.818s0,2.42,0,3.499c0,1.079,0.807,2.153,2.048,2.153
		s4.857,0,5.882,0c1.025,0,1.727-1.128,1.727-2.045c0-0.917,0-3.607,0-3.607h3.238c0,0,0.108,4.201,0.108,5.064
		c0,0.863,1.565,0.702,1.565,0c0-0.702,0.054-4.263,0.054-5.064c0.216,0.17,0.648-0.224,0.648-0.98
		C22.936,14.87,22.475,12.252,22.475,12.252z M15.812,20.59H9.445v-3.985h6.368V20.59z M8.851,15.103l0.594-3.202h11.333l0.54,3.202
		H8.851z"/>
</g>
</svg>
