<?xml version="1.0" encoding="utf-8"?>
<!-- Generator: Adobe Illustrator 17.0.0, SVG Export Plug-In . SVG Version: 6.00 Build 0)  -->
<!DOCTYPE svg PUBLIC "-//W3C//DTD SVG 1.1//EN" "http://www.w3.org/Graphics/SVG/1.1/DTD/svg11.dtd">
<svg version="1.1" id="Layer_1" xmlns="http://www.w3.org/2000/svg" xmlns:xlink="http://www.w3.org/1999/xlink" x="0px" y="0px"
	 width="30px" height="30px" viewBox="0 0 30 30" enable-background="new 0 0 30 30" xml:space="preserve">
<circle fill="#1B66E3" cx="15" cy="15" r="15"/>
<g>
	<path fill="#FFFFFF" d="M21.342,9.376H8.658c-0.9,0-1.629,0.729-1.629,1.629v7.99c0,0.9,0.729,1.629,1.629,1.629h12.684
		c0.9,0,1.629-0.729,1.629-1.629v-7.99C22.971,10.105,22.242,9.376,21.342,9.376z M21.595,18.271c0,0.54-0.438,0.977-0.977,0.977
		H9.463c-0.54,0-0.977-0.438-0.977-0.977v-6.299c0-0.54,0.438-0.977,0.977-0.977h11.155c0.54,0,0.977,0.438,0.977,0.977V18.271z"/>
	<circle fill="#FFFFFF" cx="16.78" cy="16.536" r="0.814"/>
	<circle fill="#FFFFFF" cx="19.115" cy="16.536" r="0.814"/>
	<rect x="8.255" y="12.464" fill="#FFFFFF" width="13.791" height="1.737"/>
</g>
</svg>
