<?xml version="1.0" encoding="utf-8"?>
<!-- Generator: Adobe Illustrator 17.0.0, SVG Export Plug-In . SVG Version: 6.00 Build 0)  -->
<!DOCTYPE svg PUBLIC "-//W3C//DTD SVG 1.1//EN" "http://www.w3.org/Graphics/SVG/1.1/DTD/svg11.dtd">
<svg version="1.1" id="Layer_1" xmlns="http://www.w3.org/2000/svg" xmlns:xlink="http://www.w3.org/1999/xlink" x="0px" y="0px"
	 width="30px" height="30px" viewBox="-4.75 -5.25 30 30" enable-background="new -4.75 -5.25 30 30" xml:space="preserve">
<g>
	<path fill-rule="evenodd" clip-rule="evenodd" fill="#DBDCDD" d="M0.25-5.25h20c2.761,0,5,2.239,5,5v20c0,2.761-2.239,5-5,5h-20
		c-2.761,0-5-2.239-5-5v-20C-4.75-3.011-2.511-5.25,0.25-5.25z"/>
</g>
<g>
	<path fill="#848484" d="M9.614,17.7c-0.646-0.001-1.212-0.434-1.381-1.057c-0.006-0.022-0.006-0.043-0.01-0.065l-3.934-2.126
		c-0.107-0.061-0.227-0.093-0.35-0.093c-0.046,0-0.092,0.004-0.137,0.013c-0.062,0.011-0.122,0.03-0.178,0.058
		c-0.128,0.061-0.236,0.16-0.307,0.283c-0.062,0.109-0.095,0.232-0.096,0.357c-0.002,0.255,0.134,0.492,0.355,0.62l6.511,3.896
		c0.17,0.107,0.368,0.163,0.569,0.164h5.032c0.134,0,0.268-0.026,0.393-0.075l1.311-0.518V15.31l-1.277-0.765
		c-0.166-0.1-0.356-0.152-0.55-0.152h-1.369c-0.218,0-0.435,0.029-0.646,0.085L9.429,15.58c-0.289,0.08-0.499,0.331-0.526,0.63
		v0.117c0.002,0.045,0.009,0.089,0.021,0.132c0.085,0.311,0.368,0.527,0.691,0.526c0.043-0.004,0.253-0.047,0.417-0.084l3.698-0.99
		l0.184,0.69l-3.71,0.993C10.01,17.646,9.813,17.682,9.614,17.7z"/>
	<path fill="#848484" d="M18.107,14.035h2.143v5.715h-2.143V14.035z"/>
	<path fill="#848484" d="M0.25-0.25h2.143v6.428H0.25V-0.25z"/>
	<path fill="#848484" d="M4.326,5.37C4.813,5.694,5.38,5.878,5.964,5.904V4.179c-0.264-0.096-0.51-0.235-0.73-0.41l-0.209-0.17
		l0.45-0.555l0.207,0.168c0.708,0.565,1.717,0.55,2.407-0.036l0.25-0.214l2.107,2.107c0.28,0.279,0.734,0.278,1.013-0.002
		c0.279-0.28,0.278-0.734-0.002-1.013l-2.52-2.523l0.505-0.505l0.867,0.867h2.947l-1.411-1.411c-0.468-0.47-1.104-0.734-1.768-0.732
		h-4.49c-0.166,0-0.33,0.039-0.479,0.113l-0.801,0.4C4.04,0.397,3.743,0.461,3.444,0.451L3.107,0.439v4.668h0.821L4.326,5.37z"/>
	<path fill="#848484" d="M6.679,4.328v6.136H20.25V2.607h-9.227l0.714,0.714h6.013v0.357c0,0.789,0.64,1.428,1.429,1.428h0.357
		v2.857h-0.357c-0.789,0-1.429,0.64-1.429,1.429V9.75H9.179V9.393c0-0.789-0.64-1.429-1.429-1.429H7.393V5.107H7.75
		c0.453,0,0.878-0.216,1.147-0.58l-0.61-0.61C7.811,4.227,7.245,4.371,6.679,4.328z"/>
	<path fill="#848484" d="M10.954,5.989c-0.378,0.001-0.741-0.148-1.009-0.414L9.406,5.036c-0.327,0.401-0.788,0.67-1.299,0.756V7.28
		C9.006,7.433,9.71,8.137,9.863,9.036h7.202c0.154-0.899,0.857-1.602,1.756-1.756V5.792c-0.899-0.154-1.602-0.857-1.756-1.756
		h-4.783c0.171,0.421,0.127,0.899-0.117,1.282c0.655-0.694,1.74-0.75,2.463-0.127c0.723,0.623,0.829,1.703,0.241,2.455
		C14.281,8.397,13.206,8.553,12.428,8c-0.777-0.553-0.982-1.62-0.466-2.422C11.694,5.841,11.332,5.989,10.954,5.989z"/>
	<path fill="#848484" d="M14.536,6.536c0,0.592-0.48,1.071-1.071,1.071c-0.592,0-1.071-0.48-1.071-1.071s0.48-1.071,1.071-1.071
		C14.056,5.464,14.536,5.944,14.536,6.536z"/>
</g>
</svg>
