<?xml version="1.0" encoding="utf-8"?>
<!-- Generator: Adobe Illustrator 17.0.0, SVG Export Plug-In . SVG Version: 6.00 Build 0)  -->
<!DOCTYPE svg PUBLIC "-//W3C//DTD SVG 1.1//EN" "http://www.w3.org/Graphics/SVG/1.1/DTD/svg11.dtd">
<svg version="1.1" id="Layer_1" xmlns="http://www.w3.org/2000/svg" xmlns:xlink="http://www.w3.org/1999/xlink" x="0px" y="0px"
	 width="30px" height="30px" viewBox="0 0 30 30" enable-background="new 0 0 30 30" xml:space="preserve">
<circle fill="#1B66E3" cx="15" cy="15" r="15"/>
<g>
	<g>
		<path fill="#FFFFFF" d="M15,24.5c-2.157,0-4.191-0.705-5.881-2.039C6.819,20.647,5.5,17.927,5.5,15C5.5,9.762,9.762,5.5,15,5.5
			S24.5,9.762,24.5,15C24.5,20.238,20.238,24.5,15,24.5z M15,7.409c-4.186,0-7.591,3.405-7.591,7.591
			c0,2.339,1.054,4.512,2.892,5.962c1.35,1.065,2.975,1.628,4.698,1.628c4.186,0,7.591-3.405,7.591-7.591
			C22.591,10.814,19.186,7.409,15,7.409z"/>
	</g>
	<path fill="#FFFFFF" d="M15,9.271c-1.512,0-2.737,1.225-2.737,2.737c0,1.512,1.225,2.737,2.737,2.737
		c1.512,0,2.737-1.225,2.737-2.737C17.737,10.497,16.511,9.271,15,9.271z M15,12.963c-0.527,0-0.955-0.427-0.955-0.955
		c0-0.527,0.427-0.955,0.955-0.955c0.527,0,0.955,0.427,0.955,0.955C15.955,12.536,15.527,12.963,15,12.963z"/>
	<g>
		<path fill="#FFFFFF" d="M19.501,22.251c-1.507-2.202-3.059-3.299-4.556-3.249c-2.478,0.075-4.397,3.169-4.415,3.2l-1.639-0.98
			c0.098-0.164,2.446-4.021,5.996-4.129c2.207-0.063,4.292,1.305,6.19,4.08L19.501,22.251z"/>
	</g>
</g>
</svg>
