<?xml version="1.0" encoding="utf-8"?>
<!-- Generator: Adobe Illustrator 17.0.0, SVG Export Plug-In . SVG Version: 6.00 Build 0)  -->
<!DOCTYPE svg PUBLIC "-//W3C//DTD SVG 1.1//EN" "http://www.w3.org/Graphics/SVG/1.1/DTD/svg11.dtd">
<svg version="1.1" id="Layer_1" xmlns="http://www.w3.org/2000/svg" xmlns:xlink="http://www.w3.org/1999/xlink" x="0px" y="0px"
	 width="30px" height="30px" viewBox="-7.748 -6.25 30 30" enable-background="new -7.748 -6.25 30 30" xml:space="preserve">
<g>
	<path fill-rule="evenodd" clip-rule="evenodd" fill="#DBDCDD" d="M-2.748-6.25h20c2.761,0,5,2.239,5,5v20c0,2.761-2.239,5-5,5h-20
		c-2.762,0-5-2.239-5-5v-20C-7.748-4.012-5.509-6.25-2.748-6.25z"/>
</g>
<g>
	<path fill="#848484" d="M7.238,17.749c-1.86,0-3.72,0.001-5.58,0c-0.567,0-1.008-0.232-1.254-0.743
		c-0.095-0.197-0.144-0.434-0.146-0.653c-0.012-1.588-0.014-3.177-0.004-4.765c0.006-0.931,0.325-1.742,1.021-2.389
		c0.415-0.386,0.914-0.6,1.473-0.688c0.53-0.084,1.06-0.171,1.59-0.252c0.228-0.035,0.336,0.037,0.424,0.275
		c0.414,1.121,0.826,2.242,1.239,3.364c0.287,0.78,0.575,1.56,0.862,2.34c0.078,0.21,0.203,0.313,0.383,0.316
		c0.186,0.003,0.317-0.101,0.397-0.318c0.688-1.869,1.376-3.738,2.065-5.607c0.029-0.078,0.05-0.17,0.105-0.225
		c0.069-0.067,0.178-0.155,0.255-0.144c0.711,0.108,1.444,0.158,2.123,0.374c1.265,0.402,2.057,1.597,2.063,2.953
		c0.007,1.588,0.004,3.177,0,4.765c-0.002,0.835-0.577,1.395-1.42,1.396C10.968,17.75,9.103,17.749,7.238,17.749z"/>
	<path fill="#848484" d="M10.842,3.3c0,1.955-1.609,3.55-3.583,3.554C5.281,6.857,3.66,5.252,3.665,3.295
		C3.67,1.339,5.283-0.252,7.256-0.25C9.232-0.248,10.842,1.346,10.842,3.3z"/>
	<path fill="#848484" d="M7.252,8.012c0.159,0,0.318-0.001,0.477,0C7.908,8.014,8.047,8.091,8.13,8.248
		c0.083,0.157,0.063,0.313-0.035,0.46c-0.109,0.164-0.21,0.334-0.332,0.489C7.649,9.343,7.616,9.49,7.642,9.673
		c0.076,0.535,0.136,1.072,0.197,1.609c0.008,0.07,0.001,0.148-0.023,0.214c-0.129,0.355-0.261,0.71-0.405,1.06
		c-0.027,0.066-0.103,0.141-0.167,0.152c-0.042,0.007-0.125-0.086-0.15-0.15c-0.144-0.355-0.277-0.715-0.409-1.074
		c-0.02-0.053-0.029-0.115-0.023-0.171c0.068-0.595,0.143-1.19,0.209-1.785c0.007-0.066-0.014-0.146-0.049-0.203
		C6.695,9.12,6.558,8.921,6.421,8.722C6.318,8.572,6.29,8.413,6.375,8.25c0.088-0.169,0.239-0.241,0.43-0.239
		C6.954,8.013,7.103,8.011,7.252,8.012C7.252,8.011,7.252,8.012,7.252,8.012z"/>
</g>
</svg>
