<?xml version="1.0" encoding="utf-8"?>
<!-- Generator: Adobe Illustrator 17.0.0, SVG Export Plug-In . SVG Version: 6.00 Build 0)  -->
<!DOCTYPE svg PUBLIC "-//W3C//DTD SVG 1.1//EN" "http://www.w3.org/Graphics/SVG/1.1/DTD/svg11.dtd">
<svg version="1.1" id="Layer_1" xmlns="http://www.w3.org/2000/svg" xmlns:xlink="http://www.w3.org/1999/xlink" x="0px" y="0px"
	 width="100" height="85" viewBox="0 0 122 104" enable-background="new 0 0 122 104" xml:space="preserve">
	<g>
		<path fill="#ECEDED" d="M28.321,67.167c0-1.197-0.976-2.167-2.179-2.167c-0.568-0.006-1.114,0.219-1.509,0.624
			c-0.428,0.4-0.67,0.958-0.669,1.543V78h4.357V67.167z"/>
		<path fill="#ECEDED" d="M4.357,73.667v28.167c0,1.197,0.975,2.167,2.179,2.167h108.929c1.203,0,2.179-0.97,2.179-2.167V73.667
			h-15.25v6.5c0,1.197-0.976,2.167-2.179,2.167H91.5c-1.203,0-2.179-0.97-2.179-2.167v-6.5H32.679v6.5
			c0,1.197-0.976,2.167-2.179,2.167h-8.714c-1.203,0-2.179-0.97-2.179-2.167v-6.5H4.357z"/>
		<path fill="#ECEDED" d="M98.036,67.167c0.004-0.565-0.221-1.107-0.625-1.503c-0.403-0.425-0.966-0.665-1.553-0.663
			c-1.203,0-2.179,0.97-2.179,2.167V78h4.357V67.167z"/>
		<path fill="#ECEDED" d="M122,67.167V23.833c0-1.197-0.976-2.167-2.179-2.167H2.179C0.975,21.667,0,22.637,0,23.833v43.333
			c0,1.196,0.975,2.167,2.179,2.167h17.429v-2.167c0.02-3.581,2.935-6.48,6.536-6.5c3.609,0,6.536,2.91,6.536,6.5v2.167h56.643
			v-2.167c0-3.59,2.926-6.5,6.536-6.5c3.603,0.016,6.52,2.917,6.536,6.5v2.167h17.429C121.025,69.333,122,68.363,122,67.167z"/>
		<path fill="#ECEDED" d="M30.5,17.333h4.336l-0.068-6.479v-0.021c0.007-3.586,2.93-6.493,6.536-6.5h39.304
			c3.606,0.007,6.528,2.914,6.536,6.5l-0.087,6.5H91.5v-6.5C91.493,4.853,86.621,0.007,80.607,0H41.393
			C35.379,0.007,30.507,4.853,30.5,10.833V17.333z"/>
	</g>
</svg>
