<?xml version="1.0" encoding="utf-8"?>
<!-- Generator: Adobe Illustrator 17.0.0, SVG Export Plug-In . SVG Version: 6.00 Build 0)  -->
<!DOCTYPE svg PUBLIC "-//W3C//DTD SVG 1.1//EN" "http://www.w3.org/Graphics/SVG/1.1/DTD/svg11.dtd">
<svg version="1.1" id="Layer_1" xmlns="http://www.w3.org/2000/svg" xmlns:xlink="http://www.w3.org/1999/xlink" x="0px" y="0px"
	 width="135" height="111" viewBox="0 0 249.721 207.175" enable-background="new 0 0 249.721 207.175"
	 xml:space="preserve">
<g>
	<g>
		<g>
			<g>
				<polygon fill="#C6E8F9" points="77.401,131.39 76.803,135.092 50.597,131.317 51.195,127.615 				"/>
			</g>
			<g>
				<polygon fill="#C6E8F9" points="64.203,118.182 67.964,118.724 63.794,144.525 60.034,143.983 				"/>
			</g>
		</g>
		<g>
			<g>
				<path fill="#C6E8F9" d="M56.75,86.915"/>
			</g>
		</g>
		<g>
			<g>
				
					<ellipse transform="matrix(0.8312 -0.556 0.556 0.8312 -47.1251 31.4296)" fill="#C6E8F9" cx="28.199" cy="93.325" rx="14.276" ry="0.122"/>
			</g>
		</g>
		<g>
			<g>
				
					<ellipse transform="matrix(0.8312 -0.556 0.556 0.8312 -45.3761 37.9209)" fill="#C6E8F9" cx="39.763" cy="93.69" rx="23.686" ry="0.122"/>
			</g>
		</g>
		<g>
			<g>
				
					<ellipse transform="matrix(0.8312 -0.556 0.556 0.8312 -47.9503 41.0622)" fill="#C6E8F9" cx="43.65" cy="99.5" rx="23.686" ry="0.122"/>
			</g>
		</g>
		<g>
			<g>
				
					<ellipse transform="matrix(0.8312 -0.556 0.556 0.8312 -50.5244 44.2032)" fill="#C6E8F9" cx="47.536" cy="105.31" rx="23.686" ry="0.122"/>
			</g>
		</g>
		<g>
			<g>
				
					<ellipse transform="matrix(0.8312 -0.556 0.556 0.8312 -53.0986 47.3444)" fill="#C6E8F9" cx="51.422" cy="111.12" rx="23.686" ry="0.122"/>
			</g>
		</g>
	</g>
	<g>
		<g>
			<g>
				<polygon fill="#C6E8F9" points="249.721,171.569 249.219,174.678 227.211,171.508 227.713,168.398 				"/>
			</g>
			<g>
				<polygon fill="#C6E8F9" points="238.638,160.476 241.796,160.931 238.294,182.6 235.136,182.145 				"/>
			</g>
		</g>
		<g>
			<g>
				<path fill="none" stroke="#FEFFFF" stroke-miterlimit="10" d="M232.379,134.217"/>
			</g>
		</g>
		<g>
			<g>
				
					<ellipse transform="matrix(0.8312 -0.556 0.556 0.8312 -42.4364 139.4253)" fill="#E1E1E0" cx="208.4" cy="139.601" rx="11.99" ry="0.122"/>
			</g>
		</g>
		<g>
			<g>
				
					<ellipse transform="matrix(0.8312 -0.556 0.556 0.8312 -40.9675 144.8771)" fill="#E1E1E0" cx="218.112" cy="139.907" rx="19.893" ry="0.122"/>
			</g>
		</g>
		<g>
			<g>
				
					<ellipse transform="matrix(0.8312 -0.556 0.556 0.8312 -43.1294 147.5153)" fill="#E1E1E0" cx="221.376" cy="144.787" rx="19.893" ry="0.122"/>
			</g>
		</g>
		<g>
			<g>
				
					<ellipse transform="matrix(0.8312 -0.556 0.556 0.8312 -45.2912 150.1531)" fill="#E1E1E0" cx="224.64" cy="149.666" rx="19.893" ry="0.122"/>
			</g>
		</g>
		<g>
			<g>
				
					<ellipse transform="matrix(0.8312 -0.556 0.556 0.8312 -47.4531 152.7911)" fill="#E1E1E0" cx="227.903" cy="154.546" rx="19.892" ry="0.122"/>
			</g>
		</g>
	</g>
	<g>
		<g>
			<g>
				<polygon fill="#C6E8F9" points="112.639,109.171 109.574,110.221 101.795,88.715 104.859,87.666 				"/>
			</g>
			<g>
				<polygon fill="#C6E8F9" points="117.337,93.743 118.454,96.829 97.096,104.144 95.98,101.058 				"/>
			</g>
		</g>
		<g>
			<g>
				<path fill="none" stroke="#FEFFFF" stroke-miterlimit="10" d="M138.134,75.349"/>
			</g>
		</g>
		<g>
			<g>
				
					<ellipse transform="matrix(0.8818 0.4716 -0.4716 0.8818 40.8798 -50.7238)" fill="#C6E8F9" cx="121.639" cy="56.198" rx="12.331" ry="0.145"/>
			</g>
		</g>
		<g>
			<g>
				
					<ellipse transform="matrix(0.8818 0.4716 -0.4716 0.8818 45.6288 -51.751)" fill="#C6E8F9" cx="126.064" cy="65.159" rx="20.459" ry="0.145"/>
			</g>
		</g>
		<g>
			<g>
				
					<ellipse transform="matrix(0.8818 0.4716 -0.4716 0.8818 47.8033 -49.7791)" fill="#C6E8F9" cx="123.216" cy="70.483" rx="20.459" ry="0.145"/>
			</g>
		</g>
		<g>
			<g>
				
					<ellipse transform="matrix(0.8818 0.4716 -0.4716 0.8818 49.9774 -47.8069)" fill="#C6E8F9" cx="120.369" cy="75.807" rx="20.459" ry="0.145"/>
			</g>
		</g>
		<g>
			<g>
				
					<ellipse transform="matrix(0.8818 0.4716 -0.4716 0.8818 52.1517 -45.8349)" fill="#C6E8F9" cx="117.522" cy="81.131" rx="20.459" ry="0.145"/>
			</g>
		</g>
	</g>
	<rect x="134.602" y="0" opacity="0.2" width="1.214" height="20.664"/>
	<g>
		<g>
			<g>
				<path fill="#E2F4FD" d="M106.912,45.661h56.595c0,0-5.225-25.01-28.726-25.01C113.877,20.651,106.912,45.661,106.912,45.661z"/>
			</g>
		</g>
		<rect x="134.602" y="0" fill="#E2F4FD" width="1.214" height="20.664"/>
	</g>
	<g>
		<g>
			<path fill="#E2F4FD" d="M4.986,177.217c1.589,0.056,3.079,0.918,4.127,2.114c1.048,1.195,1.69,2.698,2.101,4.234
				c0.795,2.971,0.306,6.477-0.541,9.433c-3.216-1.15-5.2-4.58-6.096-6.383C3.159,183.765,2.328,177.753,4.986,177.217"/>
		</g>
		<g>
			<path fill="#E2F4FD" d="M15.301,196.598c-1.015-1.457-1.039-3.483-0.236-5.067c0.802-1.584,2.343-2.726,4.041-3.248
				c0.785-0.241,1.695-0.342,2.378,0.114c0.638,0.426,0.914,1.263,0.832,2.026c-0.082,0.763-0.469,1.461-0.925,2.079
				C19.826,194.619,17.924,196.381,15.301,196.598"/>
		</g>
		<g>
			<g>
				<path fill="#C6E8F9" d="M15.655,206.526c-0.016,0.002-0.064-0.218-0.144-0.617c-0.086-0.44-0.197-1.01-0.331-1.693
					c-0.254-1.424-0.657-3.448-0.352-5.686c0.293-2.228,1.18-4.133,2.11-5.271c0.458-0.575,0.896-0.983,1.22-1.233
					c0.157-0.132,0.295-0.213,0.383-0.275c0.09-0.059,0.139-0.087,0.144-0.081c0.035,0.04-0.752,0.525-1.621,1.685
					c-0.881,1.141-1.725,3.014-2.014,5.204c-0.3,2.192,0.072,4.199,0.286,5.63c0.115,0.719,0.208,1.301,0.261,1.706
					C15.65,206.299,15.67,206.524,15.655,206.526z"/>
			</g>
		</g>
		<g>
			<g>
				<path fill="#C6E8F9" d="M6.023,181.739c0.007-0.003,0.051,0.081,0.129,0.244c0.086,0.185,0.195,0.422,0.331,0.716
					c0.284,0.623,0.684,1.531,1.168,2.656c0.969,2.25,2.264,5.377,3.616,8.863c1.351,3.487,2.504,6.67,3.305,8.985
					c0.401,1.157,0.718,2.097,0.928,2.749c0.098,0.308,0.176,0.558,0.238,0.752c0.052,0.173,0.076,0.265,0.069,0.267
					s-0.045-0.085-0.111-0.253c-0.072-0.191-0.164-0.436-0.277-0.738c-0.244-0.669-0.582-1.594-0.994-2.724
					c-0.839-2.3-2.014-5.473-3.364-8.957c-1.351-3.483-2.622-6.617-3.554-8.882c-0.458-1.113-0.831-2.023-1.102-2.683
					c-0.12-0.3-0.217-0.543-0.293-0.732C6.047,181.832,6.016,181.742,6.023,181.739z"/>
			</g>
		</g>
		<g>
			<path fill="#E2F4FD" d="M11.837,199.958c-1.897-3.227-5.438-5.428-9.172-5.699c-0.951-0.069-2.094,0.091-2.518,0.945
				c-0.425,0.855,0.143,1.867,0.791,2.569c2.695,2.919,7.254,3.937,10.934,2.441"/>
		</g>
		<g>
			<g>
				<path fill="#C6E8F9" d="M4.113,196.804c0.001-0.015,0.212-0.007,0.595,0.022c0.192,0.013,0.426,0.03,0.695,0.081
					c0.268,0.05,0.58,0.079,0.911,0.171c0.334,0.082,0.702,0.164,1.084,0.301c0.389,0.115,0.788,0.281,1.208,0.459
					c0.829,0.376,1.708,0.869,2.545,1.509c0.831,0.648,1.533,1.372,2.104,2.082c0.275,0.364,0.537,0.709,0.741,1.059
					c0.226,0.337,0.394,0.675,0.551,0.981c0.169,0.3,0.268,0.597,0.379,0.847c0.111,0.249,0.181,0.474,0.236,0.658
					c0.114,0.367,0.17,0.571,0.155,0.575c-0.047,0.017-0.276-0.805-0.91-2.008c-0.165-0.297-0.338-0.626-0.567-0.954
					c-0.208-0.341-0.472-0.676-0.746-1.031c-0.57-0.691-1.263-1.397-2.08-2.034c-0.822-0.628-1.683-1.118-2.494-1.498
					c-0.411-0.18-0.801-0.351-1.182-0.471c-0.373-0.143-0.735-0.232-1.062-0.323C4.958,196.898,4.108,196.853,4.113,196.804z"/>
			</g>
		</g>
	</g>
	<g>
		<path fill="#C6E8F9" d="M89.869,110.194l-16.613,85.413l-2.175,11.181l110.907-0.547c4.977-0.025,9.388-4.444,10.99-11.01
			l19.666-80.639c1.216-4.985-1.452-10.169-5.23-10.165l-112.251,0.118C92.685,104.548,90.518,106.86,89.869,110.194z"/>
	</g>
	<g>
		<path fill="#E2F4FD" d="M171.35,189.82l-11.743-94.626c-0.481-3.877-3.57-6.769-7.216-6.757l-25.749,0.084
			c-1.906,0.006-3.733,0.816-5.087,2.255l-12.227,12.997l-71.613,0.374c-4.376,0.023-7.738,4.164-7.158,8.816l10.903,87.458
			c0.483,3.872,3.565,6.76,7.207,6.753l124.806-0.247c13.901,0.288,15.228-3.817,15.228-3.817
			C172.77,206.642,171.351,189.831,171.35,189.82z"/>
	</g>
	<g opacity="0.5">
		<polygon fill="#FFFFFF" points="117.534,170.882 113.325,175.402 80.906,146.239 85.115,141.718 		"/>
		<polygon fill="#FFFFFF" points="111.561,140.715 116.213,144.9 86.879,176.405 82.227,172.22 		"/>
	</g>
	<g>
		<g>
			<g>
				<g>
					<path fill="#C6E8F9" d="M189.171,48.76c-0.3-0.129-0.516-0.421-0.531-0.769l-0.188-4.362c-0.012-0.274,0.105-0.539,0.317-0.713
						c0.212-0.175,0.493-0.241,0.76-0.177c0.701,0.166,1.474,0.013,2.121-0.419c0.596-0.397,0.995-0.983,1.097-1.606
						c0.102-0.621-0.091-1.309-0.527-1.887c-0.468-0.619-1.158-1.035-1.851-1.115c-1.415-0.163-2.942,0.921-3.335,2.367
						c-0.127,0.467-0.608,0.743-1.076,0.616c-0.475-0.131-0.743-0.609-0.616-1.076c0.617-2.273,2.962-3.91,5.228-3.649
						c1.175,0.135,2.287,0.791,3.049,1.8c0.724,0.958,1.037,2.134,0.859,3.226c-0.18,1.102-0.855,2.116-1.854,2.782
						c-0.722,0.482-1.55,0.747-2.377,0.776l0.145,3.362c0.021,0.484-0.355,0.893-0.838,0.913
						C189.418,48.835,189.288,48.81,189.171,48.76z"/>
				</g>
			</g>
			<g>
				<g>
					<circle fill="#C6E8F9" cx="189.741" cy="50.591" r="0.717"/>
				</g>
			</g>
		</g>
		<g>
			<g>
				<g>
					<path fill="#C6E8F9" d="M174.074,42.61c0.006,0,0.02-0.097,0.042-0.286c0.022-0.204,0.053-0.483,0.092-0.84
						c0.021-0.372,0.116-0.821,0.227-1.35c0.062-0.263,0.094-0.556,0.19-0.852c0.092-0.298,0.189-0.614,0.291-0.949
						c0.455-1.319,1.156-2.902,2.337-4.476c1.172-1.571,2.819-3.122,4.934-4.298c1.041-0.621,2.233-1.054,3.481-1.436
						c1.268-0.3,2.612-0.558,4.017-0.524c0.702-0.038,1.411,0.065,2.132,0.126c0.36,0.034,0.715,0.131,1.077,0.194
						c0.362,0.067,0.726,0.138,1.081,0.261c1.45,0.372,2.859,1.056,4.202,1.904c2.695,1.696,4.965,4.454,6.21,7.799
						c0.624,1.673,0.923,3.507,0.921,5.36c0.037,1.856-0.322,3.742-0.983,5.516l-0.212,0.536l-0.028,0.071l0.029,0.066
						c1.178,2.714,2.334,5.376,3.454,7.955l0.198-0.224c-2.426-0.932-4.779-1.836-7.036-2.703l-0.087-0.033l-0.068,0.066
						c-1.952,1.891-4.284,3.17-6.644,3.836c-2.368,0.667-4.753,0.702-6.922,0.316c-2.174-0.385-4.131-1.216-5.763-2.285
						c-1.637-1.069-2.95-2.368-3.962-3.689c-1.004-1.335-1.666-2.704-2.166-3.927c-0.44-1.25-0.71-2.359-0.84-3.277
						c-0.056-0.459-0.105-0.866-0.148-1.222c-0.009-0.351-0.017-0.65-0.023-0.898c-0.008-0.231-0.014-0.413-0.018-0.55
						C174.084,42.673,174.079,42.61,174.074,42.61c-0.004,0-0.008,0.063-0.011,0.187c-0.002,0.138-0.004,0.32-0.007,0.551
						c-0.001,0.249-0.001,0.55-0.002,0.903c0.036,0.359,0.078,0.77,0.124,1.232c0.116,0.927,0.372,2.05,0.803,3.318
						c0.491,1.241,1.148,2.633,2.154,3.993c1.014,1.346,2.335,2.673,3.99,3.768c1.65,1.095,3.633,1.95,5.84,2.351
						c2.202,0.401,4.626,0.376,7.038-0.295c2.405-0.67,4.784-1.966,6.778-3.891l-0.155,0.033c2.256,0.871,4.607,1.778,7.032,2.714
						l0.355,0.137l-0.157-0.361c-1.118-2.58-2.273-5.242-3.449-7.957l0.001,0.137l0.217-0.548c0.676-1.814,1.042-3.743,1.003-5.64
						c0.001-1.893-0.307-3.768-0.947-5.477c-1.276-3.416-3.598-6.223-6.347-7.944c-1.37-0.861-2.807-1.552-4.283-1.926
						c-0.361-0.123-0.732-0.194-1.1-0.261c-0.369-0.063-0.73-0.159-1.096-0.193c-0.734-0.059-1.454-0.16-2.167-0.119
						c-1.427-0.027-2.792,0.239-4.078,0.552c-1.267,0.394-2.473,0.841-3.526,1.477c-2.138,1.206-3.797,2.792-4.969,4.392
						c-1.181,1.604-1.873,3.212-2.314,4.549c-0.099,0.339-0.192,0.659-0.28,0.961c-0.092,0.3-0.12,0.595-0.178,0.861
						c-0.102,0.536-0.187,0.989-0.198,1.363c-0.026,0.36-0.046,0.64-0.061,0.846C174.072,42.512,174.069,42.61,174.074,42.61z"/>
				</g>
			</g>
		</g>
	</g>
</g>
</svg>
