<?xml version="1.0" encoding="utf-8"?>
<!-- Generator: Adobe Illustrator 17.0.0, SVG Export Plug-In . SVG Version: 6.00 Build 0)  -->
<!DOCTYPE svg PUBLIC "-//W3C//DTD SVG 1.1//EN" "http://www.w3.org/Graphics/SVG/1.1/DTD/svg11.dtd">
<svg version="1.1" id="Layer_1" xmlns="http://www.w3.org/2000/svg" xmlns:xlink="http://www.w3.org/1999/xlink" x="0px" y="0px"
	 width="36px" height="32.001px" viewBox="0 0 36 32.001" enable-background="new 0 0 36 32.001" xml:space="preserve">
<g>
	<path fill="#FFFFFF" d="M16.664,5.474c-0.156-0.184-0.426-0.218-0.622-0.077L2.597,15.069c-0.207,0.149-0.254,0.438-0.106,0.645
		c0.149,0.207,0.437,0.255,0.644,0.106l0,0l13.099-9.423l4.34,5.146c0.159,0.189,0.439,0.219,0.635,0.068l10.804-8.346l1.473,1.696
		c0.167,0.193,0.459,0.213,0.651,0.045c0.092-0.08,0.149-0.194,0.158-0.317l0.273-3.922c0.018-0.255-0.174-0.475-0.428-0.493
		l-3.915-0.273c-0.254-0.018-0.475,0.174-0.493,0.429c-0.009,0.122,0.032,0.243,0.112,0.336l1.563,1.8l-10.412,8.042L16.664,5.474z"
		/>
	<path fill="#FFFFFF" d="M23.053,16.933c0-0.49-0.397-0.886-0.885-0.887h-8.501c-0.489,0-0.885,0.397-0.885,0.887v0.105
		c0.001,0.49,0.396,0.886,0.885,0.887h8.501c0.489-0.001,0.885-0.397,0.885-0.887V16.933z"/>
	<path fill="#FFFFFF" d="M22.115,27.278h-6.581c-0.633,0.773-1.474,1.347-2.424,1.654c0.17,0.145,0.386,0.225,0.609,0.224h8.396
		c0.518-0.005,0.934-0.429,0.929-0.948C23.04,27.697,22.627,27.283,22.115,27.278L22.115,27.278z"/>
	<path fill="#FFFFFF" d="M22.115,24.468h-5.428c-0.06,0.655-0.245,1.293-0.545,1.879h5.973c0.518-0.005,0.934-0.429,0.929-0.948
		C23.04,24.887,22.627,24.473,22.115,24.468z"/>
	<path fill="#FFFFFF" d="M22.115,21.659h-5.958c0.295,0.586,0.476,1.224,0.532,1.878h5.426c0.518,0,0.938-0.42,0.938-0.939
		C23.053,22.079,22.633,21.659,22.115,21.659L22.115,21.659z"/>
	<path fill="#FFFFFF" d="M13.667,30.123h8.501c0.489,0,0.885,0.397,0.885,0.887v0.105c0,0.49-0.396,0.887-0.885,0.887h-8.501
		c-0.489,0-0.885-0.397-0.885-0.887V31.01C12.782,30.52,13.178,30.123,13.667,30.123z"/>
	<path fill="#FFFFFF" d="M22.115,18.849H13.72c-0.212,0-0.418,0.072-0.583,0.204c0.951,0.313,1.792,0.895,2.421,1.674h6.559
		c0.518-0.005,0.934-0.429,0.929-0.948C23.04,19.268,22.627,18.854,22.115,18.849z"/>
	<path fill="#FFFFFF" d="M0,31.045c0.001,0.49,0.396,0.886,0.885,0.887h8.501c0.489,0,0.885-0.397,0.885-0.887V30.94
		c-0.001-0.428-0.306-0.794-0.725-0.872c-0.071,0.009-0.141,0.013-0.212,0.013H0.938c-0.072,0-0.144-0.004-0.215-0.013
		C0.304,30.147,0.001,30.513,0,30.94V31.045z"/>
	<path fill="#FFFFFF" d="M0.737,29.135c0.049-0.004,0.098-0.007,0.148-0.007h8.501c0.05,0,0.099,0.003,0.148,0.007
		c0.15-0.033,0.29-0.103,0.407-0.203c-0.949-0.307-1.79-0.881-2.422-1.654H0.938C0.42,27.278,0,27.698,0,28.217
		C0,28.659,0.307,29.041,0.737,29.135L0.737,29.135z"/>
	<path fill="#FFFFFF" d="M7.266,23.989c0,2.357,1.908,4.268,4.261,4.268c2.353,0,4.261-1.911,4.261-4.268s-1.908-4.268-4.261-4.268
		C9.174,19.723,7.268,21.633,7.266,23.989z M11.988,20.548v0.333c0.786,0.211,1.334,0.924,1.335,1.739
		c0,0.255-0.207,0.462-0.462,0.462c-0.255,0-0.462-0.207-0.462-0.462c0-0.483-0.391-0.875-0.874-0.875
		c-0.483,0-0.874,0.392-0.874,0.875c0,0.483,0.391,0.875,0.874,0.875h0c0.992,0,1.797,0.806,1.797,1.8
		c0,0.816-0.548,1.53-1.335,1.739v0.394c0,0.255-0.207,0.462-0.461,0.462c-0.255,0-0.462-0.207-0.462-0.462v-0.394
		c-0.786-0.211-1.334-0.924-1.335-1.739c0-0.255,0.207-0.462,0.462-0.462s0.462,0.207,0.462,0.462
		c0.001,0.479,0.386,0.869,0.864,0.875c0.003,0,0.006-0.001,0.01-0.001c0.003,0,0.006,0,0.01,0.001
		c0.482-0.006,0.868-0.403,0.862-0.886c-0.006-0.478-0.394-0.863-0.872-0.864c-0.992,0-1.797-0.806-1.797-1.8
		c0-0.816,0.548-1.53,1.335-1.739v-0.333c0-0.255,0.207-0.462,0.462-0.462C11.781,20.086,11.988,20.293,11.988,20.548L11.988,20.548
		z"/>
	<path fill="#FFFFFF" d="M0,25.408c0,0.519,0.42,0.939,0.938,0.939H6.91c-0.3-0.586-0.485-1.223-0.545-1.879H0.938
		C0.42,24.469,0,24.889,0,25.408z"/>
	<path fill="#FFFFFF" d="M36,14.198c-0.001-0.483-0.386-0.876-0.868-0.886c-0.006,0-0.012,0-0.017,0h-8.5c-0.006,0-0.012,0-0.017,0
		c-0.482,0.01-0.868,0.403-0.868,0.886v0.105c0,0.482,0.386,0.876,0.867,0.886c0.006,0,0.012-0.001,0.018-0.001h8.5
		c0.006,0,0.012,0,0.018,0.001c0.482-0.01,0.867-0.404,0.867-0.886V14.198z"/>
	<path fill="#FFFFFF" d="M36,19.802c-0.001-0.483-0.386-0.876-0.867-0.886c-0.006,0-0.012,0-0.018,0h-8.5c-0.006,0-0.012,0-0.018,0
		c-0.482,0.01-0.867,0.404-0.867,0.886v0.105c0,0.482,0.386,0.876,0.867,0.886c0.006,0,0.012,0,0.018,0h8.5c0.006,0,0.012,0,0.018,0
		c0.482-0.01,0.867-0.404,0.867-0.886V19.802z"/>
	<path fill="#FFFFFF" d="M36,31.115V31.01c-0.001-0.483-0.387-0.877-0.868-0.886c-0.006,0-0.011,0-0.017,0h-8.5
		c-0.006,0-0.011,0-0.017,0c-0.482,0.009-0.868,0.403-0.868,0.886v0.105c0,0.49,0.396,0.886,0.885,0.887h8.5
		C35.604,32.001,35.999,31.604,36,31.115z"/>
	<path fill="#FFFFFF" d="M35.115,10.51h-8.5c-0.489,0-0.885,0.397-0.885,0.887v0.105c0.001,0.483,0.386,0.876,0.868,0.886
		c0.006,0,0.011,0,0.017,0h8.5c0.006,0,0.012,0,0.017,0c0.482-0.01,0.867-0.403,0.868-0.886v-0.105
		C35.999,10.907,35.604,10.51,35.115,10.51z"/>
	<path fill="#FFFFFF" d="M36,17c-0.001-0.482-0.386-0.876-0.867-0.886c-0.006,0-0.012,0-0.018,0h-8.5c-0.006,0-0.012,0-0.018,0
		c-0.482,0.01-0.867,0.404-0.867,0.886v0.105c0,0.482,0.386,0.876,0.867,0.886c0.006,0,0.012,0,0.018,0h8.5c0.006,0,0.012,0,0.018,0
		c0.482-0.01,0.867-0.404,0.867-0.886V17z"/>
	<path fill="#FFFFFF" d="M36,28.208c-0.001-0.482-0.386-0.876-0.867-0.886c-0.006,0-0.012,0-0.018,0h-8.5c-0.006,0-0.012,0-0.018,0
		c-0.482,0.01-0.867,0.403-0.867,0.886v0.105c0,0.483,0.386,0.877,0.868,0.886c0.006,0,0.011,0,0.017,0h8.5c0.006,0,0.011,0,0.017,0
		c0.482-0.01,0.868-0.403,0.868-0.886V28.208z"/>
	<path fill="#FFFFFF" d="M36,25.406c-0.001-0.483-0.387-0.877-0.868-0.886c-0.006,0-0.011,0-0.017,0h-8.5c-0.006,0-0.011,0-0.017,0
		c-0.482,0.009-0.868,0.403-0.868,0.886v0.105c0,0.483,0.386,0.876,0.867,0.886c0.006,0,0.012,0,0.018,0h8.5
		c0.006,0,0.012,0,0.018,0c0.482-0.01,0.867-0.404,0.867-0.886V25.406z"/>
	<path fill="#FFFFFF" d="M36,22.604c-0.001-0.483-0.386-0.876-0.867-0.886c-0.006,0-0.012,0-0.018,0h-8.5c-0.006,0-0.012,0-0.018,0
		c-0.482,0.01-0.867,0.404-0.867,0.886v0.105c0,0.483,0.386,0.877,0.868,0.886c0.006,0,0.011,0,0.017,0h8.5c0.006,0,0.011,0,0.017,0
		c0.482-0.009,0.868-0.403,0.868-0.886V22.604z"/>
</g>
</svg>
