<?xml version="1.0" encoding="utf-8"?>
<!-- Generator: Adobe Illustrator 17.0.0, SVG Export Plug-In . SVG Version: 6.00 Build 0)  -->
<!DOCTYPE svg PUBLIC "-//W3C//DTD SVG 1.1//EN" "http://www.w3.org/Graphics/SVG/1.1/DTD/svg11.dtd">
<svg version="1.1" id="Capa_1" xmlns="http://www.w3.org/2000/svg" xmlns:xlink="http://www.w3.org/1999/xlink" x="0px" y="0px"
	 width="25.001px" height="31.532px" viewBox="293.499 380.234 25.001 31.532"
	 enable-background="new 293.499 380.234 25.001 31.532" xml:space="preserve">
<g>
	<g>
		<g>
			<path fill="#FFFFFF" d="M318.485,406.236l-1.408-17.743c-0.087-1.143-1.055-2.038-2.201-2.038h-2.781v4.121
				c0,0.51-0.413,0.923-0.923,0.923c-0.51,0-0.923-0.413-0.923-0.923v-4.121h-8.496v4.121c0,0.51-0.414,0.923-0.923,0.923
				c-0.51,0-0.923-0.413-0.923-0.923v-4.121h-2.781c-1.146,0-2.113,0.895-2.201,2.036l-1.409,17.748
				c-0.109,1.422,0.384,2.836,1.353,3.882c0.968,1.045,2.341,1.646,3.767,1.646h14.734c1.425,0,2.798-0.6,3.767-1.646
				C318.102,409.075,318.595,407.66,318.485,406.236z M310.161,397.201l-4.776,4.776c-0.18,0.18-0.417,0.271-0.653,0.271
				c-0.236,0-0.473-0.09-0.653-0.271l-2.238-2.238c-0.361-0.361-0.361-0.945,0-1.306c0.361-0.361,0.946-0.361,1.306,0l1.586,1.585
				l4.124-4.124c0.36-0.36,0.945-0.36,1.306,0C310.521,396.255,310.521,396.84,310.161,397.201z"/>
		</g>
	</g>
	<g>
		<g>
			<path fill="#FFFFFF" d="M306,380.234c-3.361,0-6.095,2.735-6.095,6.095v0.125h1.847v-0.125c0-2.343,1.905-4.249,4.248-4.249
				c2.343,0,4.248,1.906,4.248,4.249v0.125h1.847v-0.125C312.095,382.969,309.361,380.234,306,380.234z"/>
		</g>
	</g>
</g>
</svg>
