<?xml version="1.0" encoding="utf-8"?>
<!-- Generator: Adobe Illustrator 17.0.0, SVG Export Plug-In . SVG Version: 6.00 Build 0)  -->
<!DOCTYPE svg PUBLIC "-//W3C//DTD SVG 1.1//EN" "http://www.w3.org/Graphics/SVG/1.1/DTD/svg11.dtd">
<svg version="1.1" id="Capa_1" xmlns="http://www.w3.org/2000/svg" xmlns:xlink="http://www.w3.org/1999/xlink" x="0px" y="0px"
	 width="46px" height="30px" viewBox="283 381 46 30" enable-background="new 283 381 46 30" xml:space="preserve">
<g>
	<g>
		<g>
			<circle fill="#FFFFFF" cx="306" cy="388" r="7"/>
		</g>
	</g>
	<g>
		<g>
			<circle fill="#FFFFFF" cx="320" cy="394" r="5"/>
		</g>
	</g>
	<g>
		<g>
			<circle fill="#FFFFFF" cx="292.142" cy="394" r="5"/>
		</g>
	</g>
	<g>
		<g>
			<path fill="#FFFFFF" d="M306,397c-7.168,0-13,5.832-13,13c0,0.552,0.448,1,1,1h24c0.552,0,1-0.448,1-1
				C319,402.832,313.168,397,306,397z"/>
		</g>
	</g>
	<g>
		<g>
			<path fill="#FFFFFF" d="M293.866,401.216c-0.612-0.13-1.234-0.216-1.866-0.216c-4.962,0-9,4.038-9,9c0,0.552,0.448,1,1,1h7.184
				c-0.112-0.314-0.184-0.648-0.184-1C291,406.718,292.072,403.688,293.866,401.216z"/>
		</g>
	</g>
	<g>
		<g>
			<path fill="#FFFFFF" d="M320,401c-0.632,0-1.254,0.086-1.866,0.216c1.794,2.472,2.866,5.502,2.866,8.784
				c0,0.352-0.072,0.686-0.184,1H328c0.552,0,1-0.448,1-1C329,405.038,324.962,401,320,401z"/>
		</g>
	</g>
</g>
</svg>
