<?xml version="1.0" encoding="utf-8"?>
<!-- Generator: Adobe Illustrator 17.0.0, SVG Export Plug-In . SVG Version: 6.00 Build 0)  -->
<!DOCTYPE svg PUBLIC "-//W3C//DTD SVG 1.1//EN" "http://www.w3.org/Graphics/SVG/1.1/DTD/svg11.dtd">
<svg version="1.1" id="Layer_1" xmlns="http://www.w3.org/2000/svg" xmlns:xlink="http://www.w3.org/1999/xlink" x="0px" y="0px"
	 width="30px" height="30px" viewBox="-6.75 -5.25 30 30" enable-background="new -6.75 -5.25 30 30" xml:space="preserve">
<g>
	<path fill-rule="evenodd" clip-rule="evenodd" fill="#DBDCDD" d="M-1.75-5.25h20c2.761,0,5,2.239,5,5v20c0,2.761-2.239,5-5,5h-20
		c-2.762,0-5-2.239-5-5v-20C-6.75-3.012-4.511-5.25-1.75-5.25z"/>
</g>
<g>
	<path fill="#848484" d="M1.618,7.038C1.325,6.74,1.031,6.457,0.757,6.155c-0.176-0.194-0.134-0.519,0.059-0.69
		c0.208-0.184,0.496-0.17,0.689,0.033C1.74,5.744,1.975,5.99,2.218,6.244C3.591,4.691,5.276,3.781,7.296,3.51
		c0-0.541,0-1.078,0-1.631c-0.067,0-0.124,0.001-0.182,0C6.693,1.871,6.357,1.581,6.315,1.152C6.29,0.905,6.297,0.649,6.331,0.403
		c0.05-0.368,0.384-0.647,0.748-0.649c0.83-0.005,1.661-0.005,2.491,0c0.402,0.002,0.741,0.329,0.773,0.757
		c0.017,0.225,0.017,0.458-0.016,0.68c-0.064,0.42-0.375,0.676-0.787,0.688C9.503,1.88,9.468,1.883,9.426,1.886
		c0,0.555,0,1.101,0,1.656c0.918,0.145,1.788,0.433,2.605,0.882c0.818,0.45,1.537,1.029,2.174,1.741
		c0.188-0.232,0.369-0.457,0.552-0.681c0.138-0.169,0.31-0.238,0.523-0.181c0.335,0.088,0.486,0.514,0.273,0.791
		c-0.228,0.296-0.468,0.582-0.71,0.881c1.401,2.185,1.781,4.548,1.03,7.062c-0.53,1.775-1.573,3.193-3.068,4.252
		c-3.016,2.135-7.042,1.911-9.814-0.556c-1.519-1.352-2.418-3.063-2.672-5.105C0.065,10.596,0.523,8.724,1.618,7.038z M8.273,5.745
		c0.591-0.003,1.164,0.093,1.721,0.281c1.413,0.478,2.53,1.359,3.366,2.606c0.508,0.757,0.853,1.575,0.809,2.52
		c-0.009,0.2,0.156,0.361,0.34,0.365c0.197,0.004,0.35-0.148,0.361-0.357c0.047-0.867-0.196-1.661-0.603-2.407
		C13.572,7.48,12.579,6.511,11.32,5.83c-1.6-0.867-3.272-1.057-5.005-0.473C4.91,5.831,3.795,6.715,2.933,7.933
		c-0.734,1.038-1.158,2.201-1.312,3.469c-0.032,0.266,0.085,0.443,0.308,0.47c0.209,0.025,0.368-0.122,0.395-0.365
		C2.47,10.179,2.95,8.991,3.792,7.969C4.959,6.552,6.445,5.785,8.273,5.745z"/>
</g>
</svg>
