<?xml version="1.0" encoding="utf-8"?>
<!-- Generator: Adobe Illustrator 17.0.0, SVG Export Plug-In . SVG Version: 6.00 Build 0)  -->
<!DOCTYPE svg PUBLIC "-//W3C//DTD SVG 1.1//EN" "http://www.w3.org/Graphics/SVG/1.1/DTD/svg11.dtd">
<svg version="1.1" id="Layer_1" xmlns="http://www.w3.org/2000/svg" xmlns:xlink="http://www.w3.org/1999/xlink" x="0px" y="0px"
	 width="30px" height="30px" viewBox="0 0 30 30" enable-background="new 0 0 30 30" xml:space="preserve">
<circle fill="#1B66E3" cx="15" cy="15" r="15"/>
<g>
	<path fill="#FFFFFF" d="M20.531,7.015H9.469c-1.38,0-2.498,1.118-2.498,2.498v10.973c0,1.38,1.118,2.498,2.498,2.498h11.063
		c1.38,0,2.498-1.118,2.498-2.498V9.513C23.029,8.134,21.911,7.015,20.531,7.015z M21.334,20.576c0,0.394-0.32,0.714-0.714,0.714
		H9.419c-0.394,0-0.714-0.32-0.714-0.714V9.513c0-0.394,0.32-0.714,0.714-0.714h11.202c0.394,0,0.714,0.32,0.714,0.714V20.576z"/>
	<rect x="8.309" y="12.368" fill="#FFFFFF" width="13.65" height="1.695"/>
	<circle fill="#FFFFFF" cx="15.922" cy="10.524" r="0.714"/>
	<circle fill="#FFFFFF" cx="13.245" cy="10.524" r="0.714"/>
	<circle fill="#FFFFFF" cx="10.569" cy="10.524" r="0.714"/>
</g>
</svg>
