<?xml version="1.0" encoding="utf-8"?>
<!-- Generator: Adobe Illustrator 17.0.0, SVG Export Plug-In . SVG Version: 6.00 Build 0)  -->
<!DOCTYPE svg PUBLIC "-//W3C//DTD SVG 1.1//EN" "http://www.w3.org/Graphics/SVG/1.1/DTD/svg11.dtd">
<svg version="1.1" id="Layer_1" xmlns="http://www.w3.org/2000/svg" xmlns:xlink="http://www.w3.org/1999/xlink" x="0px" y="0px"
	 width="30px" height="30px" viewBox="-4.75 -5.25 30 30" enable-background="new -4.75 -5.25 30 30" xml:space="preserve">
<g>
	<path fill-rule="evenodd" clip-rule="evenodd" fill="#DBDCDD" d="M0.25-5.25h20c2.761,0,5,2.239,5,5v20c0,2.761-2.239,5-5,5h-20
		c-2.761,0-5-2.239-5-5v-20C-4.75-3.011-2.511-5.25,0.25-5.25z"/>
</g>
<g>
	<path fill="#848484" d="M4.582-0.25c-0.159,0-0.308,0.065-0.414,0.171L0.432,3.657C0.307,3.783,0.25,3.933,0.25,4.082h4.332V-0.25z
		"/>
	<path fill="#848484" d="M11.837,15.885c-0.161,0.048-0.329,0.073-0.499,0.073c-0.468,0-0.909-0.182-1.24-0.512L8.696,14.05
		c-0.474-0.471-0.627-1.15-0.443-1.756c-0.56-0.298-0.933-0.886-0.933-1.554V8.76c0-0.662,0.366-1.244,0.915-1.544
		c-0.178-0.599-0.026-1.27,0.44-1.74l1.396-1.402c0.332-0.334,0.775-0.518,1.246-0.518c0.173,0,0.345,0.026,0.51,0.076
		c0.297-0.56,0.884-0.933,1.553-0.933h1.576V0.336c0.001-0.324-0.262-0.586-0.585-0.586H5.754v4.918
		c0,0.323-0.263,0.586-0.586,0.586H0.25v13.911c0,0.323,0.262,0.585,0.586,0.585h13.535c0.323,0,0.586-0.262,0.586-0.586v-2.363
		h-1.576C12.719,16.801,12.137,16.435,11.837,15.885L11.837,15.885z M5.585,16.972H2.03c-0.323,0-0.586-0.262-0.586-0.586
		c0-0.324,0.263-0.586,0.586-0.586h3.555c0.323,0,0.586,0.262,0.586,0.586C6.171,16.71,5.909,16.972,5.585,16.972z M5.585,14.628
		H2.03c-0.323,0-0.586-0.262-0.586-0.586c0-0.323,0.263-0.586,0.586-0.586h3.555c0.323,0,0.586,0.263,0.586,0.586
		C6.171,14.366,5.909,14.628,5.585,14.628z M5.585,12.285H2.03c-0.323,0-0.586-0.262-0.586-0.586c0-0.323,0.263-0.586,0.586-0.586
		h3.555c0.323,0,0.586,0.262,0.586,0.586S5.909,12.285,5.585,12.285z M5.585,9.941H2.03c-0.323,0-0.586-0.262-0.586-0.586
		c0-0.323,0.263-0.586,0.586-0.586h3.555c0.323,0,0.586,0.263,0.586,0.586C6.171,9.679,5.909,9.941,5.585,9.941z M5.585,7.597H2.03
		c-0.323,0-0.586-0.262-0.586-0.586S1.707,6.425,2.03,6.425h3.555c0.323,0,0.586,0.262,0.586,0.586S5.909,7.597,5.585,7.597z"/>
	<path fill="#848484" d="M19.729,8.178L18.486,8.04l0.779-0.977c0.186-0.234,0.167-0.57-0.045-0.781l-1.403-1.397
		c-0.211-0.21-0.548-0.228-0.781-0.041l-0.958,0.77l-0.136-1.221c-0.033-0.297-0.284-0.522-0.582-0.522h-1.98
		c-0.299,0-0.549,0.225-0.582,0.522L12.66,5.635l-0.977-0.779c-0.234-0.186-0.57-0.167-0.781,0.045L9.506,6.304
		c-0.211,0.212-0.229,0.548-0.041,0.78l0.77,0.958L9.014,8.178C8.717,8.21,8.492,8.462,8.492,8.76v1.98
		c0,0.299,0.225,0.55,0.522,0.582l1.242,0.138l-0.779,0.977c-0.186,0.234-0.167,0.57,0.045,0.78l1.403,1.397
		c0.211,0.21,0.548,0.229,0.781,0.041l0.958-0.77l0.136,1.221c0.033,0.297,0.283,0.522,0.582,0.522h1.98
		c0.299,0,0.55-0.225,0.582-0.522l0.138-1.242l0.977,0.779c0.234,0.186,0.57,0.167,0.78-0.045l1.397-1.403
		c0.211-0.212,0.229-0.548,0.042-0.78l-0.77-0.958l1.222-0.135c0.295-0.033,0.52-0.284,0.52-0.582V8.76
		C20.25,8.462,20.025,8.21,19.729,8.178L19.729,8.178z M14.371,11.953c-1.215,0-2.203-0.988-2.203-2.203s0.988-2.203,2.203-2.203
		c1.214,0,2.203,0.988,2.203,2.203S15.585,11.953,14.371,11.953z"/>
</g>
</svg>
