<?xml version="1.0" encoding="utf-8"?>
<!-- Generator: Adobe Illustrator 17.0.0, SVG Export Plug-In . SVG Version: 6.00 Build 0)  -->
<!DOCTYPE svg PUBLIC "-//W3C//DTD SVG 1.1//EN" "http://www.w3.org/Graphics/SVG/1.1/DTD/svg11.dtd">
<svg version="1.1" id="Layer_1" xmlns="http://www.w3.org/2000/svg" xmlns:xlink="http://www.w3.org/1999/xlink" x="0px" y="0px"
	 width="153.964px" height="110.324px" viewBox="0 0 153.964 110.324" enable-background="new 0 0 153.964 110.324"
	 xml:space="preserve">
<path fill="#EDF4FB" d="M147.32,110.324c-9.712,0-141.013-0.283-141.013-0.299c-0.054-0.127-16.668-20.49,4.252-41.78
	c10.366-10.549-9.519-24.215,0-35.949c16.306-20.1,32.44-8.78,45.881-14.433c2.375-0.998,4.758-2.604,7.143-5.069
	c1.343-1.386,2.814-2.598,4.39-3.645c0.242-0.161,0.486-0.318,0.732-0.471c0.943-0.585,1.921-1.114,2.929-1.59
	C72.311,6.77,73,6.475,73.703,6.204h0.001c1.114-0.431,2.259-0.802,3.428-1.116c1.66-0.446,3.37-0.778,5.113-1.003
	c0.76-0.099,1.527-0.176,2.299-0.234c15.018-1.129,31.919,5.221,40.641,14.503c1.756,1.869,9.741,11.54,3.447,24.833
	c-3.974,8.393,12.675,16.408,18.591,25.992C162.264,93.543,147.457,110.007,147.32,110.324z"/>
<g>
	<g opacity="0.8">
		<path fill="#D9E3F2" d="M117.629,53.918c-0.401,1.103-0.893,2.147-1.465,3.126c-1.373,2.35-3.204,4.326-5.334,5.854
			c-4.949,3.551-11.508,4.677-17.665,2.439c-7.324-2.662-12.028-9.339-12.529-16.643c-0.067-0.962-0.06-1.936,0.024-2.912
			c0.139-1.64,0.495-3.288,1.084-4.908c0.476-1.31,1.081-2.537,1.795-3.67c0.008-0.013,0.016-0.025,0.024-0.039
			c1.982-3.13,4.797-5.547,8.034-7.061c0.918-0.43,1.871-0.787,2.849-1.067c0.466-0.134,0.939-0.249,1.415-0.347
			c3.34-0.688,6.906-0.488,10.347,0.763c0.456,0.166,0.902,0.347,1.337,0.544c0.615,0.276,1.208,0.582,1.779,0.915
			c2.404,1.402,4.417,3.283,5.959,5.473l0.001,0c0.961,1.364,1.74,2.846,2.316,4.408c0.303,0.82,0.55,1.662,0.738,2.52
			c0.117,0.534,0.212,1.073,0.283,1.618c0.172,1.309,0.207,2.644,0.099,3.986C118.587,50.587,118.229,52.268,117.629,53.918z"/>
		<g>
			<path fill="#B1C0E2" d="M96.511,37.149c-1.128,0.874-0.829,3.212-2.782,1.894c-1.953-1.318-3.179-2.034-3.732-0.884
				c-0.554,1.15,1.177,1.78,0.722,3.032c-0.455,1.253-1.382,1.385-2.359,0.356c-0.978-1.029-1.006-2.019-2.588-1.986
				c-1.582,0.033-2.258-0.618-2.181-1.806c0.013-0.209-0.008-0.39-0.052-0.551c0.008-0.013,0.016-0.025,0.024-0.039
				c1.982-3.13,4.797-5.547,8.034-7.061c0.918-0.43,1.871-0.787,2.849-1.067c0.466-0.134,0.939-0.249,1.415-0.347
				c0.552,0.224,1.143,0.679,1.457,1.592c0.689,2.007,1.806,1.535,0.857,3.217c-0.95,1.681-0.559,2.094,0.477,2.403
				c1.036,0.309,2.23,0.743,2.067,1.562C100.557,38.282,97.639,36.275,96.511,37.149z"/>
			<path fill="#B1C0E2" d="M117.629,53.918c-0.401,1.103-0.893,2.147-1.465,3.126c-1.373,2.35-3.204,4.326-5.334,5.854
				c-0.531-0.017-1.014-0.196-1.421-0.56c-1.912-1.708,0.622-3.523,1.956-4.406c1.334-0.883-1.143-1.176-2.392-2.896
				c-1.249-1.721,1.676-4.052-0.204-4.178c-1.879-0.126-4.166-0.248-4.548-2.261c-0.383-2.014,1.594-1.599,1.248-3.295
				c-0.346-1.696,1.289-2.014,3.039-1.53c1.749,0.484,1.965-0.806,4.133-0.22c2.168,0.586,1.148,3.254,3.54,3.921
				c2.392,0.667,2.092,1.166,2.092,1.166c0.169,0.056,0.319,0.15,0.449,0.279C118.587,50.587,118.229,52.268,117.629,53.918z"/>
			<path fill="#B1C0E2" d="M118.623,44.932c-2.277,0.238-2.123-2.605-4.057-2.436c-1.949,0.17-1.115-1.216-2.08-2.648
				c-0.966-1.431-4.22-0.656-3.559-2.104c0.661-1.448,2.478-0.315,3.33-1.356c0.852-1.041,2.652-0.049,2.652-0.049
				c0.123-0.002,0.249,0.014,0.376,0.047c0,0,0-0.001,0.001,0c0.961,1.364,1.74,2.846,2.316,4.408c0.303,0.82,0.55,1.662,0.738,2.52
				C118.456,43.848,118.551,44.387,118.623,44.932z"/>
			<path fill="#B1C0E2" d="M104.191,33.861c0,0,1.546-1.095,0.092-2.112c-1.454-1.017-1.63-0.441-2.834-1.03
				c-1.204-0.589-2.049,0.202-1.494,1.602c0.555,1.401,0.577,3.71,1.821,2.935C103.02,34.482,103.154,33.602,104.191,33.861z"/>
		</g>
	</g>
	<g>
		<path fill="#7C96CD" d="M68.381,69.169l-3.262,38.785c0,0-0.342,2.351,1.407,2.355c2.875,0.007,14.312,0,14.312,0
			s-2.164-0.489-2.138-1.591c0.031-1.298,3.813-39.917,3.813-39.917L68.381,69.169z"/>
		<path fill="#96AEDA" d="M81.915,109.621c-0.566,0.002-11.637,0.02-14.437-0.016c-1.22-0.015-1.434-1.085-1.444-1.777
			c-0.005-0.332,0.037-0.577,0.037-0.577l0.085-1.008l0.216-2.569l0.191-2.27l0.245-2.917l0.207-2.462l2.318-27.559l14.131-0.367
			c0,0-1.593,16.162-2.719,27.926c-0.126,1.311-0.245,2.568-0.356,3.741c-0.036,0.375-0.07,0.741-0.104,1.097
			c-0.104,1.113-0.2,2.135-0.283,3.038c-0.044,0.476-0.084,0.918-0.121,1.323c-0.144,1.587-0.228,2.6-0.229,2.792
			c-0.001,0.112,0.009,0.217,0.028,0.314C79.91,109.565,81.702,109.621,81.915,109.621z"/>
		<polygon fill="#B1C0E2" points="34.062,48.064 42.008,79.979 43.096,84.35 46.796,99.215 115.547,99.215 101.907,48.064 		"/>
		<polygon fill="#96AEDA" points="34.062,48.064 32.961,48.431 45.332,100.326 46.796,99.215 		"/>
		<polygon fill="#7C96CD" points="45.332,100.326 113.66,100.326 115.547,99.215 46.796,99.215 		"/>
		<rect x="69.327" y="109.621" fill="#B1C0E2" width="14.794" height="0.703"/>
		<polygon fill="#5F86C4" points="80.36,100.325 80.284,100.863 66.371,103.674 66.562,101.404 66.653,100.325 		"/>
		<path opacity="0.4" fill="#5F86C4" d="M81.915,109.621c-0.566,0.002-11.637,0.02-14.437-0.016
			c-1.22-0.015-1.434-1.085-1.444-1.777l13.847-2.605c-0.144,1.587-0.228,2.6-0.229,2.792c-0.001,0.112,0.009,0.217,0.028,0.314
			C79.91,109.565,81.702,109.621,81.915,109.621z"/>
		<polygon fill="#B1C0E2" points="34.062,48.064 101.907,48.064 112.915,89.173 44.296,89.173 		"/>
		<polygon fill="#E2F4FD" points="109.715,87.392 46.192,87.392 43.922,78.349 43.043,74.85 42.685,73.423 40.352,64.13 
			40.231,63.646 38.998,58.734 38.446,56.536 37.976,54.661 36.872,50.266 99.48,50.266 100.692,54.661 101.209,56.536 
			101.815,58.734 105.806,73.214 105.806,73.215 106.145,74.441 106.302,75.011 109.058,85.008 		"/>
		<polygon fill="#6477BA" points="100.692,54.662 37.976,54.662 36.873,50.266 99.481,50.266 		"/>
		<g>
			<path fill="#EAF1FA" d="M39.463,52.252c-0.076-0.303,0.109-0.549,0.412-0.549c0.303,0,0.611,0.246,0.686,0.549
				c0.076,0.303-0.109,0.549-0.412,0.549C39.846,52.802,39.538,52.556,39.463,52.252z"/>
			<path fill="#EAF1FA" d="M41.288,52.252c-0.076-0.303,0.109-0.549,0.412-0.549c0.303,0,0.611,0.246,0.686,0.549
				c0.076,0.303-0.109,0.549-0.412,0.549C41.671,52.802,41.364,52.556,41.288,52.252z"/>
			<path fill="#EAF1FA" d="M43.254,52.252c-0.076-0.303,0.109-0.549,0.412-0.549c0.303,0,0.611,0.246,0.686,0.549
				c0.076,0.303-0.109,0.549-0.412,0.549C43.637,52.802,43.33,52.556,43.254,52.252z"/>
		</g>
	</g>
	<path fill="#B1C0E2" d="M87.026,24.713c2.568-3.015,6.527-9.07,9.192-12.171c0.549-0.638,0.093-1.623-0.749-1.623h-4.85
		l4.575-10.345c0.195-0.442-0.407-0.794-0.696-0.407L83.436,14.973c-0.323,0.432,0.03,1.04,0.565,0.974l5.491-0.676l-3.267,8.974
		C86.046,24.739,86.686,25.113,87.026,24.713z"/>
	<path fill="#B1C0E2" d="M64.19,43.074c0.578-2.963,0.942-8.466,1.553-11.522c0.126-0.629-0.546-1.113-1.105-0.798l-3.222,1.814
		l-0.831-8.583c-0.035-0.366-0.567-0.375-0.614-0.01l-1.809,13.972c-0.053,0.408,0.409,0.679,0.74,0.435l3.394-2.503l1.187,7.183
		C63.548,43.458,64.113,43.467,64.19,43.074z"/>
</g>
</svg>
