<?xml version="1.0" encoding="utf-8"?>
<!-- Generator: Adobe Illustrator 17.0.0, SVG Export Plug-In . SVG Version: 6.00 Build 0)  -->
<!DOCTYPE svg PUBLIC "-//W3C//DTD SVG 1.1//EN" "http://www.w3.org/Graphics/SVG/1.1/DTD/svg11.dtd">
<svg version="1.1" id="Layer_1" xmlns="http://www.w3.org/2000/svg" xmlns:xlink="http://www.w3.org/1999/xlink" x="0px" y="0px"
	 width="30px" height="30px" viewBox="-5 -5.25 30 30" enable-background="new -5 -5.25 30 30" xml:space="preserve">
<g>
	<path fill-rule="evenodd" clip-rule="evenodd" fill="#DBDCDD" d="M0-5.25h20c2.761,0,5,2.239,5,5v20c0,2.761-2.239,5-5,5H0
		c-2.761,0-5-2.239-5-5v-20C-5-3.011-2.761-5.25,0-5.25z"/>
</g>
<g>
	<path fill="#848484" d="M10.976-0.25c1.147,0.262,2.123,0.819,2.887,1.74c0.964,1.163,1.332,2.524,1.326,4.022
		c-0.001,0.301,0.087,0.606,0.16,0.902C15.634,7.57,15.3,8.57,14.637,9.499c-0.158,0.222-0.321,0.454-0.415,0.708
		c-0.466,1.265-1.287,2.234-2.398,2.937c-1.207,0.763-2.454,0.715-3.672,0.015c-1.205-0.692-1.99-1.747-2.45-3.066
		C5.649,9.941,5.593,9.768,5.484,9.662C4.816,9.008,4.619,8.16,4.505,7.275c-0.019-0.147-0.052-0.33,0.012-0.444
		c0.434-0.771,0.19-1.629,0.332-2.436c0.423-2.4,1.666-4.035,4.087-4.588C8.964-0.199,8.987-0.23,9.013-0.25
		C9.667-0.25,10.321-0.25,10.976-0.25z M6.19,7.569c-0.078-0.224-0.118-0.404-0.203-0.56c-0.076-0.139-0.2-0.251-0.303-0.374
		c-0.079,0.144-0.245,0.306-0.221,0.43C5.566,7.595,5.57,8.28,5.899,8.602c0.544,0.533,0.635,1.219,0.963,1.814
		c0.222,0.404,0.466,0.806,0.761,1.155c1.222,1.448,2.893,1.589,4.335,0.371c0.75-0.634,1.207-1.465,1.488-2.411
		c0.062-0.209,0.213-0.415,0.375-0.564c0.462-0.423,0.575-0.993,0.672-1.564c0.056-0.33,0.126-0.708-0.342-0.849
		c-0.036-0.011-0.028-0.172-0.047-0.302c-0.135,0.148-0.242,0.264-0.439,0.479C12.901,6.19,12.143,5.653,11.363,5.1
		c0.247,0.487,0.49,0.964,0.773,1.523c-0.262-0.062-0.433-0.094-0.599-0.144c-1.244-0.372-2.31-1.066-3.288-1.915
		C7.725,4.11,7.396,4.118,6.97,4.688C6.748,4.984,6.567,5.344,6.48,5.704C6.338,6.294,6.288,6.907,6.19,7.569z"/>
	<path fill="#848484" d="M6.728,13.225c0.716,1.216,1.452,2.466,2.242,3.807c0.117-0.494,0.232-0.884,0.291-1.283
		c0.019-0.123-0.106-0.273-0.175-0.405c-0.176-0.335-0.358-0.667-0.57-1.062c1.02,0,1.889,0,2.798,0
		c0.069,0.365-0.064,0.722-0.349,0.977c-0.248,0.222-0.303,0.422-0.2,0.729c0.103,0.306,0.152,0.63,0.247,1.047
		c0.788-1.34,1.524-2.59,2.237-3.802c1.156,0.3,2.283,0.559,3.391,0.886c1.502,0.445,2.338,1.575,2.804,3.025
		c0.186,0.579-0.079,1.188-0.734,1.459c-0.764,0.316-1.57,0.581-2.382,0.714c-2.967,0.484-5.963,0.505-8.954,0.342
		c-1.578-0.086-3.151-0.316-4.717-0.545c-0.503-0.074-1.004-0.301-1.46-0.548c-0.675-0.365-0.848-0.972-0.572-1.696
		c0.623-1.631,1.735-2.642,3.465-2.955C4.968,13.757,5.823,13.467,6.728,13.225z"/>
</g>
</svg>
