<?xml version="1.0" encoding="utf-8"?>
<!-- Generator: Adobe Illustrator 17.0.0, SVG Export Plug-In . SVG Version: 6.00 Build 0)  -->
<!DOCTYPE svg PUBLIC "-//W3C//DTD SVG 1.1//EN" "http://www.w3.org/Graphics/SVG/1.1/DTD/svg11.dtd">
<svg version="1.1" id="Layer_1" xmlns="http://www.w3.org/2000/svg" xmlns:xlink="http://www.w3.org/1999/xlink" x="0px" y="0px"
	 width="30px" height="30px" viewBox="-5.5 -7.5 30 30" enable-background="new -5.5 -7.5 30 30" xml:space="preserve">
<g>
	<path fill-rule="evenodd" clip-rule="evenodd" fill="#DBDCDD" d="M-0.5-7.25h20c2.761,0,5,2.239,5,5v20c0,2.761-2.239,5-5,5h-20
		c-2.761,0-5-2.239-5-5v-20C-5.5-5.011-3.261-7.25-0.5-7.25z"/>
</g>
<g>
	<path fill="#848484" d="M18.443-0.25H15.66v3.229H19V0.288C19-0.009,18.751-0.25,18.443-0.25z"/>
	<path fill="#848484" d="M14.547-0.25H0.557C0.249-0.25,0-0.009,0,0.288v2.691h14.547V-0.25z"/>
	<path fill="#848484" d="M4.082,7.75h3.34v3.229h-3.34V7.75z"/>
	<path fill="#848484" d="M0,15.212c0,0.297,0.249,0.538,0.557,0.538h17.887c0.307,0,0.556-0.241,0.556-0.538V4.055H0V15.212z
		 M13.396,6.674h2.078c0.307,0,0.557,0.241,0.557,0.538S15.782,7.75,15.475,7.75h-2.078c-0.307,0-0.557-0.241-0.557-0.538
		S13.089,6.674,13.396,6.674z M12.283,8.826h3.191c0.307,0,0.557,0.241,0.557,0.538s-0.249,0.538-0.557,0.538h-3.191
		c-0.307,0-0.557-0.241-0.557-0.538S11.976,8.826,12.283,8.826z M12.283,10.979h3.191c0.307,0,0.557,0.241,0.557,0.538
		s-0.249,0.538-0.557,0.538h-3.191c-0.307,0-0.557-0.241-0.557-0.538S11.976,10.979,12.283,10.979z M2.969,7.212
		c0-0.297,0.249-0.538,0.557-0.538h4.453c0.307,0,0.557,0.241,0.557,0.538v4.305c0,0.297-0.249,0.538-0.557,0.538H3.525
		c-0.307,0-0.557-0.241-0.557-0.538L2.969,7.212L2.969,7.212z"/>
</g>
</svg>
