<?xml version="1.0" encoding="utf-8"?>
<!-- Generator: Adobe Illustrator 17.0.0, SVG Export Plug-In . SVG Version: 6.00 Build 0)  -->
<!DOCTYPE svg PUBLIC "-//W3C//DTD SVG 1.1//EN" "http://www.w3.org/Graphics/SVG/1.1/DTD/svg11.dtd">
<svg version="1.1" id="Layer_1" xmlns="http://www.w3.org/2000/svg" xmlns:xlink="http://www.w3.org/1999/xlink" x="0px" y="0px"
	 width="440px" height="341.226px" viewBox="0 0 440 341.226" enable-background="new 0 0 440 341.226" xml:space="preserve">
<g>
	<path opacity="0.25" fill="#3079BE" d="M433.906,309.267c0-10.524-74.033-19.056-165.358-19.056
		c-18.018,0-35.359,0.333-51.595,0.947c-16.236-0.614-33.577-0.947-51.595-0.947C74.033,290.211,0,298.742,0,309.267
		c0,5.552,20.611,10.549,53.491,14.032c5.072,9.999,77.027,17.927,165.061,17.927c89.103,0,161.733-8.122,165.214-18.292
		C414.687,319.471,433.906,314.628,433.906,309.267z"/>
	<path opacity="0.17" fill="#0DAAB9" d="M162.883,68.629c19.737,3.852,40.148,0.423,57.56-9.638
		c22.342-12.91,57.888-39.003,103.073-34.945c97.206,8.73,146.297,85.165,97.206,171.839
		C374.24,277.954,221.32,267.39,221.32,267.39S64.197,287.738,29.704,201.557C7.255,145.468,37.691,44.193,162.883,68.629z"/>
	<g>
		<g>
			<path fill="#F47B20" d="M152.287,235.09h-83.88c0,0-2.557,65.052,20.459,86.818h55.238c0,0,26.454-8.649,26.454-86.818H152.287z"
				/>
			<ellipse fill="#DB6D26" cx="119.44" cy="235.09" rx="51.076" ry="6.871"/>
			<path fill="#AA5826" d="M75.214,238.525c8.832,2.053,25.324,3.436,44.226,3.436c18.902,0,35.393-1.383,44.226-3.436
				c-8.832-2.053-25.324-3.436-44.226-3.436C100.538,235.09,84.046,236.472,75.214,238.525z"/>
			<path opacity="0.2" fill="#F47B20" d="M168.353,235.09c-7.989,43.059-37.296,74.824-71.906,74.824H80.323
				c2.36,4.696,5.176,8.81,8.542,11.993h55.238c0,0,26.454-8.649,26.454-86.818H168.353z"/>
		</g>
		<g>
			<g>
				<path fill="#09787D" d="M85.697,11.958c0,0,0.684,0.625,1.852,1.91c1.163,1.287,2.815,3.234,4.638,5.919
					c1.813,2.683,3.814,6.121,5.365,10.388c1.575,4.243,2.523,9.41,2.131,15.009c-0.329,5.607-1.871,11.485-3.06,17.698
					c-1.218,6.205-1.865,12.882-1.018,19.687c0.77,6.791,3.381,13.473,6.279,20.103c2.923,6.638,6.18,13.303,9.039,20.179
					c2.871,6.867,5.338,13.959,6.986,21.166c1.673,7.193,2.467,14.52,2.421,21.564c-0.013,7.049-0.686,13.801-1.365,20.134
					c-0.681,6.335-1.365,12.277-1.649,17.742c-0.305,5.463-0.243,10.448,0.199,14.809c0.427,4.363,1.179,8.099,1.99,11.117
					c0.374,1.518,0.84,2.836,1.192,3.996c0.418,1.14,0.746,2.118,1.057,2.895c0.635,1.549,0.973,2.375,0.973,2.375l0.039,0.096
					c0.51,1.244-0.086,2.666-1.33,3.175c-1.244,0.51-2.666-0.086-3.175-1.33c-0.005-0.011-0.014-0.034-0.018-0.046
					c0,0-0.345-0.893-0.992-2.568c-0.317-0.84-0.65-1.898-1.071-3.129c-0.356-1.252-0.822-2.676-1.192-4.311
					c-0.804-3.25-1.524-7.265-1.882-11.89c-0.373-4.623-0.326-9.847,0.102-15.458c0.408-5.618,1.225-11.616,2.031-17.912
					c0.805-6.295,1.596-12.902,1.746-19.736c0.181-6.833-0.436-13.867-1.916-20.903c-1.456-7.036-3.722-14.026-6.418-20.868
					c-2.684-6.852-5.791-13.561-8.602-20.317c-2.78-6.74-5.33-13.645-5.987-20.717c-0.726-7.016,0.088-13.851,1.445-20.078
					c1.332-6.242,2.975-12.03,3.411-17.53c0.498-5.489-0.323-10.571-1.794-14.804c-1.446-4.251-3.363-7.712-5.114-10.421
					c-1.761-2.712-3.369-4.69-4.504-5.999C86.368,12.597,85.697,11.958,85.697,11.958z"/>
			</g>
			<g>
				<path fill="#09787D" d="M130.969,98.408c0,0-0.106,2.182-1.063,5.317c-0.228,0.785-0.536,1.617-0.865,2.498
					c-0.369,0.863-0.724,1.793-1.208,2.7c-0.435,0.934-0.97,1.852-1.528,2.781c-0.525,0.951-1.213,1.813-1.821,2.736
					c-0.661,0.881-1.376,1.724-2.058,2.576c-0.75,0.792-1.487,1.571-2.201,2.325c-0.773,0.696-1.52,1.369-2.228,2.007
					c-0.709,0.641-1.459,1.143-2.113,1.663c-0.665,0.503-1.262,0.988-1.845,1.333c-0.57,0.367-1.067,0.686-1.476,0.949
					c-0.821,0.527-1.29,0.828-1.29,0.828l-1.377-2.576c0,0,0.464-0.246,1.275-0.676c0.407-0.215,0.901-0.477,1.468-0.777
					c0.582-0.279,1.177-0.688,1.844-1.109c0.655-0.438,1.413-0.854,2.132-1.403c0.723-0.548,1.485-1.126,2.274-1.723
					c0.74-0.66,1.504-1.341,2.28-2.034c0.714-0.755,1.468-1.504,2.174-2.295c0.653-0.832,1.393-1.61,1.973-2.482
					c0.614-0.85,1.208-1.696,1.705-2.566c0.546-0.843,0.966-1.716,1.399-2.53c0.392-0.831,0.765-1.623,1.054-2.374
					c0.298-0.749,0.55-1.445,0.739-2.074c0.212-0.622,0.338-1.181,0.463-1.637C130.897,98.946,130.969,98.408,130.969,98.408z"/>
			</g>
			<g>
				<path fill="#09787D" d="M74.718,103.378c0,0,0.303,0.738,0.958,1.963c0.348,0.602,0.736,1.35,1.27,2.156
					c0.262,0.405,0.54,0.836,0.833,1.29c0.315,0.439,0.646,0.901,0.992,1.383c0.691,0.961,1.516,1.948,2.385,2.984
					c0.92,0.996,1.843,2.082,2.934,3.077c0.537,0.504,1.052,1.046,1.627,1.538c0.579,0.486,1.165,0.978,1.756,1.475
					c0.297,0.245,0.586,0.501,0.891,0.74l0.946,0.684l1.895,1.371c1.3,0.862,2.652,1.646,3.949,2.454
					c1.363,0.695,2.704,1.38,4.003,2.042c1.345,0.556,2.644,1.093,3.877,1.603c1.227,0.513,2.461,0.821,3.555,1.2
					c1.107,0.35,2.105,0.71,3.037,0.89c0.918,0.215,1.719,0.403,2.379,0.557c1.315,0.309,2.066,0.486,2.066,0.486l-0.997,4.178
					c0,0-0.78-0.253-2.144-0.696c-0.68-0.222-1.506-0.491-2.454-0.799c-0.957-0.273-1.987-0.741-3.121-1.207
					c-1.123-0.496-2.377-0.93-3.625-1.577c-1.246-0.643-2.559-1.322-3.918-2.023c-1.297-0.806-2.637-1.639-3.999-2.486
					c-1.288-0.957-2.619-1.889-3.889-2.896l-1.842-1.584l-0.914-0.787c-0.294-0.273-0.571-0.563-0.856-0.841
					c-0.564-0.561-1.123-1.118-1.675-1.668c-0.546-0.554-1.031-1.157-1.535-1.718c-1.026-1.11-1.879-2.3-2.725-3.39
					c-0.795-1.129-1.545-2.198-2.162-3.23c-0.308-0.516-0.603-1.01-0.883-1.48c-0.257-0.483-0.501-0.941-0.73-1.371
					c-0.467-0.854-0.795-1.641-1.091-2.272C74.957,104.138,74.718,103.378,74.718,103.378z"/>
			</g>
			<g>
				<path fill="#0DAAB9" d="M77.431,0c0,0,30.538,3.326,35.376,33.21c1.815,11.207-1.195,18.862-4.333,23.882
					c-6.1,9.759-20.491,9.261-26.47-0.573c-1.613-2.654-2.983-5.95-3.795-10.031C73.497,22.804,85.992,19.288,77.431,0z"/>
				<path opacity="0.31" fill="#0DAAB9" d="M112.807,33.21C107.968,3.326,77.431,0,77.431,0S88.48,7.625,95.048,24.933
					c4.814,12.686,2.565,30.351,0.982,39.217c4.825-0.126,9.561-2.444,12.445-7.058C111.612,52.072,114.622,44.417,112.807,33.21z"
					/>
				<g>
					<path fill="#A9DEE9" d="M77.431,0c0,0,0.232,0.15,0.649,0.456c0.414,0.309,1.029,0.759,1.757,1.395
						c0.74,0.624,1.603,1.421,2.565,2.367c0.482,0.472,0.968,1,1.495,1.544c0.506,0.563,1.029,1.163,1.568,1.796
						c1.054,1.284,2.162,2.706,3.241,4.278c1.078,1.571,2.166,3.267,3.143,5.104c0.49,0.918,1.005,1.843,1.445,2.82
						c0.458,0.968,0.941,1.94,1.338,2.958c0.405,0.997,0.878,2.038,1.204,3.081c0.174,0.522,0.366,1.034,0.527,1.566l0.438,1.625
						c0.314,1.084,0.457,2.183,0.692,3.269c0.165,1.095,0.336,2.186,0.456,3.272c0.225,2.175,0.377,4.321,0.399,6.399
						c0.063,2.078-0.021,4.086-0.124,5.984c-0.106,1.899-0.266,3.689-0.439,5.338c-0.173,1.649-0.381,3.154-0.589,4.484
						c-0.206,1.33-0.399,2.487-0.576,3.436c-0.167,0.951-0.325,1.693-0.43,2.2c-0.105,0.506-0.16,0.776-0.16,0.776
						s0.146-1.093,0.403-3.005c0.255-1.912,0.548-4.651,0.806-7.941c0.122-1.645,0.227-3.43,0.275-5.317
						c0.045-1.888,0.055-3.879-0.011-5.933c-0.042-2.056-0.214-4.174-0.457-6.315c-0.128-1.069-0.308-2.14-0.48-3.214
						c-0.24-1.057-0.397-2.151-0.705-3.185l-0.405-1.572c-0.152-0.523-0.341-1.045-0.509-1.566c-0.32-1.059-0.751-2.015-1.151-3.033
						c-0.382-1.009-0.849-1.972-1.291-2.931c-0.424-0.969-0.924-1.886-1.398-2.796c-0.961-1.814-1.968-3.528-2.989-5.111
						c-1.019-1.585-2.072-3.025-3.077-4.328c-1.027-1.286-1.997-2.444-2.9-3.433c-0.907-0.985-1.726-1.82-2.43-2.476
						C78.313,0.666,77.431,0,77.431,0z"/>
				</g>
				<g>
					<path fill="#A9DEE9" d="M94.232,9.268c0,0,0.662,1.128,1.403,2.944c0.37,0.907,0.767,1.983,1.109,3.162
						c0.186,0.586,0.316,1.208,0.483,1.833c0.118,0.635,0.269,1.276,0.358,1.928c0.076,0.653,0.197,1.304,0.214,1.954
						c0.041,0.648,0.087,1.288,0.054,1.909c-0.006,0.621-0.02,1.222-0.103,1.788c-0.069,0.567-0.1,1.109-0.227,1.594
						c-0.104,0.49-0.2,0.939-0.285,1.337c-0.126,0.388-0.237,0.725-0.327,1.004c-0.184,0.557-0.29,0.876-0.29,0.876l-0.897-0.377
						c0,0,0.113-0.296,0.31-0.813c0.099-0.26,0.218-0.575,0.356-0.936c0.098-0.375,0.209-0.798,0.33-1.259
						c0.144-0.458,0.196-0.975,0.289-1.517c0.106-0.54,0.146-1.119,0.18-1.72c0.061-0.6,0.045-1.222,0.035-1.856
						c0.014-0.635-0.076-1.276-0.12-1.92c-0.057-0.643-0.176-1.28-0.263-1.911c-0.135-0.622-0.235-1.244-0.392-1.831
						c-0.284-1.183-0.628-2.268-0.954-3.188C94.841,10.426,94.232,9.268,94.232,9.268z"/>
				</g>
				<g>
					<path fill="#A9DEE9" d="M104.469,19.201c0,0,0.133,1.301,0.053,3.261c-0.041,0.979-0.127,2.122-0.305,3.337
						c-0.074,0.61-0.214,1.23-0.323,1.868c-0.156,0.626-0.286,1.272-0.476,1.902c-0.203,0.626-0.363,1.267-0.618,1.866
						c-0.232,0.607-0.456,1.207-0.744,1.758c-0.264,0.562-0.526,1.103-0.837,1.584c-0.298,0.487-0.552,0.967-0.869,1.356
						c-0.299,0.402-0.572,0.771-0.815,1.097c-0.276,0.3-0.517,0.562-0.715,0.777c-0.399,0.43-0.627,0.676-0.627,0.676l-0.66-0.716
						c0,0,0.225-0.222,0.62-0.611c0.198-0.195,0.438-0.432,0.713-0.704c0.245-0.3,0.522-0.639,0.823-1.008
						c0.321-0.356,0.584-0.806,0.893-1.26c0.321-0.447,0.598-0.958,0.879-1.49c0.305-0.52,0.549-1.093,0.803-1.674
						c0.276-0.572,0.461-1.192,0.689-1.796c0.215-0.609,0.372-1.237,0.555-1.848c0.135-0.622,0.303-1.229,0.404-1.829
						c0.233-1.194,0.371-2.324,0.457-3.296C104.541,20.507,104.469,19.201,104.469,19.201z"/>
				</g>
				<g>
					<path fill="#A9DEE9" d="M87.091,30.024c0,0,0.262,1.282,0.921,3.12c0.329,0.918,0.75,1.976,1.278,3.072
						c0.25,0.554,0.566,1.099,0.855,1.666c0.332,0.544,0.643,1.112,1.006,1.646c0.374,0.527,0.71,1.079,1.122,1.562
						c0.393,0.497,0.775,0.99,1.201,1.416c0.407,0.444,0.804,0.867,1.228,1.218c0.414,0.361,0.782,0.729,1.183,0.992
						c0.386,0.281,0.739,0.538,1.052,0.767c0.335,0.193,0.627,0.361,0.868,0.5c0.48,0.276,0.755,0.434,0.755,0.434l-0.456,0.86
						c0,0-0.283-0.18-0.778-0.495c-0.246-0.158-0.545-0.35-0.889-0.57c-0.318-0.254-0.676-0.541-1.067-0.855
						c-0.405-0.296-0.773-0.696-1.184-1.091c-0.423-0.386-0.813-0.843-1.211-1.32c-0.419-0.46-0.788-0.984-1.166-1.512
						c-0.398-0.514-0.716-1.095-1.071-1.648c-0.344-0.561-0.633-1.153-0.943-1.719c-0.266-0.589-0.56-1.153-0.786-1.725
						c-0.481-1.13-0.854-2.214-1.142-3.151C87.293,31.317,87.091,30.024,87.091,30.024z"/>
				</g>
				<g>
					<path fill="#A9DEE9" d="M85.526,17.214c0,0,0.298,1.274,1.009,3.093c0.355,0.908,0.806,1.954,1.365,3.034
						c0.266,0.547,0.597,1.082,0.902,1.641c0.347,0.534,0.674,1.093,1.052,1.617c0.388,0.516,0.74,1.059,1.166,1.53
						c0.407,0.486,0.802,0.967,1.241,1.381c0.419,0.432,0.828,0.844,1.262,1.183c0.424,0.349,0.802,0.706,1.211,0.958
						c0.393,0.27,0.754,0.517,1.074,0.736c0.341,0.183,0.637,0.343,0.882,0.475c0.488,0.262,0.767,0.412,0.767,0.412l-0.432,0.873
						c0,0-0.288-0.172-0.792-0.473c-0.251-0.151-0.555-0.334-0.904-0.545c-0.325-0.245-0.691-0.522-1.09-0.824
						c-0.413-0.284-0.792-0.674-1.215-1.057c-0.433-0.374-0.837-0.819-1.248-1.285c-0.431-0.448-0.815-0.961-1.209-1.478
						c-0.413-0.503-0.747-1.074-1.117-1.617c-0.359-0.551-0.666-1.134-0.991-1.692c-0.283-0.581-0.592-1.137-0.835-1.702
						c-0.513-1.116-0.917-2.189-1.231-3.117C85.764,18.5,85.526,17.214,85.526,17.214z"/>
				</g>
				<g>
					<path fill="#A9DEE9" d="M109.668,33.994c0,0-0.27,1.28-0.945,3.122c-0.337,0.92-0.768,1.982-1.309,3.085
						c-0.257,0.559-0.58,1.106-0.877,1.68c-0.34,0.549-0.66,1.124-1.034,1.666c-0.384,0.534-0.732,1.096-1.158,1.589
						c-0.406,0.507-0.803,1.01-1.245,1.447c-0.423,0.455-0.838,0.89-1.28,1.253c-0.432,0.372-0.821,0.753-1.241,1.026
						c-0.407,0.292-0.78,0.559-1.111,0.796c-0.354,0.201-0.663,0.377-0.918,0.522c-0.511,0.288-0.804,0.452-0.804,0.452l-0.41-0.883
						c0,0,0.283-0.143,0.777-0.392c0.248-0.125,0.548-0.278,0.893-0.453c0.325-0.211,0.692-0.449,1.092-0.709
						c0.415-0.241,0.802-0.589,1.235-0.927c0.442-0.328,0.862-0.729,1.291-1.151c0.449-0.402,0.856-0.874,1.275-1.349
						c0.438-0.46,0.803-0.994,1.204-1.5c0.391-0.514,0.732-1.065,1.092-1.59c0.319-0.551,0.664-1.078,0.943-1.618
						c0.586-1.066,1.063-2.1,1.441-2.999C109.338,35.26,109.668,33.994,109.668,33.994z"/>
				</g>
			</g>
			<g>
				<path fill="#0DAAB9" d="M39.273,54.694c0,0-19.661,32.727,6.282,59.979c9.729,10.219,19.569,12.995,26.896,13.662
					c14.245,1.297,24.569-13.322,19.329-26.631c-1.414-3.591-3.648-7.425-7.077-11.296C64.802,67.941,51.93,77.666,39.273,54.694z"
					/>
				<path opacity="0.31" fill="#0DAAB9" d="M45.555,114.673c-25.944-27.252-6.282-59.979-6.282-59.979s-0.757,16.668,11.438,36.179
					c8.939,14.301,28.114,25.352,38.081,30.449c-3.752,4.681-9.606,7.627-16.34,7.014C65.124,127.668,55.284,124.893,45.555,114.673
					z"/>
				<g>
					<path fill="#A9DEE9" d="M39.273,54.694c0,0-0.004,1.374,0.257,3.754c0.12,1.19,0.331,2.629,0.625,4.267
						c0.145,0.819,0.345,1.683,0.53,2.597c0.219,0.906,0.449,1.86,0.689,2.854c0.534,1.975,1.168,4.099,1.971,6.299
						c0.8,2.201,1.739,4.485,2.813,6.8c0.545,1.154,1.077,2.338,1.717,3.486c0.618,1.159,1.22,2.344,1.931,3.481
						c0.343,0.575,0.688,1.152,1.034,1.731l0.259,0.435c0.04,0.064,0.095,0.164,0.122,0.198l0.144,0.211l0.578,0.844
						c0.39,0.558,0.764,1.138,1.168,1.681l1.251,1.583c0.792,1.082,1.757,2.06,2.623,3.092c0.934,0.978,1.859,1.96,2.82,2.891
						c1.936,1.849,3.903,3.611,5.907,5.198c0.982,0.818,1.991,1.568,2.966,2.32c0.965,0.765,1.952,1.458,2.899,2.151
						c1.905,1.371,3.75,2.609,5.47,3.725c3.45,2.217,6.383,3.986,8.466,5.171c2.086,1.184,3.278,1.86,3.278,1.86
						s-0.309-0.148-0.889-0.425c-0.58-0.277-1.434-0.678-2.501-1.228c-1.073-0.539-2.363-1.218-3.834-2.013
						c-1.473-0.793-3.119-1.719-4.881-2.787c-1.762-1.068-3.654-2.255-5.613-3.577c-1.956-1.325-4.007-2.751-6.016-4.375
						c-2.04-1.583-4.051-3.347-6.035-5.204c-0.986-0.935-1.937-1.924-2.897-2.911l-1.378-1.546
						c-0.468-0.507-0.918-1.036-1.338-1.596l-1.279-1.655c-0.406-0.559-0.769-1.134-1.155-1.698l-0.57-0.849l-0.142-0.212
						c-0.071-0.104-0.094-0.156-0.144-0.237l-0.259-0.443c-0.345-0.591-0.688-1.179-1.031-1.766
						c-0.709-1.159-1.308-2.367-1.923-3.548c-0.637-1.17-1.165-2.375-1.705-3.55c-1.084-2.348-1.946-4.7-2.69-6.948
						c-0.745-2.249-1.32-4.415-1.799-6.423c-0.221-1.009-0.422-1.978-0.599-2.902c-0.141-0.931-0.299-1.809-0.404-2.641
						c-0.214-1.663-0.354-3.117-0.416-4.318c-0.082-1.199-0.066-2.145-0.06-2.788C39.247,55.036,39.273,54.694,39.273,54.694z"/>
				</g>
				<g>
					<path fill="#A9DEE9" d="M35.818,78.291c0,0,0.689,1.473,2.021,3.502c0.665,1.013,1.481,2.17,2.438,3.34
						c0.463,0.597,1.004,1.163,1.518,1.764c0.559,0.561,1.1,1.157,1.694,1.697c0.605,0.528,1.171,1.098,1.81,1.561
						c0.62,0.487,1.224,0.971,1.863,1.361c0.62,0.418,1.223,0.814,1.838,1.115c0.605,0.316,1.157,0.653,1.718,0.854
						c0.548,0.227,1.05,0.435,1.495,0.62c0.461,0.136,0.863,0.254,1.194,0.351c0.661,0.194,1.038,0.304,1.038,0.304l-0.301,1.172
						c0,0-0.394-0.135-1.084-0.371c-0.344-0.119-0.761-0.264-1.24-0.43c-0.458-0.215-0.974-0.458-1.537-0.722
						c-0.576-0.239-1.136-0.616-1.749-0.974c-0.623-0.343-1.228-0.782-1.848-1.242c-0.64-0.434-1.238-0.96-1.849-1.488
						c-0.631-0.506-1.184-1.114-1.773-1.68c-0.578-0.578-1.1-1.209-1.639-1.803c-0.493-0.634-1.012-1.231-1.451-1.855
						c-0.91-1.226-1.676-2.427-2.297-3.475C36.437,79.794,35.818,78.291,35.818,78.291z"/>
				</g>
				<g>
					<path fill="#A9DEE9" d="M37.956,95.89c0,0,1.239,1.053,3.293,2.346c1.026,0.645,2.249,1.358,3.606,2.025
						c0.669,0.351,1.396,0.641,2.114,0.974c0.742,0.278,1.482,0.595,2.246,0.839c0.769,0.229,1.522,0.512,2.295,0.668
						c0.766,0.185,1.517,0.374,2.26,0.464c0.738,0.122,1.451,0.232,2.135,0.25c0.682,0.036,1.324,0.113,1.918,0.063
						c0.593-0.021,1.136-0.04,1.617-0.057c0.476-0.068,0.891-0.128,1.232-0.177c0.681-0.098,1.071-0.155,1.071-0.155l0.213,1.191
						c0,0-0.415,0.041-1.141,0.113c-0.362,0.034-0.802,0.076-1.306,0.124c-0.506-0.005-1.076-0.012-1.699-0.018
						c-0.623,0.022-1.289-0.088-1.995-0.159c-0.709-0.053-1.442-0.201-2.197-0.362c-0.762-0.129-1.525-0.358-2.3-0.585
						c-0.784-0.198-1.54-0.522-2.311-0.791c-0.766-0.285-1.503-0.642-2.24-0.959c-0.712-0.372-1.432-0.699-2.091-1.084
						c-1.337-0.737-2.533-1.511-3.533-2.206C39.144,97,37.956,95.89,37.956,95.89z"/>
				</g>
				<g>
					<path fill="#A9DEE9" d="M61.731,86.824c0,0,1.128,1.171,2.552,3.15c0.711,0.989,1.503,2.173,2.26,3.499
						c0.396,0.654,0.734,1.368,1.116,2.074c0.328,0.732,0.696,1.464,0.993,2.225c0.281,0.767,0.617,1.518,0.827,2.299
						c0.238,0.772,0.479,1.531,0.62,2.291c0.173,0.752,0.331,1.483,0.396,2.191c0.081,0.705,0.202,1.369,0.19,1.992
						c0.016,0.622,0.031,1.193,0.044,1.698c-0.04,0.505-0.075,0.945-0.104,1.308c-0.061,0.727-0.095,1.142-0.095,1.142l-1.194-0.195
						c0,0,0.05-0.39,0.138-1.073c0.044-0.342,0.097-0.758,0.158-1.235c0.01-0.482,0.02-1.025,0.032-1.618
						c0.041-0.595-0.046-1.236-0.093-1.917c-0.029-0.684-0.149-1.395-0.283-2.131c-0.101-0.742-0.301-1.49-0.498-2.253
						c-0.168-0.771-0.463-1.519-0.703-2.285c-0.256-0.761-0.585-1.496-0.874-2.233c-0.344-0.712-0.645-1.435-1.006-2.099
						c-0.688-1.347-1.419-2.558-2.08-3.574C62.803,88.047,61.731,86.824,61.731,86.824z"/>
				</g>
				<g>
					<path fill="#A9DEE9" d="M50.227,75.647c0,0,1.094,1.202,2.461,3.221c0.683,1.009,1.441,2.214,2.16,3.561
						c0.377,0.665,0.694,1.388,1.057,2.105c0.307,0.741,0.654,1.483,0.929,2.253c0.26,0.775,0.574,1.535,0.761,2.321
						c0.216,0.778,0.436,1.544,0.555,2.307c0.152,0.757,0.289,1.491,0.333,2.201c0.061,0.707,0.163,1.374,0.133,1.997
						c-0.001,0.622-0.003,1.193-0.004,1.699c-0.054,0.504-0.102,0.943-0.141,1.305c-0.081,0.725-0.128,1.139-0.128,1.139
						l-1.188-0.229c0,0,0.061-0.389,0.169-1.069c0.053-0.341,0.118-0.755,0.193-1.23c0.023-0.481,0.05-1.024,0.078-1.616
						c0.058-0.594-0.011-1.237-0.038-1.919c-0.009-0.685-0.11-1.399-0.222-2.138c-0.08-0.745-0.259-1.498-0.434-2.266
						c-0.146-0.776-0.419-1.532-0.638-2.304c-0.234-0.768-0.542-1.512-0.81-2.257c-0.324-0.722-0.604-1.453-0.946-2.127
						c-0.649-1.366-1.345-2.598-1.977-3.632C51.264,76.899,50.227,75.647,50.227,75.647z"/>
				</g>
				<g>
					<path fill="#A9DEE9" d="M48.69,112.156c0,0,1.501,0.625,3.852,1.229c1.174,0.301,2.556,0.607,4.052,0.828
						c0.745,0.13,1.525,0.184,2.31,0.282c0.791,0.038,1.593,0.115,2.395,0.114c0.802-0.017,1.605,0.023,2.39-0.064
						c0.786-0.057,1.558-0.107,2.294-0.248c0.74-0.109,1.452-0.222,2.11-0.413c0.66-0.174,1.295-0.296,1.846-0.525
						c0.558-0.201,1.069-0.385,1.523-0.548c0.432-0.21,0.809-0.393,1.12-0.544c0.619-0.302,0.972-0.474,0.972-0.474l0.566,1.069
						c0,0-0.383,0.166-1.052,0.455c-0.334,0.143-0.74,0.317-1.206,0.516c-0.483,0.149-1.028,0.317-1.623,0.501
						c-0.587,0.211-1.255,0.309-1.948,0.457c-0.692,0.165-1.434,0.249-2.202,0.326c-0.765,0.11-1.561,0.124-2.369,0.145
						c-0.807,0.051-1.625-0.027-2.442-0.048c-0.817-0.038-1.627-0.153-2.426-0.229c-0.792-0.137-1.577-0.229-2.322-0.395
						c-1.499-0.294-2.873-0.666-4.038-1.023C50.16,112.85,48.69,112.156,48.69,112.156z"/>
				</g>
			</g>
			<g>
				<path fill="#0DAAB9" d="M142.51,19.914c0,0,37.825,25.302,23.694,67.866c-5.299,15.962-14.5,23.953-22.062,28.394
					c-14.701,8.634-33.26-1.885-34.37-18.898c-0.299-4.591,0.162-9.859,1.893-15.776C121.711,47.166,140.531,51.113,142.51,19.914z"
					/>
				<path opacity="0.31" fill="#0DAAB9" d="M166.204,87.779c14.132-42.564-23.694-67.866-23.694-67.866s9.284,17.588,6.044,44.821
					c-2.374,19.961-17.437,41.618-25.595,52.177c6.423,3.141,14.233,3.345,21.182-0.737
					C151.704,111.732,160.904,103.741,166.204,87.779z"/>
				<g>
					<path fill="#A9DEE9" d="M142.51,19.914c0,0,0.201,0.355,0.54,1.044c0.332,0.69,0.831,1.702,1.351,3.037
						c0.544,1.326,1.131,2.965,1.745,4.867c0.309,0.95,0.585,1.977,0.906,3.053c0.279,1.086,0.554,2.233,0.828,3.433
						c0.505,2.409,0.984,5.036,1.323,7.84c0.34,2.802,0.605,5.776,0.629,8.859c0.015,1.541,0.057,3.109-0.035,4.694
						c-0.063,1.585-0.095,3.192-0.271,4.802c-0.071,0.806-0.143,1.616-0.215,2.428l-0.054,0.609
						c-0.012,0.112-0.011,0.18-0.035,0.329l-0.046,0.301l-0.183,1.205c-0.129,0.805-0.228,1.609-0.382,2.418l-0.539,2.435
						l-0.282,1.215l-0.35,1.186l-0.7,2.367c-0.534,1.551-1.057,3.101-1.645,4.61c-1.196,3.01-2.468,5.933-3.863,8.677
						c-1.342,2.772-2.828,5.351-4.265,7.774c-1.441,2.421-2.878,4.662-4.236,6.709c-1.357,2.047-2.662,3.881-3.847,5.485
						c-1.183,1.605-2.229,2.993-3.112,4.118c-0.871,1.135-1.587,2.001-2.073,2.594c-0.484,0.593-0.743,0.91-0.743,0.91
						s0.942-1.335,2.589-3.671c1.645-2.336,3.909-5.733,6.503-9.876c1.289-2.077,2.649-4.349,4.007-6.795
						c0.669-1.229,1.38-2.477,2.033-3.792c0.669-1.306,1.376-2.627,2.02-4.008c1.354-2.729,2.581-5.629,3.729-8.606
						c0.564-1.492,1.063-3.021,1.572-4.55l0.663-2.328l0.332-1.165l0.263-1.173l0.545-2.342c0.16-0.791,0.269-1.606,0.405-2.406
						l0.195-1.203l0.049-0.3c0.012-0.051,0.02-0.187,0.03-0.276l0.059-0.6c0.079-0.8,0.157-1.598,0.235-2.392
						c0.19-1.587,0.237-3.171,0.314-4.734c0.107-1.563,0.08-3.11,0.081-4.631c-0.019-3.041-0.166-5.982-0.421-8.761
						c-0.252-2.78-0.647-5.393-1.075-7.793c-0.246-1.194-0.482-2.339-0.706-3.428c-0.265-1.079-0.488-2.112-0.748-3.069
						c-0.516-1.915-1.019-3.574-1.494-4.918C143.212,21.394,142.51,19.914,142.51,19.914z"/>
				</g>
				<g>
					<path fill="#A9DEE9" d="M158.222,43.603c0,0,0.096,1.935-0.176,4.829c-0.136,1.445-0.352,3.129-0.711,4.914
						c-0.157,0.897-0.413,1.804-0.623,2.738c-0.28,0.915-0.522,1.86-0.852,2.777c-0.348,0.91-0.635,1.847-1.059,2.713
						c-0.391,0.88-0.769,1.751-1.238,2.543c-0.222,0.403-0.439,0.8-0.653,1.188c-0.215,0.388-0.48,0.734-0.709,1.09
						c-0.479,0.697-0.892,1.388-1.391,1.938c-0.473,0.572-0.907,1.096-1.291,1.56c-0.432,0.422-0.808,0.791-1.118,1.094
						c-0.624,0.605-0.981,0.951-0.981,0.951l-0.92-1.111c0,0,0.351-0.311,0.965-0.855c0.307-0.273,0.681-0.605,1.109-0.986
						c0.386-0.425,0.822-0.905,1.297-1.428c0.503-0.502,0.927-1.146,1.419-1.794c0.236-0.331,0.508-0.652,0.732-1.017
						c0.223-0.366,0.452-0.739,0.684-1.119c0.491-0.746,0.897-1.575,1.318-2.414c0.453-0.824,0.775-1.727,1.159-2.603
						c0.366-0.884,0.647-1.801,0.965-2.69c0.249-0.91,0.545-1.794,0.741-2.674c0.437-1.748,0.73-3.41,0.933-4.84
						C158.227,45.541,158.222,43.603,158.222,43.603z"/>
				</g>
				<g>
					<path fill="#A9DEE9" d="M164.856,63.665c0,0-0.717,1.8-2.166,4.319c-0.724,1.258-1.621,2.7-2.689,4.174
						c-0.515,0.751-1.125,1.469-1.704,2.232c-0.634,0.716-1.247,1.475-1.929,2.172c-0.695,0.683-1.345,1.416-2.09,2.027
						c-0.721,0.638-1.427,1.273-2.183,1.799c-0.369,0.275-0.732,0.545-1.088,0.81c-0.357,0.263-0.741,0.468-1.097,0.697
						c-0.725,0.435-1.388,0.892-2.071,1.185c-0.668,0.323-1.28,0.62-1.822,0.882c-0.568,0.205-1.063,0.383-1.471,0.53
						c-0.819,0.291-1.287,0.458-1.287,0.458l-0.375-1.393c0,0,0.448-0.137,1.233-0.377c0.393-0.121,0.871-0.267,1.418-0.436
						c0.528-0.226,1.123-0.481,1.773-0.76c0.666-0.248,1.319-0.658,2.036-1.042c0.352-0.204,0.733-0.383,1.088-0.621
						c0.355-0.24,0.718-0.485,1.087-0.734c0.757-0.474,1.47-1.059,2.202-1.648c0.755-0.562,1.423-1.249,2.136-1.886
						c0.7-0.652,1.337-1.37,1.996-2.046c0.604-0.724,1.241-1.406,1.785-2.124c1.124-1.408,2.081-2.798,2.86-4.015
						C164.055,65.43,164.856,63.665,164.856,63.665z"/>
				</g>
				<g>
					<path fill="#A9DEE9" d="M134.615,65.967c0,0-0.535,1.863-0.929,4.729c-0.197,1.431-0.369,3.109-0.427,4.911
						c-0.052,0.899-0.009,1.831-0.019,2.774c0.063,0.942,0.082,1.901,0.192,2.852c0.13,0.948,0.192,1.904,0.403,2.821
						c0.175,0.923,0.339,1.831,0.607,2.683c0.119,0.429,0.237,0.85,0.351,1.263c0.116,0.412,0.29,0.795,0.426,1.178
						c0.296,0.758,0.527,1.493,0.874,2.114c0.314,0.633,0.602,1.214,0.857,1.728c0.308,0.483,0.576,0.905,0.797,1.251
						c0.442,0.692,0.694,1.087,0.694,1.087l-1.189,0.817c0,0-0.248-0.43-0.683-1.183c-0.215-0.376-0.476-0.833-0.776-1.358
						c-0.243-0.552-0.516-1.174-0.815-1.854c-0.329-0.666-0.538-1.443-0.808-2.245c-0.123-0.405-0.283-0.81-0.384-1.242
						c-0.099-0.432-0.2-0.873-0.303-1.322c-0.234-0.891-0.36-1.832-0.495-2.785c-0.171-0.948-0.19-1.928-0.276-2.899
						c-0.067-0.972-0.041-1.948-0.06-2.904c0.054-0.956,0.055-1.898,0.15-2.804c0.143-1.814,0.396-3.493,0.66-4.921
						C133.993,67.803,134.615,65.967,134.615,65.967z"/>
				</g>
				<g>
					<path fill="#A9DEE9" d="M141.341,48.071c0,0-0.482,1.877-0.795,4.754c-0.156,1.436-0.281,3.119-0.287,4.921
						c-0.026,0.9,0.043,1.831,0.06,2.774c0.09,0.94,0.136,1.898,0.273,2.845c0.157,0.944,0.246,1.898,0.483,2.808
						c0.201,0.917,0.391,1.82,0.683,2.664c0.131,0.425,0.261,0.843,0.387,1.253c0.128,0.408,0.312,0.786,0.459,1.166
						c0.318,0.749,0.57,1.478,0.934,2.088c0.332,0.624,0.636,1.196,0.905,1.703c0.321,0.474,0.602,0.888,0.833,1.228
						c0.461,0.679,0.725,1.067,0.725,1.067l-1.165,0.85c0,0-0.26-0.423-0.716-1.164c-0.226-0.37-0.5-0.82-0.814-1.335
						c-0.258-0.545-0.549-1.159-0.867-1.83c-0.348-0.656-0.578-1.428-0.871-2.221c-0.134-0.401-0.306-0.802-0.419-1.23
						c-0.111-0.429-0.225-0.867-0.34-1.313c-0.26-0.884-0.412-1.821-0.574-2.77c-0.197-0.943-0.245-1.922-0.359-2.89
						c-0.094-0.97-0.096-1.946-0.142-2.901c0.027-0.957,0.001-1.899,0.07-2.807c0.091-1.818,0.296-3.503,0.52-4.937
						C140.772,49.923,141.341,48.071,141.341,48.071z"/>
				</g>
				<g>
					<path fill="#A9DEE9" d="M161.544,86.657c0,0-1.232,1.495-3.381,3.452c-1.074,0.977-2.367,2.076-3.834,3.154
						c-0.72,0.558-1.52,1.055-2.304,1.605c-0.822,0.488-1.638,1.024-2.5,1.48c-0.87,0.438-1.713,0.938-2.609,1.293
						c-0.881,0.387-1.747,0.777-2.628,1.047c-0.435,0.149-0.864,0.296-1.283,0.439c-0.42,0.142-0.849,0.22-1.257,0.328
						c-0.823,0.193-1.594,0.426-2.333,0.496c-0.735,0.104-1.408,0.2-2.005,0.284c-0.604,0.022-1.13,0.04-1.563,0.056
						c-0.869,0.028-1.366,0.043-1.366,0.043l0.068-1.441c0,0,0.469,0.006,1.289,0.017c0.411,0.005,0.911,0.011,1.484,0.018
						c0.572-0.054,1.217-0.116,1.92-0.183c0.71-0.033,1.457-0.224,2.257-0.371c0.397-0.086,0.815-0.141,1.226-0.259
						c0.411-0.12,0.831-0.242,1.259-0.367c0.865-0.221,1.723-0.56,2.6-0.898c0.89-0.304,1.736-0.755,2.61-1.144
						c0.866-0.407,1.691-0.897,2.525-1.339c0.797-0.505,1.611-0.96,2.348-1.478c1.501-0.998,2.836-2.029,3.949-2.951
						C160.243,88.094,161.544,86.657,161.544,86.657z"/>
				</g>
			</g>
			<g>
				<path fill="#09787D" d="M136.375,196.183c0,0-0.106,2.182-1.063,5.317c-0.228,0.785-0.536,1.617-0.865,2.498
					c-0.369,0.863-0.724,1.793-1.208,2.7c-0.435,0.934-0.97,1.852-1.528,2.781c-0.525,0.951-1.213,1.813-1.821,2.736
					c-0.661,0.881-1.376,1.724-2.058,2.576c-0.75,0.792-1.487,1.571-2.201,2.325c-0.773,0.696-1.52,1.369-2.228,2.007
					c-0.709,0.641-1.459,1.143-2.113,1.663c-0.665,0.503-1.262,0.988-1.845,1.333c-0.57,0.367-1.067,0.686-1.476,0.949
					c-0.821,0.527-1.29,0.828-1.29,0.828l-1.377-2.576c0,0,0.464-0.246,1.275-0.676c0.407-0.215,0.901-0.477,1.468-0.777
					c0.582-0.279,1.177-0.688,1.844-1.109c0.655-0.438,1.413-0.854,2.132-1.403c0.723-0.548,1.485-1.126,2.274-1.723
					c0.74-0.66,1.504-1.341,2.28-2.034c0.714-0.755,1.468-1.504,2.174-2.295c0.653-0.832,1.393-1.61,1.973-2.482
					c0.614-0.85,1.208-1.696,1.705-2.566c0.546-0.843,0.966-1.716,1.399-2.53c0.392-0.831,0.765-1.623,1.054-2.374
					c0.298-0.749,0.55-1.445,0.739-2.074c0.212-0.622,0.338-1.181,0.463-1.637C136.303,196.721,136.375,196.183,136.375,196.183z"/>
			</g>
			<g>
				<path fill="#09787D" d="M90.147,176.341c0,0,0.206,0.502,0.652,1.335c0.236,0.409,0.501,0.918,0.863,1.466
					c0.343,0.56,0.763,1.169,1.241,1.818c0.47,0.654,1.031,1.325,1.622,2.029c0.625,0.678,1.253,1.416,1.995,2.093
					c0.702,0.715,1.492,1.383,2.301,2.049c0.782,0.696,1.695,1.261,2.538,1.9c0.884,0.587,1.804,1.12,2.686,1.668
					c0.927,0.473,1.839,0.938,2.722,1.389c0.914,0.378,1.798,0.743,2.636,1.09c0.834,0.349,1.673,0.559,2.418,0.816
					c0.753,0.238,1.431,0.483,2.066,0.605c0.625,0.146,1.169,0.274,1.617,0.379c0.894,0.21,1.405,0.33,1.405,0.33l-0.678,2.841
					c0,0-0.53-0.172-1.458-0.473c-0.463-0.151-1.024-0.334-1.669-0.544c-0.651-0.186-1.351-0.504-2.122-0.821
					c-0.764-0.337-1.616-0.632-2.465-1.073c-0.847-0.437-1.74-0.899-2.664-1.376c-0.882-0.548-1.793-1.115-2.719-1.69
					c-0.876-0.651-1.781-1.285-2.644-1.969c-0.823-0.738-1.707-1.398-2.456-2.185c-0.776-0.757-1.525-1.509-2.183-2.302
					c-0.698-0.755-1.278-1.564-1.853-2.305c-0.541-0.768-1.05-1.495-1.47-2.196C90.804,178.425,90.147,176.341,90.147,176.341z"/>
			</g>
			<g>
				<path fill="#0DAAB9" d="M149.242,127.686c0,0,30.725,20.553,19.246,55.128c-4.305,12.965-11.778,19.457-17.921,23.065
					c-11.942,7.014-27.017-1.531-27.919-15.351c-0.243-3.729,0.131-8.009,1.538-12.815
					C132.347,149.823,147.635,153.029,149.242,127.686z"/>
				<path opacity="0.31" fill="#0DAAB9" d="M168.488,182.813c11.479-34.575-19.246-55.128-19.246-55.128s7.541,14.287,4.91,36.408
					c-1.929,16.214-14.164,33.806-20.791,42.383c5.217,2.552,11.561,2.717,17.206-0.599
					C156.71,202.27,164.184,195.779,168.488,182.813z"/>
				<g>
					<path fill="#A9DEE9" d="M133.361,206.477c0,0,0.765-1.084,2.104-2.982c1.336-1.897,3.176-4.656,5.282-8.022
						c1.047-1.687,2.152-3.532,3.255-5.519c1.101-1.988,2.217-4.108,3.291-6.336c1.1-2.217,2.096-4.572,3.029-6.991
						c0.458-1.212,0.863-2.454,1.277-3.696c0.333-1.265,0.774-2.509,1.022-3.797l0.444-1.916c0.129-0.641,0.215-1.289,0.325-1.932
						c0.245-1.278,0.323-2.575,0.462-3.884c0.156-1.304,0.192-2.581,0.255-3.846c0.087-1.263,0.065-2.521,0.065-3.757
						c-0.015-2.47-0.137-4.859-0.343-7.116c-0.204-2.258-0.525-4.38-0.872-6.331c-0.379-1.944-0.77-3.719-1.181-5.277
						c-0.419-1.556-0.827-2.903-1.213-3.995c-0.753-2.192-1.323-3.395-1.323-3.395s0.164,0.289,0.439,0.848
						c0.27,0.561,0.675,1.382,1.098,2.467c0.442,1.077,0.919,2.409,1.418,3.953c0.251,0.772,0.476,1.606,0.736,2.48
						c0.225,0.882,0.45,1.814,0.673,2.789c0.41,1.957,0.8,4.091,1.076,6.368c0.277,2.276,0.49,4.692,0.51,7.196
						c0.012,1.252,0.047,2.524-0.028,3.818c-0.051,1.292-0.078,2.607-0.22,3.9c-0.125,1.289-0.193,2.626-0.431,3.95
						c-0.106,0.661-0.189,1.328-0.314,1.987l-0.437,1.965c-0.268,1.318-0.728,2.58-1.082,3.866c-0.434,1.26-0.859,2.519-1.336,3.745
						c-0.971,2.445-2.004,4.819-3.138,7.048c-1.089,2.252-2.3,4.345-3.465,6.314c-1.17,1.967-2.338,3.787-3.44,5.45
						c-1.102,1.663-2.163,3.152-3.125,4.455c-0.961,1.304-1.81,2.431-2.527,3.346c-0.708,0.922-1.289,1.626-1.683,2.107
						C133.571,206.22,133.361,206.477,133.361,206.477z"/>
				</g>
				<g>
					<path fill="#A9DEE9" d="M162.005,146.928c0,0,0.078,1.572-0.143,3.922c-0.111,1.174-0.286,2.542-0.578,3.991
						c-0.127,0.729-0.335,1.465-0.506,2.224c-0.227,0.743-0.424,1.511-0.692,2.256c-0.283,0.739-0.516,1.5-0.86,2.203
						c-0.317,0.715-0.625,1.422-1.006,2.066c-0.353,0.659-0.702,1.293-1.106,1.85c-0.389,0.566-0.725,1.127-1.13,1.574
						c-0.384,0.464-0.736,0.89-1.049,1.267c-0.351,0.343-0.656,0.642-0.908,0.888c-0.507,0.492-0.797,0.773-0.797,0.773
						l-0.747-0.902c0,0,0.285-0.253,0.784-0.695c0.25-0.222,0.553-0.491,0.901-0.801c0.314-0.345,0.667-0.735,1.053-1.16
						c0.409-0.408,0.753-0.931,1.152-1.457c0.414-0.517,0.779-1.113,1.15-1.735c0.399-0.606,0.729-1.279,1.071-1.961
						c0.368-0.67,0.63-1.403,0.941-2.115c0.297-0.718,0.525-1.463,0.784-2.185c0.202-0.739,0.442-1.458,0.602-2.172
						c0.355-1.42,0.593-2.77,0.758-3.932C162.009,148.503,162.005,146.928,162.005,146.928z"/>
				</g>
				<g>
					<path fill="#A9DEE9" d="M167.394,163.225c0,0-0.583,1.462-1.76,3.508c-0.588,1.022-1.317,2.193-2.184,3.39
						c-0.419,0.61-0.914,1.193-1.384,1.813c-0.515,0.581-1.013,1.198-1.567,1.764c-0.564,0.555-1.093,1.15-1.698,1.647
						c-0.586,0.518-1.159,1.034-1.773,1.461c-0.595,0.453-1.176,0.884-1.775,1.224c-0.589,0.353-1.127,0.724-1.682,0.962
						c-0.542,0.263-1.04,0.503-1.48,0.717c-0.462,0.166-0.864,0.311-1.195,0.431c-0.665,0.237-1.046,0.372-1.046,0.372l-0.305-1.131
						c0,0,0.364-0.111,1.002-0.306c0.319-0.098,0.707-0.217,1.152-0.354c0.429-0.184,0.912-0.391,1.44-0.617
						c0.541-0.201,1.072-0.534,1.654-0.847c0.592-0.299,1.171-0.689,1.767-1.1c0.615-0.385,1.194-0.861,1.789-1.339
						c0.613-0.456,1.156-1.014,1.735-1.532c0.569-0.529,1.086-1.113,1.621-1.662c0.491-0.588,1.008-1.142,1.45-1.725
						c0.913-1.144,1.69-2.273,2.323-3.261C166.743,164.659,167.394,163.225,167.394,163.225z"/>
				</g>
				<g>
					<path fill="#A9DEE9" d="M142.829,165.095c0,0-0.434,1.513-0.755,3.841c-0.16,1.163-0.3,2.526-0.347,3.989
						c-0.042,0.731-0.008,1.487-0.015,2.254c0.051,0.765,0.066,1.544,0.156,2.316c0.105,0.77,0.156,1.546,0.327,2.291
						c0.142,0.749,0.275,1.487,0.493,2.179c0.187,0.7,0.375,1.372,0.631,1.983c0.241,0.616,0.428,1.213,0.71,1.717
						c0.255,0.514,0.489,0.986,0.696,1.404c0.25,0.393,0.468,0.735,0.648,1.017c0.359,0.562,0.564,0.883,0.564,0.883l-0.966,0.663
						c0,0-0.202-0.35-0.555-0.961c-0.175-0.306-0.387-0.677-0.63-1.103c-0.197-0.448-0.419-0.954-0.662-1.506
						c-0.268-0.541-0.437-1.173-0.656-1.823c-0.236-0.647-0.399-1.352-0.557-2.082c-0.19-0.724-0.292-1.488-0.402-2.262
						c-0.139-0.77-0.154-1.566-0.225-2.355c-0.054-0.79-0.033-1.582-0.049-2.359c0.044-0.777,0.045-1.542,0.122-2.277
						c0.116-1.474,0.321-2.838,0.536-3.997C142.324,166.586,142.829,165.095,142.829,165.095z"/>
				</g>
				<g>
					<path fill="#A9DEE9" d="M148.292,150.558c0,0-0.391,1.525-0.645,3.861c-0.127,1.167-0.228,2.533-0.233,3.997
						c-0.021,0.731,0.035,1.487,0.049,2.253c0.073,0.763,0.11,1.542,0.222,2.311c0.127,0.767,0.2,1.541,0.392,2.281
						c0.164,0.745,0.317,1.479,0.555,2.164c0.206,0.694,0.413,1.361,0.688,1.965c0.258,0.608,0.463,1.2,0.758,1.696
						c0.269,0.507,0.517,0.972,0.735,1.383c0.261,0.385,0.489,0.721,0.676,0.998c0.375,0.551,0.589,0.866,0.589,0.866l-0.946,0.691
						c0,0-0.212-0.344-0.582-0.945c-0.183-0.301-0.406-0.666-0.662-1.085c-0.21-0.442-0.446-0.942-0.704-1.486
						c-0.283-0.533-0.47-1.16-0.708-1.804c-0.254-0.64-0.437-1.34-0.616-2.066c-0.211-0.718-0.335-1.479-0.466-2.25
						c-0.16-0.766-0.199-1.561-0.291-2.347c-0.077-0.788-0.078-1.581-0.116-2.357c0.022-0.778,0.001-1.543,0.057-2.28
						c0.074-1.477,0.241-2.846,0.422-4.011C147.83,152.062,148.292,150.558,148.292,150.558z"/>
				</g>
				<g>
					<path fill="#A9DEE9" d="M164.703,181.901c0,0-1.001,1.215-2.746,2.804c-0.872,0.793-1.923,1.687-3.114,2.562
						c-0.585,0.453-1.234,0.857-1.871,1.304c-0.668,0.396-1.331,0.832-2.03,1.202c-0.707,0.356-1.392,0.762-2.119,1.05
						c-0.716,0.315-1.419,0.631-2.135,0.85c-0.704,0.25-1.389,0.483-2.063,0.624c-0.669,0.157-1.295,0.346-1.895,0.403
						c-0.597,0.085-1.144,0.162-1.628,0.231c-0.49,0.018-0.918,0.033-1.27,0.045c-0.706,0.022-1.109,0.035-1.109,0.035l0.055-1.17
						c0,0,0.381,0.005,1.047,0.014c0.334,0.004,0.74,0.009,1.205,0.015c0.464-0.044,0.988-0.094,1.56-0.148
						c0.577-0.026,1.183-0.182,1.833-0.302c0.655-0.104,1.325-0.298,2.018-0.509c0.703-0.179,1.4-0.455,2.112-0.729
						c0.723-0.247,1.41-0.613,2.12-0.93c0.703-0.331,1.374-0.728,2.051-1.088c0.647-0.41,1.309-0.78,1.907-1.201
						c1.219-0.811,2.303-1.648,3.207-2.397C163.646,183.068,164.703,181.901,164.703,181.901z"/>
				</g>
			</g>
			<g>
				<path fill="#0DAAB9" d="M10.941,122.644c0,0-12.744,50.033,31.453,75.246c16.574,9.455,30.398,9.225,40.148,7.24
					c18.954-3.857,26.645-26.806,14.683-42.008c-3.228-4.102-7.611-8.199-13.558-11.88
					C49.157,129.878,36.264,147.478,10.941,122.644z"/>
				<path opacity="0.31" fill="#0DAAB9" d="M42.393,197.89c-44.197-25.213-31.453-75.246-31.453-75.246s5.498,21.884,28.879,42.414
					c17.137,15.048,46.27,21.908,61.16,24.636c-3.04,7.521-9.478,13.613-18.438,15.436C72.791,207.115,58.967,207.345,42.393,197.89
					z"/>
				<g>
					<path fill="#A9DEE9" d="M10.941,122.644c0,0,0.53,1.781,1.793,4.763c0.618,1.495,1.451,3.276,2.468,5.284
						c0.506,1.005,1.101,2.046,1.696,3.158c0.636,1.089,1.305,2.234,2.002,3.429c1.459,2.351,3.106,4.855,5.001,7.393
						c0.97,1.252,1.907,2.582,2.998,3.838c1.074,1.269,2.111,2.613,3.296,3.869c1.157,1.28,2.31,2.603,3.589,3.837
						c1.255,1.256,2.498,2.554,3.856,3.755c0.667,0.613,1.336,1.228,2.007,1.845l0.504,0.463c0.076,0.068,0.187,0.176,0.234,0.21
						l0.268,0.217l1.074,0.871c0.72,0.573,1.429,1.18,2.162,1.729l2.232,1.569l1.113,0.789l1.166,0.729l2.327,1.457
						c1.592,0.9,3.173,1.809,4.782,2.636c3.233,1.626,6.453,3.17,9.664,4.451c1.589,0.68,3.184,1.269,4.74,1.861
						c1.548,0.615,3.095,1.129,4.59,1.659c3,1.036,5.871,1.922,8.533,2.698c5.331,1.531,9.817,2.682,12.976,3.406
						c3.162,0.723,4.969,1.135,4.969,1.135s-0.458-0.071-1.317-0.205c-0.859-0.133-2.121-0.321-3.716-0.619
						c-1.599-0.281-3.534-0.659-5.749-1.117c-2.216-0.455-4.708-1.015-7.406-1.713c-2.697-0.698-5.61-1.501-8.661-2.452
						c-1.522-0.488-3.096-0.959-4.676-1.531c-1.591-0.538-3.202-1.133-4.822-1.787c-1.634-0.617-3.266-1.32-4.912-2.047
						c-1.665-0.684-3.28-1.536-4.935-2.334c-1.638-0.832-3.253-1.748-4.878-2.656l-2.382-1.473l-1.193-0.738l-1.158-0.813
						l-2.305-1.642c-0.745-0.564-1.44-1.166-2.16-1.746l-1.07-0.876l-0.267-0.219c-0.134-0.108-0.184-0.166-0.279-0.251
						l-0.509-0.472c-0.678-0.629-1.353-1.257-2.027-1.882c-1.375-1.22-2.618-2.555-3.868-3.851
						c-1.276-1.271-2.425-2.631-3.578-3.946c-2.307-2.629-4.34-5.338-6.177-7.961c-1.839-2.624-3.426-5.205-4.827-7.621
						c-0.678-1.221-1.316-2.398-1.903-3.526c-0.545-1.151-1.09-2.227-1.55-3.263c-0.923-2.071-1.67-3.9-2.217-5.431
						c-0.573-1.521-0.919-2.753-1.162-3.588C11.04,123.097,10.941,122.644,10.941,122.644z"/>
				</g>
				<g>
					<path fill="#A9DEE9" d="M15.638,154.551c0,0,1.465,1.64,3.979,3.751c1.256,1.054,2.762,2.234,4.457,3.378
						c0.832,0.593,1.752,1.116,2.652,1.695c0.942,0.509,1.875,1.071,2.854,1.539c0.988,0.448,1.944,0.966,2.952,1.319
						c0.992,0.389,1.963,0.781,2.943,1.038c0.484,0.145,0.96,0.287,1.425,0.426c0.466,0.137,0.939,0.202,1.389,0.303
						c0.907,0.174,1.752,0.396,2.558,0.439c0.798,0.081,1.529,0.156,2.177,0.222c0.65-0.003,1.217-0.007,1.683-0.009
						c0.931-0.006,1.463-0.009,1.463-0.009l0.066,1.635c0,0-0.563-0.022-1.549-0.06c-0.491-0.021-1.088-0.046-1.773-0.076
						c-0.676-0.101-1.44-0.214-2.272-0.338c-0.838-0.086-1.711-0.356-2.643-0.581c-0.463-0.127-0.949-0.218-1.424-0.382
						c-0.474-0.166-0.959-0.336-1.452-0.508c-0.997-0.313-1.976-0.762-2.973-1.208c-1.014-0.41-1.966-0.983-2.95-1.487
						c-0.974-0.523-1.895-1.138-2.824-1.698c-0.885-0.63-1.789-1.201-2.601-1.839c-1.656-1.234-3.115-2.492-4.325-3.608
						C17.024,156.257,15.638,154.551,15.638,154.551z"/>
				</g>
				<g>
					<path fill="#A9DEE9" d="M25.249,176.515c0,0,2.014,0.883,5.177,1.758c1.58,0.437,3.441,0.884,5.458,1.221
						c1.003,0.194,2.058,0.287,3.117,0.44c1.069,0.071,2.15,0.195,3.236,0.214c1.085-0.003,2.17,0.071,3.233-0.027
						c1.064-0.058,2.11-0.105,3.108-0.278c0.5-0.069,0.992-0.138,1.474-0.205c0.481-0.069,0.938-0.206,1.389-0.301
						c0.897-0.219,1.759-0.368,2.509-0.664c0.759-0.257,1.455-0.493,2.072-0.703c0.59-0.273,1.104-0.512,1.527-0.708
						c0.844-0.392,1.327-0.617,1.327-0.617l0.739,1.46c0,0-0.521,0.214-1.434,0.589c-0.456,0.185-1.009,0.41-1.644,0.668
						c-0.657,0.19-1.398,0.403-2.207,0.637c-0.798,0.27-1.704,0.387-2.646,0.57c-0.473,0.077-0.954,0.196-1.454,0.244
						c-0.501,0.046-1.012,0.093-1.532,0.141c-1.037,0.129-2.114,0.128-3.206,0.137c-1.092,0.049-2.197-0.077-3.301-0.126
						c-1.103-0.072-2.197-0.248-3.274-0.371c-1.067-0.205-2.126-0.349-3.13-0.592c-2.019-0.434-3.869-0.972-5.434-1.484
						C27.219,177.49,25.249,176.515,25.249,176.515z"/>
				</g>
				<g>
					<path fill="#A9DEE9" d="M52.519,155.531c0,0,1.916,1.078,4.53,3.088c1.305,1.004,2.791,2.23,4.288,3.653
						c0.766,0.693,1.482,1.487,2.252,2.253c0.709,0.821,1.471,1.625,2.151,2.496c0.663,0.884,1.389,1.726,1.964,2.656
						c0.608,0.907,1.216,1.796,1.693,2.726c0.253,0.457,0.503,0.906,0.746,1.345c0.242,0.441,0.415,0.904,0.618,1.339
						c0.379,0.881,0.793,1.695,1.02,2.507c0.263,0.8,0.504,1.533,0.717,2.182c0.145,0.67,0.271,1.254,0.374,1.734
						c0.204,0.965,0.321,1.517,0.321,1.517l-1.623,0.212c0,0-0.087-0.525-0.238-1.443c-0.076-0.46-0.169-1.019-0.276-1.661
						c-0.175-0.628-0.372-1.336-0.587-2.108c-0.178-0.787-0.54-1.583-0.865-2.447c-0.176-0.427-0.32-0.882-0.534-1.317
						c-0.216-0.435-0.437-0.88-0.661-1.333c-0.419-0.922-0.97-1.813-1.521-2.725c-0.518-0.934-1.19-1.788-1.799-2.686
						c-0.627-0.886-1.339-1.71-2-2.553c-0.723-0.789-1.394-1.608-2.119-2.327c-1.414-1.477-2.832-2.762-4.083-3.821
						C54.383,156.698,52.519,155.531,52.519,155.531z"/>
				</g>
				<g>
					<path fill="#A9DEE9" d="M33.274,145.524c0,0,1.885,1.132,4.44,3.215c1.276,1.041,2.727,2.308,4.182,3.773
						c0.746,0.714,1.439,1.528,2.187,2.316c0.685,0.841,1.424,1.666,2.079,2.557c0.637,0.903,1.34,1.765,1.888,2.711
						c0.582,0.924,1.164,1.83,1.615,2.773c0.24,0.464,0.477,0.92,0.708,1.366c0.23,0.448,0.389,0.916,0.579,1.356
						c0.354,0.891,0.745,1.717,0.948,2.535c0.24,0.807,0.46,1.546,0.655,2.202c0.125,0.674,0.235,1.261,0.325,1.744
						c0.177,0.971,0.277,1.525,0.277,1.525l-1.628,0.166c0,0-0.072-0.527-0.197-1.45c-0.063-0.462-0.14-1.024-0.228-1.668
						c-0.157-0.632-0.334-1.346-0.527-2.124c-0.156-0.791-0.495-1.597-0.795-2.47c-0.164-0.431-0.294-0.89-0.496-1.332
						c-0.204-0.441-0.411-0.892-0.623-1.351c-0.393-0.934-0.918-1.84-1.443-2.767c-0.491-0.948-1.138-1.821-1.722-2.736
						c-0.602-0.903-1.29-1.747-1.926-2.608c-0.7-0.809-1.347-1.647-2.052-2.387c-1.372-1.516-2.752-2.842-3.973-3.936
						C35.104,146.744,33.274,145.524,33.274,145.524z"/>
				</g>
				<g>
					<path fill="#A9DEE9" d="M45.475,193.41c0,0,2.187,0.226,5.467,0.095c1.638-0.066,3.547-0.208,5.57-0.503
						c1.015-0.121,2.047-0.355,3.102-0.532c1.039-0.258,2.107-0.471,3.147-0.784c1.033-0.334,2.088-0.594,3.07-1.012
						c0.995-0.38,1.977-0.744,2.875-1.213c0.455-0.219,0.903-0.434,1.341-0.645c0.437-0.212,0.83-0.482,1.231-0.711
						c0.787-0.482,1.563-0.887,2.187-1.398c0.645-0.477,1.235-0.914,1.759-1.302c0.478-0.44,0.895-0.824,1.239-1.14
						c0.684-0.631,1.075-0.992,1.075-0.992l1.149,1.165c0,0-0.431,0.363-1.185,0.999c-0.378,0.315-0.836,0.698-1.362,1.138
						c-0.568,0.381-1.209,0.811-1.908,1.28c-0.678,0.501-1.505,0.888-2.346,1.35c-0.427,0.218-0.848,0.477-1.31,0.676
						c-0.463,0.197-0.935,0.397-1.416,0.602c-0.948,0.44-1.974,0.768-3.012,1.109c-1.025,0.38-2.116,0.597-3.182,0.887
						c-1.072,0.269-2.167,0.434-3.231,0.646c-1.079,0.131-2.131,0.317-3.161,0.392c-2.055,0.202-3.981,0.255-5.627,0.244
						C47.649,193.738,45.475,193.41,45.475,193.41z"/>
				</g>
			</g>
		</g>
	</g>
	<g>
		<g>
			<g>
				<path fill="#244E9A" d="M312.876,322.286H161.943c-8.765,0-15.871-7.105-15.871-15.87V26.604c0-8.765,7.106-15.87,15.871-15.87
					h150.933c8.765,0,15.87,7.105,15.87,15.87v279.812C328.746,315.181,321.641,322.286,312.876,322.286z"/>
				<rect x="157.897" y="31.094" fill="#FFFFFF" width="159.025" height="250.343"/>
				<path fill="#244E9A" d="M258.084,310.222h-41.349c-4.611,0-8.35-3.738-8.35-8.35l0,0c0-4.611,3.738-8.35,8.35-8.35h41.349
					c4.611,0,8.35,3.738,8.35,8.35l0,0C266.434,306.484,262.695,310.222,258.084,310.222z"/>
				<circle fill="#244E9A" cx="186.131" cy="21.591" r="2.671"/>
				<circle fill="#244E9A" cx="195.627" cy="21.591" r="1.889"/>
				<path fill="#244E9A" d="M260.978,24.262h-47.136c-0.738,0-1.335-0.598-1.335-1.336l0,0c0-0.738,0.598-1.335,1.335-1.335h47.136
					c0.737,0,1.335,0.598,1.335,1.335l0,0C262.313,23.664,261.715,24.262,260.978,24.262z"/>
				<rect x="157.897" y="31.094" opacity="0.22" fill="#0DAAB9" width="159.025" height="250.343"/>
			</g>
			<path opacity="0.15" fill="#3079BE" d="M298.131,148.132H195.972c-4.303,0-7.792-3.489-7.792-7.792l0,0
				c0-4.303,3.489-7.792,7.792-7.792h102.158c4.303,0,7.792,3.489,7.792,7.792l0,0C305.922,144.643,302.434,148.132,298.131,148.132
				z"/>
			<path opacity="0.15" fill="#3079BE" d="M298.199,173.943H196.041c-4.303,0-7.792-3.489-7.792-7.792l0,0
				c0-4.303,3.488-7.792,7.792-7.792h102.158c4.303,0,7.792,3.488,7.792,7.792l0,0C305.991,170.455,302.503,173.943,298.199,173.943
				z"/>
			<path fill="#FEC40D" d="M179.06,165.322v-1.176c0-2.762-2.247-5.008-5.008-5.008c-2.762,0-5.008,2.247-5.008,5.008v1.191
				c-0.511,0.152-0.892,0.607-0.892,1.167v5.782c0,0.683,0.554,1.237,1.237,1.237h9.403c0.683,0,1.237-0.554,1.237-1.237v-5.782
				C180.029,165.917,179.61,165.448,179.06,165.322z M172.765,171.7l0.542-2.12c-0.259-0.223-0.432-0.542-0.432-0.91
				c0-0.671,0.544-1.215,1.215-1.215c0.671,0,1.215,0.544,1.215,1.215c0,0.399-0.204,0.735-0.501,0.957l0.611,2.074H172.765z
				 M178.17,165.268h-8.237v-1.122c0-2.271,1.847-4.119,4.118-4.119c2.271,0,4.119,1.848,4.119,4.119V165.268z"/>
			<g>
				<circle fill="#FEC40D" cx="175.347" cy="136.217" r="3.035"/>
				<path fill="#FEC40D" d="M180.428,146.596h-10.225v-2.231c0-2.824,2.289-5.113,5.113-5.113l0,0c2.824,0,5.113,2.289,5.113,5.113
					V146.596z"/>
			</g>
			<path fill="#FEC40D" d="M270.603,205.006h-59.818c-4.451,0-8.058-3.608-8.058-8.059v-1.342c0-4.451,3.608-8.058,8.058-8.058
				h59.818c4.451,0,8.058,3.608,8.058,8.058v1.342C278.661,201.398,275.053,205.006,270.603,205.006z"/>
			<g>
				
					<text transform="matrix(1 0 0 1 196.4421 113.4979)" fill="#2F2D34" stroke="#2F2D34" stroke-width="0.1603" stroke-miterlimit="10" font-family="'Montserrat-Regular'" font-size="13.057">USER LOGIN</text>
			</g>
			<g>
				<text transform="matrix(1 0 0 1 222.2913 198.8582)" fill="#2F2D34" font-family="'Montserrat-Regular'" font-size="8.1483">SIGN IN</text>
			</g>
			<path opacity="0.19" fill="#FFFFFF" d="M310.546,10.733H161.943c-8.765,0-15.87,7.106-15.87,15.871v219.248L310.546,10.733z"/>
		</g>
		<path fill="#2F2D34" d="M339.315,237.93c0,0-10.569,0-10.569,4.3c0,4.3-1.7,30.099,0,30.099s4.925-3.762,6.269-9.675
			c1.344-5.912,6.181-14.795,9.675-16.804C348.184,243.843,339.315,237.93,339.315,237.93z"/>
		<path fill="#2F2D34" d="M362.273,296.748c0,0-1.31,10.049,5.063,11.755c6.982,1.869,10.114,3.339,11.473,5.001
			c1.081,1.323,0.17,3.313-1.538,3.369c-7.094,0.236-27.81,0.715-29.221-1.276c-3.619-5.106,0.98-11.846-0.179-17.667
			C347.171,294.423,362.273,296.748,362.273,296.748z"/>
		<path fill="#FEC40D" d="M347.199,170.117l-10.033,2.764c0,0,1.075,19.452,10.033,55.643c0,0-4.3,25.799-3.225,38.699
			c1.075,12.9,3.225,34.649,3.225,34.649h16.841l10.22-88.398l-8.429-35.833L347.199,170.117z"/>
		<path opacity="0.34" fill="#FEC40D" d="M347.199,170.117l-10.033,2.764c0,0,1.075,19.452,10.033,55.643
			c0,0-4.3,25.799-3.225,38.699c1.075,12.9,3.225,34.649,3.225,34.649h16.841l10.22-88.398l-8.429-35.833L347.199,170.117z"/>
		<path fill="#FEC40D" d="M350.603,158.252l-17.2,5.666c0,0,1.319,15.706,31.174,32.251c31.712,17.574,52.674,19.889,39.774-1.075
			c-12.9-20.964-39.774-38.937-39.774-38.937L350.603,158.252z"/>
		<path fill="#FEC40D" d="M390.377,198.857c0,0-15.856,0.64-28.218,10.316c-12.362,9.677-28.756,29.832-28.756,29.832l9.944,10.75
			c0,0,52.948-24.407,64.233-42.303L390.377,198.857z"/>
		<path opacity="0.73" fill="#FEC40D" d="M355.387,190.529c0,0,15.371,8.043,22.627,7.252c7.256-0.79,12.273-0.285,16.841,1.075
			c0,0-9.548-0.798-19.734,2.789C375.122,201.646,356.141,191.771,355.387,190.529z"/>
		<path fill="#E9C3B3" d="M354.532,75.324l-5.357-11.468c0,0-3.296,16.984-9.063,23.139c0,0,5.692,10.344,17.295,12.638
			c0,0-1.029-11.513,3.835-17.317C366.105,76.51,354.532,75.324,354.532,75.324z"/>
		<path opacity="0.43" fill="#E9C3B3" d="M354.532,75.324l-5.357-11.468c0,0-3.296,16.984-9.063,23.139
			c0,0,5.692,10.344,17.295,12.638c0,0-1.029-11.513,3.835-17.317C366.105,76.51,354.532,75.324,354.532,75.324z"/>
		<ellipse fill="#E9C3B3" cx="363.709" cy="70.465" rx="15.025" ry="19.912"/>
		<path opacity="0.43" fill="#E9C3B3" d="M353.513,70.465c0-9.905,5.463-18.098,12.611-19.632c-0.788-0.169-1.59-0.28-2.414-0.28
			c-8.298,0-15.025,8.915-15.025,19.912s6.727,19.912,15.025,19.912c0.824,0,1.626-0.111,2.414-0.28
			C358.976,88.564,353.513,80.371,353.513,70.465z"/>
		<path fill="#244E9A" d="M398.43,121.035l-0.53-0.668c-0.376-0.474-0.297-1.164,0.177-1.54l17.286-13.719
			c0.474-0.377,1.164-0.297,1.54,0.177l0.53,0.668c0.376,0.474,0.297,1.164-0.177,1.54l-17.286,13.719
			C399.496,121.589,398.806,121.509,398.43,121.035z"/>
		<path fill="#DB3737" d="M341.272,85.646c0,0,8.256,10.388,15.243,7.593c8.705-3.482,18.006,43.062,17.737,65.122l0.008,5.666
			c0,0-26.345,7.525-40.857,0c0,0-2.956-28.487-1.881-44.611C332.597,103.29,336.198,83.708,341.272,85.646z"/>
		<path fill="#DB3737" d="M361.28,126.441c0,0-20.377-17.378-19.91-12.944c3.857,36.581,28.816,51.526,28.816,51.526l4.073-0.998
			l-0.146-11.844L361.28,126.441z"/>
		<g>
			<path fill="#E9C3B3" d="M393.783,127.186c0,0,5.632-5.616,5.728-8.98c0.095-3.364,1.482-6.317,6.139-5.602
				c5.492,0.843,13.163-7.674,10.669-2.043c-2.651,5.986-6.234,5.269-15.126,21.661
				C398.575,137.048,393.783,127.186,393.783,127.186z"/>
			<path fill="#DB3737" d="M350.813,96.893c3.119,0.162,5.974,1.786,7.943,4.21c1.691,2.083,4.18,5.368,6.911,9.702
				c2.812,4.461,5.881,10.034,8.602,16.552c7.545,18.07,11.644,35.34-2.324,28.118c-13.969-7.222-21.381-19.467-27.953-33.41
				C338.377,110.155,340.933,96.38,350.813,96.893z"/>
			<path fill="#DB3737" d="M369.594,142.257c5.173-6.872,5.464-1.792,25.357-19.42c0.653-0.579,1.235-1.249,1.856-1.892
				l10.803,5.011c0,0-13.562,29.354-28.017,30.922C365.138,158.448,366.648,146.171,369.594,142.257z"/>
		</g>
		<path fill="#523319" d="M362.435,63.856c0,0,0.449-2.632,8.374,1.989c7.925,4.621,16.074-1.388,13.923-6.629
			c-1.522-3.706-6.179-3.36-4.836-6.853c1.292-3.359-2.505-8.107-7.391-8.465c-4.885-0.358-7.335,4.389-8.796,0.806
			c-1.461-3.583-9.661-4.3-10.936,0c-1.275,4.3-2.87,4.892-7.268,5.85c-4.398,0.958-5.672,4.541-5.393,7.05
			c0.278,2.508,0.995,6.092-2.947,7.525c-3.942,1.433-4.418,8.958-0.417,10.391c4.001,1.433,1.267,1.942-2.673,4.927
			c-4.434,3.359-0.269,16.433,9.125,10.723c8.088-4.915-1.015-11.631,5.484-12.784c5.621-0.997,5.848-3.062,5.504-7.92
			C353.956,67.176,358.125,71.597,362.435,63.856z"/>
		<g opacity="0.33">
			<path fill="#523319" d="M340.814,80.359c3.94-2.985,6.674-3.494,2.673-4.927c-4.001-1.433-3.524-8.958,0.417-10.392
				c3.942-1.433,3.225-5.017,2.947-7.525c-0.278-2.508,0.995-6.091,5.393-7.05c4.398-0.958,5.993-1.55,7.268-5.85
				c0.287-0.967,0.935-1.668,1.767-2.152c-2.997-1.353-7.579-0.889-8.507,2.239c-1.275,4.3-2.87,4.892-7.268,5.85
				c-4.398,0.958-5.672,4.541-5.393,7.05c0.278,2.508,0.995,6.092-2.947,7.525c-3.942,1.433-4.418,8.958-0.417,10.391
				c4.001,1.433,1.267,1.942-2.673,4.927c-4.312,3.267-0.49,15.715,8.363,11.147C338.732,89.173,337.853,82.603,340.814,80.359z"/>
		</g>
		<path fill="#DB3737" d="M370.187,141.024c0,0,2.849-2.87,7.856-4.937l-1.324-2.372
			C376.719,133.715,372.121,137.043,370.187,141.024z"/>
	</g>
</g>
<g>
	
		<image overflow="visible" opacity="0.5" width="47" height="57" xlink:href="B6A556.png"  transform="matrix(1 0 0 1 259.2477 191.7429)">
	</image>
	<g>
		<g>
			<polygon fill="#2F2D34" points="262.25,196.443 268.094,239.764 276.326,220.467 297.184,222.719 			"/>
			<polygon fill="#2F2D34" points="274.461,211.451 288.11,235.166 283.065,237.634 268.863,212.043 			"/>
		</g>
	</g>
</g>
</svg>
