<svg xmlns="http://www.w3.org/2000/svg" width="292.366" height="278.95" xmlns:v="https://vecta.io/nano"><path fill="#e2e2e2" d="M290.665 278.95H34.763c-.935 0-1.701-1.962-1.701-4.359h0c0-2.397.765-4.359 1.701-4.359h255.902c.935 0 1.701 1.962 1.701 4.359h0c0 2.397-.765 4.359-1.701 4.359z"/><path fill="#efc79c" d="M149.257 204.577l-4.985 8.074-1.64 2.307 8.808 4.758 5.952-9.796z"/><path fill="#1e3e64" d="M138.159 118.729s53.066 16.648 60.382 25.523-40.463 67.309-40.463 67.309l-10.929-6.547s15.558-38.335 29.076-45.056c2.697-4.631-24.923-7.897-48.232-9.351s-18.976-15.349-11.449-32.397c13.648-5.837 21.615.519 21.615.519z"/><path fill="#f7c68e" d="M132.065 40.019s5.618-11.561 6.394-18.222c8.118 10.533 14.709 15.605 14.862 16.065-6.453 6.896-7.896 17.601-7.896 17.601l-13.36-15.444z"/><path fill="#ef3c58" d="M52.686 178.272l-8.814-.012c-2.398-.003-4.654 1.135-6.076 3.066l-7.438 10.099c-1.843 2.503-1.961 5.88-.295 8.505l3.668 5.782 18.955-27.44z"/><path fill="#f27190" d="M29.605 194.877l7.438-10.099c1.422-1.931 3.678-3.069 6.076-3.066l7.184.009 2.383-3.449-8.814-.012c-2.398-.003-4.654 1.135-6.076 3.066l-7.438 10.099c-1.008 1.368-1.48 2.998-1.447 4.623.197-.405.42-.8.694-1.171z"/><circle fill="#333" cx="258.034" cy="241.509" r="33.082"/><circle fill="#ffedc6" cx="258.034" cy="241.509" r="25.529"/><circle fill="#e2e2e2" cx="258.034" cy="241.509" r="19.651"/><circle fill="#a5a5a5" cx="258.034" cy="241.509" r="16.936"/><path fill="#e2e2e2" d="M241.216 206.938l7.306-2.703 13.696 37.019-7.306 2.703z"/><circle fill="#333" cx="258.034" cy="241.509" r="5.105"/><circle fill="gray" cx="258.034" cy="241.509" r="2.591"/><circle fill="#333" cx="72.254" cy="241.264" r="33.082"/><circle fill="#ffedc6" cx="72.254" cy="241.264" r="25.529"/><circle fill="#e2e2e2" cx="72.254" cy="241.264" r="19.651"/><circle fill="#a5a5a5" cx="72.254" cy="241.264" r="16.936"/><circle fill="#333" cx="72.254" cy="241.264" r="5.105"/><circle fill="gray" cx="72.254" cy="241.264" r="2.591"/><path fill="#fcb216" d="M231.797 218.477s27.094-13.313 55.853-5.91c-.21-14.96-11.691-35.228-45.994-26.988s-9.859 32.898-9.859 32.898z"/><path fill="#fecf0c" d="M239.698 187.304c-5.865 1.409-10.001 3.3-12.845 5.464-1.12 1.166-1.931 2.388-2.488 3.642 2.794-1.876 6.641-3.52 11.876-4.777 28.873-6.936 41.562 6.325 44.985 19.617 1.441.228 2.89.501 4.346.827-1.268-14.648-13.237-32.613-45.874-24.773z"/><path fill="#f0efef" d="M223.837 84.809s7.299 12.879.605 22.303c-5.753-1.424-.605-22.303-.605-22.303z"/><g fill="#fcb216"><path d="M241.656 185.579l10.591-2.978s-9.857-29.702-35.805-74.154c-2.303.994-4.904 1.785-4.904 1.785l30.118 75.347zm-39.717-74.965s22.883 54.672 9.487 84.429c-2.63 10.132 10.158 7.387 10.158 7.387s14.647-32.968-15.844-93.997c-1.418-.846-3.801 2.181-3.801 2.181z"/><path d="M158.532 158.773l-72.726-.096c-11.661-.015-48.505 15.893-59.924 65.283l71.307.094c8.899.012 10.648 15.971 10.648 15.971l89.252.118c10.433.014 28.898-40.161 19.105-60.734-4.324 21.475-13.852 32.509-24.596 35.564-8.262 2.349-32.491 2.136-43.243 1.913-3.191-.066-5.912-2.304-6.611-5.418-1.338-5.959-2.957-15.934-1.354-24.486 2.472-13.194 16.897-15.016 18.142-28.209z"/></g><path fill="#fecf0c" d="M24.344 226.719l86.995.115s12.694-27.141 2.588-42.574-51.769-10.655-69.511 4.972-20.072 37.487-20.072 37.487z"/><path fill="#fee003" d="M108.481 226.83c2.521-6.087 9.858-26.334 1.702-38.691-9.182-13.913-45.535-10.543-63.773 2.506 19.304-9.296 48.337-10.412 56.402 1.809 6.744 10.218 2.894 25.827-.066 34.367l5.735.009z"/><path fill="#fecf0c" d="M105.35 230.738l72.726.096c15.88.021 47.2-24.564 40.927-62.316s-15.915-55.716-15.915-55.716l11.051-3.361s21.119 41.147 25.706 53.428 11.448 45.277-13.438 68.029c-10.138 8.502-17.967 11.944-29.474 11.929l-88.376-.116-3.207-11.973z"/><path fill="#fee003" d="M239.845 162.869c-4.587-12.281-25.706-53.428-25.706-53.428l-4.124 1.254c5.077 10.571 19.719 41.507 22.925 53.238 3.455 12.646 10.797 46.542-14.089 69.294-4.836 4.055-9.147 6.948-13.582 8.875 7.398-1.4 13.638-4.914 21.139-11.204 24.885-22.752 18.024-55.749 13.437-68.029z"/><path d="M179.683 234.023c15.88.021 48.216-25.677 41.943-63.43-5.663-34.081-15.393-54.532-17.232-58.189l-1.306.397s9.642 17.964 15.915 55.716-25.047 62.337-40.927 62.316l-72.726-.096.854 3.188 73.479.098zm-89.062-90.99s-11.528 15.635.555 15.651l67.356.089c3.299.004 7.803-12.648 1.705-13.116s-24.973 1.808-39.238-1.433-25.999-6.248-30.378-1.191z" fill="#4d4d4d"/><path fill="#fecf0c" d="M202.166 113.721l16.577-5.272c1.842-.458 5.755-.913 5.755-.913s-2.393-17.724.03-22.669c-5.172-4.955-12.423-3.353-20.028 3.771s-10.253 8.387-9.68 10.344 7.346 14.739 7.346 14.739z"/><path fill="#a5a5a5" d="M203.379 95.933l-.522-.883 10.445-6.174a3.18 3.18 0 0 0 1.498-2.103l4.109-20.177 1.005.204-4.109 20.177c-.237 1.163-.959 2.177-1.981 2.781l-10.445 6.175z"/><ellipse transform="matrix(1 .0013 -.0013 1 .1315 -.2675)" fill="#eec11b" cx="203.105" cy="99.712" rx="5.984" ry="6.358"/><path fill="#20467a" d="M189.075 94.258s6.698-.223 9.13-2.444 5.107-2.153 7.557-.096 4.365 6.16 3.307 8.447-3.591 3.281-5.354 2.665c.688 1.612-3.122 1.854-5.014 1.177s-6.339-1.806-8.104-1.424c-1.533-1.997-1.522-8.325-1.522-8.325z"/><path fill="#fcb216" d="M199.665 108.943l2.5 4.778 16.577-5.272c1.842-.458 5.755-.913 5.755-.913s-.438-3.25-.75-7.352c-5.826 6.148-15.051 8.226-24.082 8.759z"/><circle fill="#353635" cx="202.416" cy="98.417" r="3.337"/><ellipse transform="matrix(.9859 .1676 -.1676 .9859 13.7924 -35.5165)" fill="#fecf0c" cx="217.324" cy="63.959" rx="3.782" ry="9.615"/><ellipse transform="matrix(.9859 .1676 -.1676 .9859 13.7668 -35.4174)" fill="#f0efef" cx="216.724" cy="63.857" rx="2.404" ry="7.659"/><path fill="#ffdaaf" d="M160.961 207.107l-3.694 8.74-1.269 2.53 9.432 3.358 4.387-10.589z"/><path fill="#20467a" d="M139.016 121.346s54.611 10.528 62.885 18.517-31.581 73.239-31.581 73.239l-11.6-5.266s10.12-41.63 22.789-49.839c2.154-4.907-25.658-5.022-48.981-3.825s-30.973-15.077-25.426-32.868c12.898-7.347 31.914.042 31.914.042z"/><path fill="#285489" d="M170.32 213.103s39.856-65.25 31.581-73.239c-6.117-5.906-37.553-13.199-53.532-16.6-4.768.261-11.166 1.812-16.65 7.281 12.662-2.63 52.925 6.629 60.747 8.711s8.392 6.11 5.852 12.896c-2.455 6.556-24.173 50.62-29.915 60.081l1.917.87z"/><path fill="#63a0d6" d="M106.409 125.333s-5.372-58.658 25.656-85.314c7.667 3.386 13.793 12.293 16.851 19.968s.846 56.464-.079 60.145c-.241.96-2.591 2.084-6.15 3.134-10.089 2.977-27.209 5.708-36.278 2.067z"/><path fill="#20467a" d="M131.723 126.846s11.821-4.994 13.539-28.505 1.426-34.476 1.426-34.476 5.5 17.493 5.792 29.422-1.567 25.122-3.876 30.796-16.881 2.763-16.881 2.763z"/><path fill="#74b4e2" d="M134.477 67.91c1.711 10.328 7.427 35.287 12.074 40.098 7.681 7.952 44.655-2.51 44.655-2.51l-1.211-11.227c-11.507-.169-27.161-.204-29.615-1.281s-7.368-25.353-8.742-30.418-5.243-8.149-11.688-7.85-6.078 9.533-5.473 13.188z"/><path fill="#20467a" d="M109.399 127.238s-.876-33.756 5.125-47.004c10.149-16.925 18.214-24.728 23.164-26.269s9.096 1.436 9.096 1.436-1.211-3.012-2.581-4.299-7.198-2.713-12.381 1.077-18.917 20.311-21.528 26.618c-3.663 8.849-4.224 17.483-4.391 47.4.791 1.61 3.496 1.041 3.496 1.041z"/><path fill="#010101" d="M157.267 215.847s1.916 4.899 8.665 4.675c4.442 3.973 15.834 4.103 19.823 3.955s2.602 4.606-3.077 6.133-29.459.191-31.914.188 1.245-12.119 6.503-14.951z"/><path fill="#f7c68e" d="M165.568 29.67c.483-1.52-2.181-4.433.012-9.033s-3.786-8.578-3.786-8.578l-.324.454c-2.71-4.47-6.966-7.368-11.772-7.374-8.206-.011-14.87 8.378-14.884 18.737s6.636 18.435 14.842 18.446c.225 0 .436.301.658.289 3.25 2.126 7.718.211 8.276-1.27.693-1.84 1.126-2.933 2.251-2.931s.833-1.437.003-2.155c.607.204 1.838.086 1.637-.345s.203-1.352.512-3.704c2.95 1.275 3.437-1.73 2.575-2.536z"/><path d="M132.999 32.101l.354 5.121s8.669 2.601 11.208-2.546-11.562-2.575-11.562-2.575zm25.866-9.92s3.876-1.222 5.217.007c.153.422-.294.959-1.02.804l-4.197-.811z" fill="#353635"/><path fill="#bedef5" d="M165.839 27.599c-1.185-.064-8.307-.034-10.925-.021l.009-.029-4.661-1.502-.283.876 4.052 1.306c.19 2.875-2.218 6.234-3.351 7.643l-2.148-3.011-.75.535 2.36 3.309c.2.77 1.415 4.504 6.622 6.857 6.372-2.277 10.911-12.279 9.075-15.963z"/><path fill="#353635" d="M157.841 18.804c.491.077 7.28.815 9.73 4.194 1.98-1.695-.761-4.527-.761-4.527l-8.969.333z"/><path fill="#fecf0c" d="M154.518 18.739s12.904 1.6 16.814 3.101c2.199-9.778-4.579-17.973-15.277-20.979s-21.943 2.109-25.639 12.115-1.285 14.508 1.127 18.26c1.953 3.038 4.996 5.249 13.649 4.736 5.697-.338 5.725-8.52 6.517-11.556.809-3.106 1.078-6.093 2.809-5.677z"/><path fill="#fee003" d="M155.875.847c-6.647-1.858-13.499-.579-18.621 3.053 4.137-1.434 8.803-1.649 13.375-.371 9.241 2.583 15.559 9.041 15.706 17.053 1.993.392 3.763.812 4.844 1.225 2.187-9.782-4.602-17.968-15.304-20.96z"/><path fill="#353635" d="M153.215 17.366c-1.731-.417-2 2.57-2.809 5.676-.791 3.036-.82 11.219-6.517 11.556-6.311.374-9.632-.704-11.728-2.492 1.994 2.575 5.231 4.328 13.031 3.866 5.697-.338 5.725-8.52 6.517-11.556.81-3.106 1.078-6.093 2.809-5.676 0 0 12.904 1.6 16.814 3.101a17.22 17.22 0 0 0 .305-1.79c-4.054-1.484-18.422-2.685-18.422-2.685z"/><path opacity=".49" fill="#d2eefc" d="M172.527 18.328s.402 15.113-11.256 27.158c-3.465 1.706-15.499-2.796-13.712-14.783 1.265-8.484-.031-14.665 2.579-15.966s14.717 3.811 22.389 3.591z"/><path fill="#4d4d4d" d="M113.977 164.928l-34.206-.045c-2.434-.003-4.721-1.303-5.97-3.391l-4.177-6.982c-.424-.709-1.2-1.15-2.027-1.151l-56.736-.075a2.3 2.3 0 1 1 .006-4.602l56.736.075c2.434.003 4.721 1.303 5.97 3.391l4.177 6.982c.424.709 1.2 1.15 2.027 1.151l34.206.045a2.3 2.3 0 0 1-.006 4.602z"/><path fill="#fcb216" d="M72.727 148.763l-65.298-.086a6.14 6.14 0 0 1-6.129-6.145l.079-59.761a6.14 6.14 0 0 1 6.145-6.129l65.298.086a6.14 6.14 0 0 1 6.129 6.145l-.079 59.761a6.14 6.14 0 0 1-6.145 6.129z"/><path fill="#e99d23" d="M78.936 94.073l.015-11.2a6.14 6.14 0 0 0-6.129-6.145l-65.298-.087a6.14 6.14 0 0 0-6.145 6.129l-.015 11.2 77.572.103z"/><path fill="#fecf0c" d="M80.308 91.102l.011-8.26c.005-3.509-2.836-6.357-6.345-6.362l-67.6-.089C2.865 76.386.017 79.227.012 82.736L0 90.996l80.308.106z"/></svg>