<?xml version="1.0" standalone="no"?>
<!DOCTYPE svg PUBLIC "-//W3C//DTD SVG 20010904//EN"
 "http://www.w3.org/TR/2001/REC-SVG-20010904/DTD/svg10.dtd">
<svg version="1.0" xmlns="http://www.w3.org/2000/svg"
 width="130.000000pt" height="40.000000pt" viewBox="0 0 130.000000 40.000000"
 preserveAspectRatio="xMidYMid meet">

<g transform="translate(0.000000,40.000000) scale(0.100000,-0.100000)"
fill="#000000" stroke="none">
<path d="M30 225 l0 -115 60 0 c87 0 124 42 85 97 -12 18 -13 26 -4 41 17 28
3 71 -27 82 -14 6 -45 10 -70 10 l-44 0 0 -115z m101 59 c11 -14 10 -18 -6
-30 -28 -21 -50 -13 -53 19 -3 23 0 27 21 27 14 0 31 -7 38 -16z m-3 -83 c25
-16 9 -46 -26 -49 -28 -3 -32 0 -32 21 0 13 3 27 7 30 9 10 35 8 51 -2z"/>
<path d="M597 333 c-4 -3 -7 -55 -7 -115 l0 -108 25 0 c23 0 24 3 27 78 l3 77
49 -78 c38 -61 53 -77 72 -77 24 0 24 0 24 115 0 107 -1 115 -20 115 -17 0
-19 -8 -22 -72 l-3 -73 -48 73 c-36 54 -54 72 -71 72 -12 0 -26 -3 -29 -7z"/>
<path d="M1024 329 c-3 -6 1 -18 10 -27 15 -15 17 -15 32 0 19 19 11 38 -16
38 -10 0 -22 -5 -26 -11z"/>
<path d="M220 209 c0 -89 8 -99 80 -98 l60 1 0 79 c0 72 -2 79 -20 79 -16 0
-19 -8 -22 -57 -3 -54 -5 -58 -28 -58 -23 0 -25 4 -28 58 -3 49 -6 57 -22 57
-18 0 -20 -7 -20 -61z"/>
<path d="M390 265 c0 -3 14 -33 31 -68 31 -61 31 -62 16 -104 -16 -43 -16 -43
7 -43 19 0 30 16 69 104 26 57 47 107 47 110 0 3 -9 6 -20 6 -15 0 -26 -13
-41 -47 l-20 -48 -21 48 c-16 37 -26 47 -44 47 -13 0 -24 -2 -24 -5z"/>
<path d="M852 247 c-23 -25 -29 -75 -12 -107 14 -27 64 -41 100 -28 36 12 50
35 50 81 0 69 -90 105 -138 54z m88 -32 c26 -31 -8 -83 -45 -69 -37 15 -25 84
15 84 10 0 23 -7 30 -15z"/>
<path d="M1030 190 c0 -73 2 -80 20 -80 18 0 20 7 20 80 0 73 -2 80 -20 80
-18 0 -20 -7 -20 -80z"/>
<path d="M1120 190 c0 -73 2 -80 20 -80 17 0 20 7 20 51 0 47 2 52 30 62 17 6
30 17 30 25 0 19 -28 26 -45 12 -10 -9 -15 -9 -15 -1 0 6 -9 11 -20 11 -18 0
-20 -7 -20 -80z"/>
<path d="M1222 138 c2 -15 10 -23 23 -23 30 0 27 39 -3 43 -20 3 -23 0 -20
-20z"/>
</g>

</svg>
