<?xml version="1.0" encoding="UTF-8"?>
<svg fill="#32355E" width="24" height="24" enable-background="new 0 0 85.168 85.168" version="1.1" viewBox="0 0 85.168 85.168" xml:space="preserve" xmlns="http://www.w3.org/2000/svg">
	<path d="m61.696 14.999-4.126 4.457c8.806 5.774 13.923 16.353 12.184 27.41-1.146 7.288-5.063 13.694-11.027 18.037-5.206 3.791-11.43 5.615-17.777 5.252l1.09-1.144c-0.021-1e-3 -0.044 2e-3 -0.065 1e-3l4.129-4.332-3.813-3.639-8.188 8.596-2e-3 -3e-3 -3.533 3.71 3.811 3.636 2e-3 -1e-3 8.593 8.189 3.536-3.71-5.565-5.302c7.616 0.36 15.066-1.853 21.315-6.403 7.261-5.286 12.028-13.084 13.424-21.956 2.057-13.103-3.787-25.657-13.988-32.798z"/>
	<path d="m15.415 38.302c1.146-7.288 5.063-13.694 11.027-18.037 5.206-3.791 11.43-5.615 17.777-5.252l-1.09 1.144c0.021 1e-3 0.044-2e-3 0.065-1e-3l-4.129 4.332 3.813 3.639 8.188-8.596 2e-3 3e-3 3.533-3.71-3.811-3.636-2e-3 1e-3 -8.593-8.189-3.536 3.71 5.565 5.302c-7.616-0.36-15.066 1.853-21.315 6.403-7.261 5.286-12.028 13.084-13.424 21.956-2.06 13.104 3.785 25.658 13.985 32.799l4.126-4.457c-8.803-5.776-13.92-16.354-12.181-27.411z"/>
</svg>
