<?xml version="1.0" encoding="utf-8"?>
<!-- Generator: Adobe Illustrator 17.0.0, SVG Export Plug-In . SVG Version: 6.00 Build 0)  -->
<!DOCTYPE svg PUBLIC "-//W3C//DTD SVG 1.1//EN" "http://www.w3.org/Graphics/SVG/1.1/DTD/svg11.dtd">
<svg version="1.1" id="Layer_1" xmlns="http://www.w3.org/2000/svg" xmlns:xlink="http://www.w3.org/1999/xlink" x="0px" y="0px"
	 width="770px" height="207px" viewBox="0 0 770 207" enable-background="new 0 0 770 207" xml:space="preserve">
<g>
	<path d="M57.692,15.785c27.2,0,43.2,16,43.2,38.199c0,15-8.8,26.2-21,30.6c15,4,25.4,17,25.4,33.8c0,22.8-17.6,39.199-44,39.199
		H8.893V15.785H57.692z M54.493,75.784c14,0,22.399-8,22.399-19.8c0-12-8.4-19.799-23-19.799h-21.2v39.599H54.493z M57.093,137.184
		c14.399,0,23.799-7.8,23.799-20.4c0-12.2-8.2-20.8-23-20.8h-25.2v41.2H57.093z"/>
	<path d="M161.492,160.383c-23.2,0-36.799-17.199-36.799-38.799V60.185h23.199v57.199c0,12,5.6,22.199,19.6,22.199
		c13.399,0,20.399-9,20.399-21.8V60.185h23.2v79.599c0,8,0.6,14.2,1,17.8h-22.2c-0.4-2.2-0.8-6.8-0.8-10.8
		C184.291,155.583,172.892,160.383,161.492,160.383z"/>
	<path d="M245.892,196.982l23.399-50.999l-41.599-85.799h26.2l28,61.599l26.199-61.599h24.6l-61.999,136.798H245.892z"/>
	<path d="M445.689,157.583L375.691,50.185v107.398h-24V15.785h30.6l64.398,100.599V15.785h24v141.798H445.689z"/>
	<path d="M595.89,108.784c0,30-21.399,51.799-50.6,51.799c-28.999,0-50.399-21.8-50.399-51.799c0-29.799,21.4-51.599,50.399-51.599
		C574.49,57.185,595.89,78.984,595.89,108.784z M572.49,108.784c0-20.2-12.8-30.6-27.2-30.6c-14.199,0-27.199,10.4-27.199,30.6
		s13,31,27.199,31C559.69,139.783,572.49,129.184,572.49,108.784z"/>
	<path d="M629.689,10.785c8.4,0,15.2,6.8,15.2,15.2s-6.8,15-15.2,15c-8.199,0-15-6.6-15-15S621.49,10.785,629.689,10.785z
		 M618.29,157.583V60.185h22.999v97.398H618.29z"/>
	<path d="M728.289,83.184c-2.6-0.4-5.2-0.6-7.6-0.6c-18,0-26.2,10.4-26.2,28.6v46.399H671.29V60.185h22.6v15.6
		c4.6-10.6,15.399-16.8,28.199-16.8c2.8,0,5.2,0.4,6.2,0.6V83.184z"/>
</g>
<g>
	<path fill="#FAE3DA" d="M745.093,126.184c9,0,16.399,7.399,16.399,16.399s-7.399,16.2-16.399,16.2s-16.2-7.2-16.2-16.2
		S736.093,126.184,745.093,126.184z"/>
</g>
</svg>
